G04 #@! TF.GenerationSoftware,KiCad,Pcbnew,5.1.6*
G04 #@! TF.CreationDate,2021-12-18T09:42:17+01:00*
G04 #@! TF.ProjectId,co2_blep,636f325f-626c-4657-902e-6b696361645f,rev?*
G04 #@! TF.SameCoordinates,Original*
G04 #@! TF.FileFunction,Profile,NP*
%FSLAX46Y46*%
G04 Gerber Fmt 4.6, Leading zero omitted, Abs format (unit mm)*
G04 Created by KiCad (PCBNEW 5.1.6) date 2021-12-18 09:42:17*
%MOMM*%
%LPD*%
G01*
G04 APERTURE LIST*
G04 #@! TA.AperFunction,Profile*
%ADD10C,0.050000*%
G04 #@! TD*
G04 APERTURE END LIST*
D10*
X132715000Y-121920000D02*
X126365000Y-121920000D01*
X126365000Y-118110000D02*
X132715000Y-118110000D01*
X113665000Y-121920000D02*
X107315000Y-121920000D01*
X107315000Y-118110000D02*
X113665000Y-118110000D01*
X115570000Y-120015000D02*
G75*
G02*
X113665000Y-121920000I-1905000J0D01*
G01*
X113665000Y-118110000D02*
G75*
G02*
X115570000Y-120015000I0J-1905000D01*
G01*
X126365000Y-121920000D02*
G75*
G02*
X124460000Y-120015000I0J1905000D01*
G01*
X124460000Y-120015000D02*
G75*
G02*
X126365000Y-118110000I1905000J0D01*
G01*
X127000000Y-88900000D02*
X126365000Y-88900000D01*
X132715000Y-88900000D02*
X127000000Y-88900000D01*
X126365000Y-85090000D02*
X132715000Y-85090000D01*
X113665000Y-85090000D02*
X107315000Y-85090000D01*
X107315000Y-88900000D02*
X113665000Y-88900000D01*
X126365000Y-88900000D02*
G75*
G02*
X124460000Y-86995000I0J1905000D01*
G01*
X124460000Y-86995000D02*
G75*
G02*
X126365000Y-85090000I1905000J0D01*
G01*
X115570000Y-86995000D02*
G75*
G02*
X113665000Y-88900000I-1905000J0D01*
G01*
X113665000Y-85090000D02*
G75*
G02*
X115570000Y-86995000I0J-1905000D01*
G01*
X107315000Y-85090000D02*
G75*
G02*
X104775000Y-82550000I0J2540000D01*
G01*
X135255000Y-82550000D02*
G75*
G02*
X132715000Y-85090000I-2540000J0D01*
G01*
X132715000Y-55880000D02*
G75*
G02*
X135255000Y-58420000I0J-2540000D01*
G01*
X104775000Y-58420000D02*
G75*
G02*
X107315000Y-55880000I2540000J0D01*
G01*
X104775000Y-124460000D02*
G75*
G02*
X107315000Y-121920000I2540000J0D01*
G01*
X132715000Y-121920000D02*
G75*
G02*
X135255000Y-124460000I0J-2540000D01*
G01*
X135255000Y-148590000D02*
G75*
G02*
X132715000Y-151130000I-2540000J0D01*
G01*
X107315000Y-151130000D02*
G75*
G02*
X104775000Y-148590000I0J2540000D01*
G01*
X104775000Y-91440000D02*
G75*
G02*
X107315000Y-88900000I2540000J0D01*
G01*
X132715000Y-88900000D02*
G75*
G02*
X135255000Y-91440000I0J-2540000D01*
G01*
X135255000Y-115570000D02*
G75*
G02*
X132715000Y-118110000I-2540000J0D01*
G01*
X107315000Y-118110000D02*
G75*
G02*
X104775000Y-115570000I0J2540000D01*
G01*
X135255000Y-58420000D02*
X135255000Y-82550000D01*
X104775000Y-58420000D02*
X104775000Y-82550000D01*
X132715000Y-55880000D02*
X107315000Y-55880000D01*
X104775000Y-148590000D02*
X104775000Y-124460000D01*
X135255000Y-148590000D02*
X135255000Y-124460000D01*
X107315000Y-151130000D02*
X132715000Y-151130000D01*
X104775000Y-91440000D02*
X104775000Y-115570000D01*
X135255000Y-91440000D02*
X135255000Y-115570000D01*
M02*
