G04 #@! TF.GenerationSoftware,KiCad,Pcbnew,5.1.6*
G04 #@! TF.CreationDate,2021-12-18T09:42:17+01:00*
G04 #@! TF.ProjectId,co2_blep,636f325f-626c-4657-902e-6b696361645f,rev?*
G04 #@! TF.SameCoordinates,Original*
G04 #@! TF.FileFunction,Copper,L1,Top*
G04 #@! TF.FilePolarity,Positive*
%FSLAX46Y46*%
G04 Gerber Fmt 4.6, Leading zero omitted, Abs format (unit mm)*
G04 Created by KiCad (PCBNEW 5.1.6) date 2021-12-18 09:42:17*
%MOMM*%
%LPD*%
G01*
G04 APERTURE LIST*
G04 #@! TA.AperFunction,ComponentPad*
%ADD10O,1.600000X1.600000*%
G04 #@! TD*
G04 #@! TA.AperFunction,ComponentPad*
%ADD11C,1.600000*%
G04 #@! TD*
G04 #@! TA.AperFunction,ComponentPad*
%ADD12O,1.700000X1.700000*%
G04 #@! TD*
G04 #@! TA.AperFunction,ComponentPad*
%ADD13R,1.700000X1.700000*%
G04 #@! TD*
G04 #@! TA.AperFunction,ComponentPad*
%ADD14R,1.300000X1.300000*%
G04 #@! TD*
G04 #@! TA.AperFunction,ComponentPad*
%ADD15C,1.300000*%
G04 #@! TD*
G04 #@! TA.AperFunction,ComponentPad*
%ADD16C,3.500000*%
G04 #@! TD*
G04 #@! TA.AperFunction,ComponentPad*
%ADD17C,1.701800*%
G04 #@! TD*
G04 #@! TA.AperFunction,ComponentPad*
%ADD18R,1.701800X1.524000*%
G04 #@! TD*
G04 #@! TA.AperFunction,ComponentPad*
%ADD19R,1.701800X1.701800*%
G04 #@! TD*
G04 #@! TA.AperFunction,ComponentPad*
%ADD20O,1.400000X1.400000*%
G04 #@! TD*
G04 #@! TA.AperFunction,ComponentPad*
%ADD21C,1.400000*%
G04 #@! TD*
G04 #@! TA.AperFunction,ViaPad*
%ADD22C,1.300000*%
G04 #@! TD*
G04 #@! TA.AperFunction,Conductor*
%ADD23C,0.400000*%
G04 #@! TD*
G04 #@! TA.AperFunction,Conductor*
%ADD24C,0.800000*%
G04 #@! TD*
G04 #@! TA.AperFunction,Conductor*
%ADD25C,0.250000*%
G04 #@! TD*
G04 #@! TA.AperFunction,Conductor*
%ADD26C,0.254000*%
G04 #@! TD*
G04 APERTURE END LIST*
D10*
X113030000Y-101600000D03*
D11*
X123190000Y-101600000D03*
D12*
X125730000Y-149225000D03*
X123190000Y-149225000D03*
X120650000Y-149225000D03*
X118110000Y-149225000D03*
X115570000Y-149225000D03*
X113030000Y-149225000D03*
X110490000Y-149225000D03*
D13*
X107950000Y-149225000D03*
D14*
X131318000Y-96774000D03*
D15*
X133858000Y-96774000D03*
X132588000Y-95504000D03*
D14*
X119634000Y-94234000D03*
D15*
X117094000Y-94234000D03*
X118364000Y-95504000D03*
D12*
X107950000Y-57785000D03*
X107950000Y-60325000D03*
X107950000Y-62865000D03*
D13*
X107950000Y-65405000D03*
D12*
X107950000Y-90805000D03*
X107950000Y-93345000D03*
X107950000Y-95885000D03*
D13*
X107950000Y-98425000D03*
D16*
X132080000Y-77470000D03*
X132080000Y-148590000D03*
X107950000Y-77470000D03*
D17*
X133350000Y-115570000D03*
X130810000Y-115570000D03*
X128270000Y-115570000D03*
X125730000Y-115570000D03*
X123190000Y-115570000D03*
X120650000Y-115570000D03*
X118110000Y-115570000D03*
X115570000Y-115570000D03*
D18*
X113030000Y-115570000D03*
D17*
X123190000Y-146050000D03*
X120650000Y-146050000D03*
X118110000Y-146050000D03*
X115570000Y-146050000D03*
X113030000Y-146050000D03*
X110490000Y-146050000D03*
X107950000Y-138430000D03*
X107950000Y-135890000D03*
D19*
X107950000Y-133350000D03*
D20*
X130810000Y-144780000D03*
D21*
X133350000Y-144780000D03*
D20*
X122428000Y-93345000D03*
D21*
X122428000Y-95885000D03*
D14*
X113792000Y-97536000D03*
D15*
X111252000Y-97536000D03*
X112522000Y-98806000D03*
D17*
X122301000Y-69723000D03*
X120777000Y-71247000D03*
X119253000Y-69723000D03*
X117729000Y-71247000D03*
D11*
X114300000Y-112395000D03*
X119300000Y-112395000D03*
D17*
X110490000Y-133350000D03*
X130810000Y-133350000D03*
D10*
X123190000Y-104775000D03*
D11*
X113030000Y-104775000D03*
D10*
X120650000Y-108585000D03*
D11*
X110490000Y-108585000D03*
D10*
X114808000Y-61976000D03*
D11*
X124968000Y-61976000D03*
D10*
X111760000Y-75565000D03*
D11*
X111760000Y-65405000D03*
D10*
X124968000Y-78740000D03*
D11*
X114808000Y-78740000D03*
D10*
X128270000Y-113030000D03*
D11*
X128270000Y-102870000D03*
D12*
X114300000Y-90805000D03*
X116840000Y-90805000D03*
X119380000Y-90805000D03*
X121920000Y-90805000D03*
X124460000Y-90805000D03*
X127000000Y-90805000D03*
X129540000Y-90805000D03*
D13*
X132080000Y-90805000D03*
D16*
X132080000Y-124460000D03*
X107950000Y-110490000D03*
X132080000Y-129540000D03*
D22*
X121900000Y-111300000D03*
X128270000Y-99568000D03*
X128300000Y-95300000D03*
X132600000Y-99600000D03*
X119600000Y-99600000D03*
X119600000Y-103200000D03*
X117100000Y-101500000D03*
X132600000Y-104800000D03*
X132600000Y-113000000D03*
X128300000Y-71200000D03*
X107900000Y-71200000D03*
X119700000Y-77400000D03*
D23*
X110490000Y-107315000D02*
X113030000Y-104775000D01*
X110490000Y-108585000D02*
X110490000Y-107315000D01*
D24*
X123317000Y-60325000D02*
X107950000Y-60325000D01*
X124968000Y-61976000D02*
X123317000Y-60325000D01*
X109220000Y-62865000D02*
X107950000Y-62865000D01*
X111760000Y-65405000D02*
X109220000Y-62865000D01*
D23*
X118110000Y-146685000D02*
X118110000Y-146050000D01*
X118110000Y-146050000D02*
X118110000Y-149225000D01*
X120650000Y-146685000D02*
X120650000Y-146050000D01*
X112522000Y-96785998D02*
X112522000Y-98806000D01*
X117252997Y-92055001D02*
X112522000Y-96785998D01*
X118129999Y-92055001D02*
X117252997Y-92055001D01*
X119380000Y-90805000D02*
X118129999Y-92055001D01*
X120650000Y-146050000D02*
X120650000Y-149225000D01*
X112522000Y-101092000D02*
X113030000Y-101600000D01*
X112522000Y-98806000D02*
X112522000Y-101092000D01*
X123190000Y-146685000D02*
X123190000Y-146050000D01*
X123190000Y-146050000D02*
X123190000Y-149225000D01*
X123190000Y-115570000D02*
X123190000Y-104775000D01*
X123190000Y-104775000D02*
X125984000Y-101981000D01*
X125984000Y-91821000D02*
X127000000Y-90805000D01*
X125984000Y-101981000D02*
X125984000Y-91821000D01*
D25*
X113030000Y-148590000D02*
X113030000Y-149225000D01*
X110490000Y-146050000D02*
X113030000Y-148590000D01*
D23*
X115570000Y-146685000D02*
X115570000Y-146050000D01*
X120650000Y-115570000D02*
X120650000Y-107950000D01*
X120650000Y-107950000D02*
X120815001Y-107784999D01*
X120650000Y-104394000D02*
X120650000Y-108585000D01*
D25*
X115570000Y-146050000D02*
X115570000Y-149225000D01*
D23*
X121989999Y-97951003D02*
X121989999Y-103054001D01*
X121989999Y-103054001D02*
X120650000Y-104394000D01*
X124460000Y-95481002D02*
X121989999Y-97951003D01*
X124460000Y-90805000D02*
X124460000Y-95481002D01*
X128270000Y-115570000D02*
X128270000Y-113030000D01*
D25*
X133571999Y-89629999D02*
X130715001Y-89629999D01*
X134833001Y-90891001D02*
X133571999Y-89629999D01*
X134833001Y-106466999D02*
X134833001Y-90891001D01*
X130715001Y-89629999D02*
X129540000Y-90805000D01*
X128270000Y-113030000D02*
X134833001Y-106466999D01*
X113030000Y-146050000D02*
X113030000Y-144780000D01*
X113030000Y-144780000D02*
X111760000Y-143510000D01*
X111760000Y-143510000D02*
X109855000Y-143510000D01*
X109855000Y-143510000D02*
X108585000Y-144780000D01*
X108585000Y-147320000D02*
X110490000Y-149225000D01*
X108585000Y-144780000D02*
X108585000Y-147320000D01*
D24*
X122301000Y-69723000D02*
X122301000Y-76073000D01*
X122301000Y-76073000D02*
X124968000Y-78740000D01*
X120777000Y-74295000D02*
X120777000Y-71247000D01*
X119507000Y-75565000D02*
X120777000Y-74295000D01*
X111760000Y-75565000D02*
X119507000Y-75565000D01*
X114808000Y-68326000D02*
X117729000Y-71247000D01*
X114808000Y-61976000D02*
X114808000Y-68326000D01*
D26*
G36*
X124893649Y-122113178D02*
G01*
X124943476Y-122146283D01*
X124992832Y-122180078D01*
X125000938Y-122184461D01*
X125329210Y-122359006D01*
X125384511Y-122381799D01*
X125439496Y-122405366D01*
X125448299Y-122408091D01*
X125804222Y-122515551D01*
X125862914Y-122527172D01*
X125921415Y-122539607D01*
X125930576Y-122540570D01*
X125930580Y-122540570D01*
X126300596Y-122576850D01*
X126300598Y-122576850D01*
X126332581Y-122580000D01*
X130600733Y-122580000D01*
X130559651Y-122607450D01*
X130227450Y-122939651D01*
X129966440Y-123330279D01*
X129786654Y-123764321D01*
X129695000Y-124225098D01*
X129695000Y-124694902D01*
X129786654Y-125155679D01*
X129966440Y-125589721D01*
X130227450Y-125980349D01*
X130559651Y-126312550D01*
X130950279Y-126573560D01*
X131384321Y-126753346D01*
X131845098Y-126845000D01*
X132314902Y-126845000D01*
X132775679Y-126753346D01*
X133209721Y-126573560D01*
X133600349Y-126312550D01*
X133932550Y-125980349D01*
X134193560Y-125589721D01*
X134373346Y-125155679D01*
X134465000Y-124694902D01*
X134465000Y-124225098D01*
X134373346Y-123764321D01*
X134193560Y-123330279D01*
X134147137Y-123260802D01*
X134270965Y-123410486D01*
X134445183Y-123732695D01*
X134553502Y-124082614D01*
X134595001Y-124477452D01*
X134595000Y-144297175D01*
X134533061Y-144147641D01*
X134386962Y-143928987D01*
X134201013Y-143743038D01*
X133982359Y-143596939D01*
X133739405Y-143496304D01*
X133481486Y-143445000D01*
X133218514Y-143445000D01*
X132960595Y-143496304D01*
X132717641Y-143596939D01*
X132498987Y-143743038D01*
X132313038Y-143928987D01*
X132166939Y-144147641D01*
X132080000Y-144357530D01*
X131993061Y-144147641D01*
X131846962Y-143928987D01*
X131661013Y-143743038D01*
X131442359Y-143596939D01*
X131199405Y-143496304D01*
X130941486Y-143445000D01*
X130678514Y-143445000D01*
X130420595Y-143496304D01*
X130177641Y-143596939D01*
X129958987Y-143743038D01*
X129773038Y-143928987D01*
X129626939Y-144147641D01*
X129526304Y-144390595D01*
X129475000Y-144648514D01*
X129475000Y-144911486D01*
X129526304Y-145169405D01*
X129626939Y-145412359D01*
X129773038Y-145631013D01*
X129958987Y-145816962D01*
X130177641Y-145963061D01*
X130420595Y-146063696D01*
X130678514Y-146115000D01*
X130941486Y-146115000D01*
X131199405Y-146063696D01*
X131442359Y-145963061D01*
X131661013Y-145816962D01*
X131846962Y-145631013D01*
X131993061Y-145412359D01*
X132080000Y-145202470D01*
X132166939Y-145412359D01*
X132313038Y-145631013D01*
X132498987Y-145816962D01*
X132717641Y-145963061D01*
X132960595Y-146063696D01*
X133218514Y-146115000D01*
X133481486Y-146115000D01*
X133739405Y-146063696D01*
X133982359Y-145963061D01*
X134201013Y-145816962D01*
X134386962Y-145631013D01*
X134533061Y-145412359D01*
X134595000Y-145262825D01*
X134595000Y-148557721D01*
X134556091Y-148954545D01*
X134450220Y-149305206D01*
X134278257Y-149628623D01*
X134146415Y-149790278D01*
X134193560Y-149719721D01*
X134373346Y-149285679D01*
X134465000Y-148824902D01*
X134465000Y-148355098D01*
X134373346Y-147894321D01*
X134193560Y-147460279D01*
X133932550Y-147069651D01*
X133600349Y-146737450D01*
X133209721Y-146476440D01*
X132775679Y-146296654D01*
X132314902Y-146205000D01*
X131845098Y-146205000D01*
X131384321Y-146296654D01*
X130950279Y-146476440D01*
X130559651Y-146737450D01*
X130227450Y-147069651D01*
X129966440Y-147460279D01*
X129786654Y-147894321D01*
X129695000Y-148355098D01*
X129695000Y-148824902D01*
X129786654Y-149285679D01*
X129966440Y-149719721D01*
X130227450Y-150110349D01*
X130559651Y-150442550D01*
X130600733Y-150470000D01*
X126532637Y-150470000D01*
X126730269Y-150322588D01*
X126925178Y-150106355D01*
X127074157Y-149856252D01*
X127171481Y-149581891D01*
X127050814Y-149352000D01*
X125857000Y-149352000D01*
X125857000Y-149372000D01*
X125603000Y-149372000D01*
X125603000Y-149352000D01*
X125583000Y-149352000D01*
X125583000Y-149098000D01*
X125603000Y-149098000D01*
X125603000Y-147904845D01*
X125857000Y-147904845D01*
X125857000Y-149098000D01*
X127050814Y-149098000D01*
X127171481Y-148868109D01*
X127074157Y-148593748D01*
X126925178Y-148343645D01*
X126730269Y-148127412D01*
X126496920Y-147953359D01*
X126234099Y-147828175D01*
X126086890Y-147783524D01*
X125857000Y-147904845D01*
X125603000Y-147904845D01*
X125373110Y-147783524D01*
X125225901Y-147828175D01*
X124963080Y-147953359D01*
X124729731Y-148127412D01*
X124534822Y-148343645D01*
X124465195Y-148460534D01*
X124343475Y-148278368D01*
X124136632Y-148071525D01*
X124025000Y-147996935D01*
X124025000Y-147279148D01*
X124137206Y-147204174D01*
X124344174Y-146997206D01*
X124506788Y-146753838D01*
X124618798Y-146483421D01*
X124675900Y-146196348D01*
X124675900Y-145903652D01*
X124618798Y-145616579D01*
X124506788Y-145346162D01*
X124344174Y-145102794D01*
X124137206Y-144895826D01*
X123893838Y-144733212D01*
X123623421Y-144621202D01*
X123336348Y-144564100D01*
X123043652Y-144564100D01*
X122756579Y-144621202D01*
X122486162Y-144733212D01*
X122242794Y-144895826D01*
X122035826Y-145102794D01*
X121920000Y-145276139D01*
X121804174Y-145102794D01*
X121597206Y-144895826D01*
X121353838Y-144733212D01*
X121083421Y-144621202D01*
X120796348Y-144564100D01*
X120503652Y-144564100D01*
X120216579Y-144621202D01*
X119946162Y-144733212D01*
X119702794Y-144895826D01*
X119495826Y-145102794D01*
X119380000Y-145276139D01*
X119264174Y-145102794D01*
X119057206Y-144895826D01*
X118813838Y-144733212D01*
X118543421Y-144621202D01*
X118256348Y-144564100D01*
X117963652Y-144564100D01*
X117676579Y-144621202D01*
X117406162Y-144733212D01*
X117162794Y-144895826D01*
X116955826Y-145102794D01*
X116840000Y-145276139D01*
X116724174Y-145102794D01*
X116517206Y-144895826D01*
X116273838Y-144733212D01*
X116003421Y-144621202D01*
X115716348Y-144564100D01*
X115423652Y-144564100D01*
X115136579Y-144621202D01*
X114866162Y-144733212D01*
X114622794Y-144895826D01*
X114415826Y-145102794D01*
X114300000Y-145276139D01*
X114184174Y-145102794D01*
X113977206Y-144895826D01*
X113792959Y-144772715D01*
X113790000Y-144742676D01*
X113790000Y-144742667D01*
X113779003Y-144631014D01*
X113735546Y-144487753D01*
X113664974Y-144355724D01*
X113570001Y-144239999D01*
X113541003Y-144216201D01*
X112323804Y-142999003D01*
X112300001Y-142969999D01*
X112184276Y-142875026D01*
X112052247Y-142804454D01*
X111908986Y-142760997D01*
X111797333Y-142750000D01*
X111797322Y-142750000D01*
X111760000Y-142746324D01*
X111722678Y-142750000D01*
X109892322Y-142750000D01*
X109854999Y-142746324D01*
X109817676Y-142750000D01*
X109817667Y-142750000D01*
X109706014Y-142760997D01*
X109562753Y-142804454D01*
X109430724Y-142875026D01*
X109314999Y-142969999D01*
X109291201Y-142998997D01*
X108074003Y-144216196D01*
X108044999Y-144239999D01*
X107989871Y-144307174D01*
X107950026Y-144355724D01*
X107931387Y-144390595D01*
X107879454Y-144487754D01*
X107835997Y-144631015D01*
X107825000Y-144742668D01*
X107825000Y-144742678D01*
X107821324Y-144780000D01*
X107825000Y-144817323D01*
X107825001Y-147282668D01*
X107821324Y-147320000D01*
X107825001Y-147357333D01*
X107835998Y-147468986D01*
X107847808Y-147507918D01*
X107879454Y-147612246D01*
X107946098Y-147736928D01*
X107100000Y-147736928D01*
X106975518Y-147749188D01*
X106855820Y-147785498D01*
X106745506Y-147844463D01*
X106648815Y-147923815D01*
X106569463Y-148020506D01*
X106510498Y-148130820D01*
X106474188Y-148250518D01*
X106461928Y-148375000D01*
X106461928Y-150075000D01*
X106474188Y-150199482D01*
X106495510Y-150269772D01*
X106276377Y-150153257D01*
X105992518Y-149921748D01*
X105759035Y-149639514D01*
X105584816Y-149317304D01*
X105476498Y-148967385D01*
X105435000Y-148572557D01*
X105435000Y-134200900D01*
X106461028Y-134200900D01*
X106473288Y-134325382D01*
X106509598Y-134445080D01*
X106568563Y-134555394D01*
X106647915Y-134652085D01*
X106744606Y-134731437D01*
X106854920Y-134790402D01*
X106926503Y-134812117D01*
X106795826Y-134942794D01*
X106633212Y-135186162D01*
X106521202Y-135456579D01*
X106464100Y-135743652D01*
X106464100Y-136036348D01*
X106521202Y-136323421D01*
X106633212Y-136593838D01*
X106795826Y-136837206D01*
X107002794Y-137044174D01*
X107176139Y-137160000D01*
X107002794Y-137275826D01*
X106795826Y-137482794D01*
X106633212Y-137726162D01*
X106521202Y-137996579D01*
X106464100Y-138283652D01*
X106464100Y-138576348D01*
X106521202Y-138863421D01*
X106633212Y-139133838D01*
X106795826Y-139377206D01*
X107002794Y-139584174D01*
X107246162Y-139746788D01*
X107516579Y-139858798D01*
X107803652Y-139915900D01*
X108096348Y-139915900D01*
X108383421Y-139858798D01*
X108653838Y-139746788D01*
X108897206Y-139584174D01*
X109104174Y-139377206D01*
X109266788Y-139133838D01*
X109378798Y-138863421D01*
X109435900Y-138576348D01*
X109435900Y-138283652D01*
X109378798Y-137996579D01*
X109266788Y-137726162D01*
X109104174Y-137482794D01*
X108897206Y-137275826D01*
X108723861Y-137160000D01*
X108897206Y-137044174D01*
X109104174Y-136837206D01*
X109266788Y-136593838D01*
X109378798Y-136323421D01*
X109435900Y-136036348D01*
X109435900Y-135743652D01*
X109378798Y-135456579D01*
X109266788Y-135186162D01*
X109104174Y-134942794D01*
X108973497Y-134812117D01*
X109045080Y-134790402D01*
X109155394Y-134731437D01*
X109252085Y-134652085D01*
X109331437Y-134555394D01*
X109390402Y-134445080D01*
X109410435Y-134379040D01*
X109640565Y-134379040D01*
X109718310Y-134628207D01*
X109982503Y-134754196D01*
X110266199Y-134826223D01*
X110558496Y-134841519D01*
X110848161Y-134799497D01*
X111124062Y-134701771D01*
X111261690Y-134628207D01*
X111339435Y-134379040D01*
X110490000Y-133529605D01*
X109640565Y-134379040D01*
X109410435Y-134379040D01*
X109426712Y-134325382D01*
X109438972Y-134200900D01*
X109438927Y-134192560D01*
X109460960Y-134199435D01*
X110310395Y-133350000D01*
X110669605Y-133350000D01*
X111519040Y-134199435D01*
X111768207Y-134121690D01*
X111894196Y-133857497D01*
X111966223Y-133573801D01*
X111981519Y-133281504D01*
X111970225Y-133203652D01*
X129324100Y-133203652D01*
X129324100Y-133496348D01*
X129381202Y-133783421D01*
X129493212Y-134053838D01*
X129655826Y-134297206D01*
X129862794Y-134504174D01*
X130106162Y-134666788D01*
X130376579Y-134778798D01*
X130663652Y-134835900D01*
X130956348Y-134835900D01*
X131243421Y-134778798D01*
X131513838Y-134666788D01*
X131757206Y-134504174D01*
X131964174Y-134297206D01*
X132126788Y-134053838D01*
X132238798Y-133783421D01*
X132295900Y-133496348D01*
X132295900Y-133203652D01*
X132238798Y-132916579D01*
X132126788Y-132646162D01*
X131964174Y-132402794D01*
X131757206Y-132195826D01*
X131513838Y-132033212D01*
X131243421Y-131921202D01*
X130956348Y-131864100D01*
X130663652Y-131864100D01*
X130376579Y-131921202D01*
X130106162Y-132033212D01*
X129862794Y-132195826D01*
X129655826Y-132402794D01*
X129493212Y-132646162D01*
X129381202Y-132916579D01*
X129324100Y-133203652D01*
X111970225Y-133203652D01*
X111939497Y-132991839D01*
X111841771Y-132715938D01*
X111768207Y-132578310D01*
X111519040Y-132500565D01*
X110669605Y-133350000D01*
X110310395Y-133350000D01*
X109460960Y-132500565D01*
X109438927Y-132507440D01*
X109438972Y-132499100D01*
X109426712Y-132374618D01*
X109410436Y-132320960D01*
X109640565Y-132320960D01*
X110490000Y-133170395D01*
X111339435Y-132320960D01*
X111261690Y-132071793D01*
X110997497Y-131945804D01*
X110713801Y-131873777D01*
X110421504Y-131858481D01*
X110131839Y-131900503D01*
X109855938Y-131998229D01*
X109718310Y-132071793D01*
X109640565Y-132320960D01*
X109410436Y-132320960D01*
X109390402Y-132254920D01*
X109331437Y-132144606D01*
X109252085Y-132047915D01*
X109155394Y-131968563D01*
X109045080Y-131909598D01*
X108925382Y-131873288D01*
X108800900Y-131861028D01*
X108235750Y-131864100D01*
X108077000Y-132022850D01*
X108077000Y-133223000D01*
X108097000Y-133223000D01*
X108097000Y-133477000D01*
X108077000Y-133477000D01*
X108077000Y-133497000D01*
X107823000Y-133497000D01*
X107823000Y-133477000D01*
X106622850Y-133477000D01*
X106464100Y-133635750D01*
X106461028Y-134200900D01*
X105435000Y-134200900D01*
X105435000Y-132499100D01*
X106461028Y-132499100D01*
X106464100Y-133064250D01*
X106622850Y-133223000D01*
X107823000Y-133223000D01*
X107823000Y-132022850D01*
X107664250Y-131864100D01*
X107099100Y-131861028D01*
X106974618Y-131873288D01*
X106854920Y-131909598D01*
X106744606Y-131968563D01*
X106647915Y-132047915D01*
X106568563Y-132144606D01*
X106509598Y-132254920D01*
X106473288Y-132374618D01*
X106461028Y-132499100D01*
X105435000Y-132499100D01*
X105435000Y-129305098D01*
X129695000Y-129305098D01*
X129695000Y-129774902D01*
X129786654Y-130235679D01*
X129966440Y-130669721D01*
X130227450Y-131060349D01*
X130559651Y-131392550D01*
X130950279Y-131653560D01*
X131384321Y-131833346D01*
X131845098Y-131925000D01*
X132314902Y-131925000D01*
X132775679Y-131833346D01*
X133209721Y-131653560D01*
X133600349Y-131392550D01*
X133932550Y-131060349D01*
X134193560Y-130669721D01*
X134373346Y-130235679D01*
X134465000Y-129774902D01*
X134465000Y-129305098D01*
X134373346Y-128844321D01*
X134193560Y-128410279D01*
X133932550Y-128019651D01*
X133600349Y-127687450D01*
X133209721Y-127426440D01*
X132775679Y-127246654D01*
X132314902Y-127155000D01*
X131845098Y-127155000D01*
X131384321Y-127246654D01*
X130950279Y-127426440D01*
X130559651Y-127687450D01*
X130227450Y-128019651D01*
X129966440Y-128410279D01*
X129786654Y-128844321D01*
X129695000Y-129305098D01*
X105435000Y-129305098D01*
X105435000Y-124492279D01*
X105473909Y-124095455D01*
X105579780Y-123744792D01*
X105751744Y-123421375D01*
X105983254Y-123137516D01*
X106265486Y-122904035D01*
X106587695Y-122729817D01*
X106937614Y-122621498D01*
X107332443Y-122580000D01*
X113697419Y-122580000D01*
X113726301Y-122577155D01*
X113738117Y-122577238D01*
X113747288Y-122576338D01*
X114117043Y-122537475D01*
X114175636Y-122525447D01*
X114234399Y-122514238D01*
X114243221Y-122511575D01*
X114598385Y-122401633D01*
X114653536Y-122378449D01*
X114708992Y-122356044D01*
X114717128Y-122351717D01*
X115044173Y-122174886D01*
X115093774Y-122141430D01*
X115143821Y-122108680D01*
X115150962Y-122102855D01*
X115181131Y-122077897D01*
X115209774Y-122221898D01*
X115287795Y-122410256D01*
X115401063Y-122579774D01*
X115545226Y-122723937D01*
X115714744Y-122837205D01*
X115903102Y-122915226D01*
X116103061Y-122955000D01*
X116306939Y-122955000D01*
X116506898Y-122915226D01*
X116695256Y-122837205D01*
X116864774Y-122723937D01*
X117008937Y-122579774D01*
X117122205Y-122410256D01*
X117157500Y-122325047D01*
X117192795Y-122410256D01*
X117306063Y-122579774D01*
X117450226Y-122723937D01*
X117619744Y-122837205D01*
X117808102Y-122915226D01*
X118008061Y-122955000D01*
X118211939Y-122955000D01*
X118411898Y-122915226D01*
X118600256Y-122837205D01*
X118769774Y-122723937D01*
X118913937Y-122579774D01*
X119027205Y-122410256D01*
X119062500Y-122325047D01*
X119097795Y-122410256D01*
X119211063Y-122579774D01*
X119355226Y-122723937D01*
X119524744Y-122837205D01*
X119713102Y-122915226D01*
X119913061Y-122955000D01*
X120116939Y-122955000D01*
X120316898Y-122915226D01*
X120505256Y-122837205D01*
X120674774Y-122723937D01*
X120818937Y-122579774D01*
X120932205Y-122410256D01*
X120967500Y-122325047D01*
X121002795Y-122410256D01*
X121116063Y-122579774D01*
X121260226Y-122723937D01*
X121429744Y-122837205D01*
X121618102Y-122915226D01*
X121818061Y-122955000D01*
X122021939Y-122955000D01*
X122221898Y-122915226D01*
X122410256Y-122837205D01*
X122579774Y-122723937D01*
X122723937Y-122579774D01*
X122837205Y-122410256D01*
X122872500Y-122325047D01*
X122907795Y-122410256D01*
X123021063Y-122579774D01*
X123165226Y-122723937D01*
X123334744Y-122837205D01*
X123523102Y-122915226D01*
X123723061Y-122955000D01*
X123926939Y-122955000D01*
X124126898Y-122915226D01*
X124315256Y-122837205D01*
X124484774Y-122723937D01*
X124628937Y-122579774D01*
X124742205Y-122410256D01*
X124820226Y-122221898D01*
X124849082Y-122076830D01*
X124893649Y-122113178D01*
G37*
X124893649Y-122113178D02*
X124943476Y-122146283D01*
X124992832Y-122180078D01*
X125000938Y-122184461D01*
X125329210Y-122359006D01*
X125384511Y-122381799D01*
X125439496Y-122405366D01*
X125448299Y-122408091D01*
X125804222Y-122515551D01*
X125862914Y-122527172D01*
X125921415Y-122539607D01*
X125930576Y-122540570D01*
X125930580Y-122540570D01*
X126300596Y-122576850D01*
X126300598Y-122576850D01*
X126332581Y-122580000D01*
X130600733Y-122580000D01*
X130559651Y-122607450D01*
X130227450Y-122939651D01*
X129966440Y-123330279D01*
X129786654Y-123764321D01*
X129695000Y-124225098D01*
X129695000Y-124694902D01*
X129786654Y-125155679D01*
X129966440Y-125589721D01*
X130227450Y-125980349D01*
X130559651Y-126312550D01*
X130950279Y-126573560D01*
X131384321Y-126753346D01*
X131845098Y-126845000D01*
X132314902Y-126845000D01*
X132775679Y-126753346D01*
X133209721Y-126573560D01*
X133600349Y-126312550D01*
X133932550Y-125980349D01*
X134193560Y-125589721D01*
X134373346Y-125155679D01*
X134465000Y-124694902D01*
X134465000Y-124225098D01*
X134373346Y-123764321D01*
X134193560Y-123330279D01*
X134147137Y-123260802D01*
X134270965Y-123410486D01*
X134445183Y-123732695D01*
X134553502Y-124082614D01*
X134595001Y-124477452D01*
X134595000Y-144297175D01*
X134533061Y-144147641D01*
X134386962Y-143928987D01*
X134201013Y-143743038D01*
X133982359Y-143596939D01*
X133739405Y-143496304D01*
X133481486Y-143445000D01*
X133218514Y-143445000D01*
X132960595Y-143496304D01*
X132717641Y-143596939D01*
X132498987Y-143743038D01*
X132313038Y-143928987D01*
X132166939Y-144147641D01*
X132080000Y-144357530D01*
X131993061Y-144147641D01*
X131846962Y-143928987D01*
X131661013Y-143743038D01*
X131442359Y-143596939D01*
X131199405Y-143496304D01*
X130941486Y-143445000D01*
X130678514Y-143445000D01*
X130420595Y-143496304D01*
X130177641Y-143596939D01*
X129958987Y-143743038D01*
X129773038Y-143928987D01*
X129626939Y-144147641D01*
X129526304Y-144390595D01*
X129475000Y-144648514D01*
X129475000Y-144911486D01*
X129526304Y-145169405D01*
X129626939Y-145412359D01*
X129773038Y-145631013D01*
X129958987Y-145816962D01*
X130177641Y-145963061D01*
X130420595Y-146063696D01*
X130678514Y-146115000D01*
X130941486Y-146115000D01*
X131199405Y-146063696D01*
X131442359Y-145963061D01*
X131661013Y-145816962D01*
X131846962Y-145631013D01*
X131993061Y-145412359D01*
X132080000Y-145202470D01*
X132166939Y-145412359D01*
X132313038Y-145631013D01*
X132498987Y-145816962D01*
X132717641Y-145963061D01*
X132960595Y-146063696D01*
X133218514Y-146115000D01*
X133481486Y-146115000D01*
X133739405Y-146063696D01*
X133982359Y-145963061D01*
X134201013Y-145816962D01*
X134386962Y-145631013D01*
X134533061Y-145412359D01*
X134595000Y-145262825D01*
X134595000Y-148557721D01*
X134556091Y-148954545D01*
X134450220Y-149305206D01*
X134278257Y-149628623D01*
X134146415Y-149790278D01*
X134193560Y-149719721D01*
X134373346Y-149285679D01*
X134465000Y-148824902D01*
X134465000Y-148355098D01*
X134373346Y-147894321D01*
X134193560Y-147460279D01*
X133932550Y-147069651D01*
X133600349Y-146737450D01*
X133209721Y-146476440D01*
X132775679Y-146296654D01*
X132314902Y-146205000D01*
X131845098Y-146205000D01*
X131384321Y-146296654D01*
X130950279Y-146476440D01*
X130559651Y-146737450D01*
X130227450Y-147069651D01*
X129966440Y-147460279D01*
X129786654Y-147894321D01*
X129695000Y-148355098D01*
X129695000Y-148824902D01*
X129786654Y-149285679D01*
X129966440Y-149719721D01*
X130227450Y-150110349D01*
X130559651Y-150442550D01*
X130600733Y-150470000D01*
X126532637Y-150470000D01*
X126730269Y-150322588D01*
X126925178Y-150106355D01*
X127074157Y-149856252D01*
X127171481Y-149581891D01*
X127050814Y-149352000D01*
X125857000Y-149352000D01*
X125857000Y-149372000D01*
X125603000Y-149372000D01*
X125603000Y-149352000D01*
X125583000Y-149352000D01*
X125583000Y-149098000D01*
X125603000Y-149098000D01*
X125603000Y-147904845D01*
X125857000Y-147904845D01*
X125857000Y-149098000D01*
X127050814Y-149098000D01*
X127171481Y-148868109D01*
X127074157Y-148593748D01*
X126925178Y-148343645D01*
X126730269Y-148127412D01*
X126496920Y-147953359D01*
X126234099Y-147828175D01*
X126086890Y-147783524D01*
X125857000Y-147904845D01*
X125603000Y-147904845D01*
X125373110Y-147783524D01*
X125225901Y-147828175D01*
X124963080Y-147953359D01*
X124729731Y-148127412D01*
X124534822Y-148343645D01*
X124465195Y-148460534D01*
X124343475Y-148278368D01*
X124136632Y-148071525D01*
X124025000Y-147996935D01*
X124025000Y-147279148D01*
X124137206Y-147204174D01*
X124344174Y-146997206D01*
X124506788Y-146753838D01*
X124618798Y-146483421D01*
X124675900Y-146196348D01*
X124675900Y-145903652D01*
X124618798Y-145616579D01*
X124506788Y-145346162D01*
X124344174Y-145102794D01*
X124137206Y-144895826D01*
X123893838Y-144733212D01*
X123623421Y-144621202D01*
X123336348Y-144564100D01*
X123043652Y-144564100D01*
X122756579Y-144621202D01*
X122486162Y-144733212D01*
X122242794Y-144895826D01*
X122035826Y-145102794D01*
X121920000Y-145276139D01*
X121804174Y-145102794D01*
X121597206Y-144895826D01*
X121353838Y-144733212D01*
X121083421Y-144621202D01*
X120796348Y-144564100D01*
X120503652Y-144564100D01*
X120216579Y-144621202D01*
X119946162Y-144733212D01*
X119702794Y-144895826D01*
X119495826Y-145102794D01*
X119380000Y-145276139D01*
X119264174Y-145102794D01*
X119057206Y-144895826D01*
X118813838Y-144733212D01*
X118543421Y-144621202D01*
X118256348Y-144564100D01*
X117963652Y-144564100D01*
X117676579Y-144621202D01*
X117406162Y-144733212D01*
X117162794Y-144895826D01*
X116955826Y-145102794D01*
X116840000Y-145276139D01*
X116724174Y-145102794D01*
X116517206Y-144895826D01*
X116273838Y-144733212D01*
X116003421Y-144621202D01*
X115716348Y-144564100D01*
X115423652Y-144564100D01*
X115136579Y-144621202D01*
X114866162Y-144733212D01*
X114622794Y-144895826D01*
X114415826Y-145102794D01*
X114300000Y-145276139D01*
X114184174Y-145102794D01*
X113977206Y-144895826D01*
X113792959Y-144772715D01*
X113790000Y-144742676D01*
X113790000Y-144742667D01*
X113779003Y-144631014D01*
X113735546Y-144487753D01*
X113664974Y-144355724D01*
X113570001Y-144239999D01*
X113541003Y-144216201D01*
X112323804Y-142999003D01*
X112300001Y-142969999D01*
X112184276Y-142875026D01*
X112052247Y-142804454D01*
X111908986Y-142760997D01*
X111797333Y-142750000D01*
X111797322Y-142750000D01*
X111760000Y-142746324D01*
X111722678Y-142750000D01*
X109892322Y-142750000D01*
X109854999Y-142746324D01*
X109817676Y-142750000D01*
X109817667Y-142750000D01*
X109706014Y-142760997D01*
X109562753Y-142804454D01*
X109430724Y-142875026D01*
X109314999Y-142969999D01*
X109291201Y-142998997D01*
X108074003Y-144216196D01*
X108044999Y-144239999D01*
X107989871Y-144307174D01*
X107950026Y-144355724D01*
X107931387Y-144390595D01*
X107879454Y-144487754D01*
X107835997Y-144631015D01*
X107825000Y-144742668D01*
X107825000Y-144742678D01*
X107821324Y-144780000D01*
X107825000Y-144817323D01*
X107825001Y-147282668D01*
X107821324Y-147320000D01*
X107825001Y-147357333D01*
X107835998Y-147468986D01*
X107847808Y-147507918D01*
X107879454Y-147612246D01*
X107946098Y-147736928D01*
X107100000Y-147736928D01*
X106975518Y-147749188D01*
X106855820Y-147785498D01*
X106745506Y-147844463D01*
X106648815Y-147923815D01*
X106569463Y-148020506D01*
X106510498Y-148130820D01*
X106474188Y-148250518D01*
X106461928Y-148375000D01*
X106461928Y-150075000D01*
X106474188Y-150199482D01*
X106495510Y-150269772D01*
X106276377Y-150153257D01*
X105992518Y-149921748D01*
X105759035Y-149639514D01*
X105584816Y-149317304D01*
X105476498Y-148967385D01*
X105435000Y-148572557D01*
X105435000Y-134200900D01*
X106461028Y-134200900D01*
X106473288Y-134325382D01*
X106509598Y-134445080D01*
X106568563Y-134555394D01*
X106647915Y-134652085D01*
X106744606Y-134731437D01*
X106854920Y-134790402D01*
X106926503Y-134812117D01*
X106795826Y-134942794D01*
X106633212Y-135186162D01*
X106521202Y-135456579D01*
X106464100Y-135743652D01*
X106464100Y-136036348D01*
X106521202Y-136323421D01*
X106633212Y-136593838D01*
X106795826Y-136837206D01*
X107002794Y-137044174D01*
X107176139Y-137160000D01*
X107002794Y-137275826D01*
X106795826Y-137482794D01*
X106633212Y-137726162D01*
X106521202Y-137996579D01*
X106464100Y-138283652D01*
X106464100Y-138576348D01*
X106521202Y-138863421D01*
X106633212Y-139133838D01*
X106795826Y-139377206D01*
X107002794Y-139584174D01*
X107246162Y-139746788D01*
X107516579Y-139858798D01*
X107803652Y-139915900D01*
X108096348Y-139915900D01*
X108383421Y-139858798D01*
X108653838Y-139746788D01*
X108897206Y-139584174D01*
X109104174Y-139377206D01*
X109266788Y-139133838D01*
X109378798Y-138863421D01*
X109435900Y-138576348D01*
X109435900Y-138283652D01*
X109378798Y-137996579D01*
X109266788Y-137726162D01*
X109104174Y-137482794D01*
X108897206Y-137275826D01*
X108723861Y-137160000D01*
X108897206Y-137044174D01*
X109104174Y-136837206D01*
X109266788Y-136593838D01*
X109378798Y-136323421D01*
X109435900Y-136036348D01*
X109435900Y-135743652D01*
X109378798Y-135456579D01*
X109266788Y-135186162D01*
X109104174Y-134942794D01*
X108973497Y-134812117D01*
X109045080Y-134790402D01*
X109155394Y-134731437D01*
X109252085Y-134652085D01*
X109331437Y-134555394D01*
X109390402Y-134445080D01*
X109410435Y-134379040D01*
X109640565Y-134379040D01*
X109718310Y-134628207D01*
X109982503Y-134754196D01*
X110266199Y-134826223D01*
X110558496Y-134841519D01*
X110848161Y-134799497D01*
X111124062Y-134701771D01*
X111261690Y-134628207D01*
X111339435Y-134379040D01*
X110490000Y-133529605D01*
X109640565Y-134379040D01*
X109410435Y-134379040D01*
X109426712Y-134325382D01*
X109438972Y-134200900D01*
X109438927Y-134192560D01*
X109460960Y-134199435D01*
X110310395Y-133350000D01*
X110669605Y-133350000D01*
X111519040Y-134199435D01*
X111768207Y-134121690D01*
X111894196Y-133857497D01*
X111966223Y-133573801D01*
X111981519Y-133281504D01*
X111970225Y-133203652D01*
X129324100Y-133203652D01*
X129324100Y-133496348D01*
X129381202Y-133783421D01*
X129493212Y-134053838D01*
X129655826Y-134297206D01*
X129862794Y-134504174D01*
X130106162Y-134666788D01*
X130376579Y-134778798D01*
X130663652Y-134835900D01*
X130956348Y-134835900D01*
X131243421Y-134778798D01*
X131513838Y-134666788D01*
X131757206Y-134504174D01*
X131964174Y-134297206D01*
X132126788Y-134053838D01*
X132238798Y-133783421D01*
X132295900Y-133496348D01*
X132295900Y-133203652D01*
X132238798Y-132916579D01*
X132126788Y-132646162D01*
X131964174Y-132402794D01*
X131757206Y-132195826D01*
X131513838Y-132033212D01*
X131243421Y-131921202D01*
X130956348Y-131864100D01*
X130663652Y-131864100D01*
X130376579Y-131921202D01*
X130106162Y-132033212D01*
X129862794Y-132195826D01*
X129655826Y-132402794D01*
X129493212Y-132646162D01*
X129381202Y-132916579D01*
X129324100Y-133203652D01*
X111970225Y-133203652D01*
X111939497Y-132991839D01*
X111841771Y-132715938D01*
X111768207Y-132578310D01*
X111519040Y-132500565D01*
X110669605Y-133350000D01*
X110310395Y-133350000D01*
X109460960Y-132500565D01*
X109438927Y-132507440D01*
X109438972Y-132499100D01*
X109426712Y-132374618D01*
X109410436Y-132320960D01*
X109640565Y-132320960D01*
X110490000Y-133170395D01*
X111339435Y-132320960D01*
X111261690Y-132071793D01*
X110997497Y-131945804D01*
X110713801Y-131873777D01*
X110421504Y-131858481D01*
X110131839Y-131900503D01*
X109855938Y-131998229D01*
X109718310Y-132071793D01*
X109640565Y-132320960D01*
X109410436Y-132320960D01*
X109390402Y-132254920D01*
X109331437Y-132144606D01*
X109252085Y-132047915D01*
X109155394Y-131968563D01*
X109045080Y-131909598D01*
X108925382Y-131873288D01*
X108800900Y-131861028D01*
X108235750Y-131864100D01*
X108077000Y-132022850D01*
X108077000Y-133223000D01*
X108097000Y-133223000D01*
X108097000Y-133477000D01*
X108077000Y-133477000D01*
X108077000Y-133497000D01*
X107823000Y-133497000D01*
X107823000Y-133477000D01*
X106622850Y-133477000D01*
X106464100Y-133635750D01*
X106461028Y-134200900D01*
X105435000Y-134200900D01*
X105435000Y-132499100D01*
X106461028Y-132499100D01*
X106464100Y-133064250D01*
X106622850Y-133223000D01*
X107823000Y-133223000D01*
X107823000Y-132022850D01*
X107664250Y-131864100D01*
X107099100Y-131861028D01*
X106974618Y-131873288D01*
X106854920Y-131909598D01*
X106744606Y-131968563D01*
X106647915Y-132047915D01*
X106568563Y-132144606D01*
X106509598Y-132254920D01*
X106473288Y-132374618D01*
X106461028Y-132499100D01*
X105435000Y-132499100D01*
X105435000Y-129305098D01*
X129695000Y-129305098D01*
X129695000Y-129774902D01*
X129786654Y-130235679D01*
X129966440Y-130669721D01*
X130227450Y-131060349D01*
X130559651Y-131392550D01*
X130950279Y-131653560D01*
X131384321Y-131833346D01*
X131845098Y-131925000D01*
X132314902Y-131925000D01*
X132775679Y-131833346D01*
X133209721Y-131653560D01*
X133600349Y-131392550D01*
X133932550Y-131060349D01*
X134193560Y-130669721D01*
X134373346Y-130235679D01*
X134465000Y-129774902D01*
X134465000Y-129305098D01*
X134373346Y-128844321D01*
X134193560Y-128410279D01*
X133932550Y-128019651D01*
X133600349Y-127687450D01*
X133209721Y-127426440D01*
X132775679Y-127246654D01*
X132314902Y-127155000D01*
X131845098Y-127155000D01*
X131384321Y-127246654D01*
X130950279Y-127426440D01*
X130559651Y-127687450D01*
X130227450Y-128019651D01*
X129966440Y-128410279D01*
X129786654Y-128844321D01*
X129695000Y-129305098D01*
X105435000Y-129305098D01*
X105435000Y-124492279D01*
X105473909Y-124095455D01*
X105579780Y-123744792D01*
X105751744Y-123421375D01*
X105983254Y-123137516D01*
X106265486Y-122904035D01*
X106587695Y-122729817D01*
X106937614Y-122621498D01*
X107332443Y-122580000D01*
X113697419Y-122580000D01*
X113726301Y-122577155D01*
X113738117Y-122577238D01*
X113747288Y-122576338D01*
X114117043Y-122537475D01*
X114175636Y-122525447D01*
X114234399Y-122514238D01*
X114243221Y-122511575D01*
X114598385Y-122401633D01*
X114653536Y-122378449D01*
X114708992Y-122356044D01*
X114717128Y-122351717D01*
X115044173Y-122174886D01*
X115093774Y-122141430D01*
X115143821Y-122108680D01*
X115150962Y-122102855D01*
X115181131Y-122077897D01*
X115209774Y-122221898D01*
X115287795Y-122410256D01*
X115401063Y-122579774D01*
X115545226Y-122723937D01*
X115714744Y-122837205D01*
X115903102Y-122915226D01*
X116103061Y-122955000D01*
X116306939Y-122955000D01*
X116506898Y-122915226D01*
X116695256Y-122837205D01*
X116864774Y-122723937D01*
X117008937Y-122579774D01*
X117122205Y-122410256D01*
X117157500Y-122325047D01*
X117192795Y-122410256D01*
X117306063Y-122579774D01*
X117450226Y-122723937D01*
X117619744Y-122837205D01*
X117808102Y-122915226D01*
X118008061Y-122955000D01*
X118211939Y-122955000D01*
X118411898Y-122915226D01*
X118600256Y-122837205D01*
X118769774Y-122723937D01*
X118913937Y-122579774D01*
X119027205Y-122410256D01*
X119062500Y-122325047D01*
X119097795Y-122410256D01*
X119211063Y-122579774D01*
X119355226Y-122723937D01*
X119524744Y-122837205D01*
X119713102Y-122915226D01*
X119913061Y-122955000D01*
X120116939Y-122955000D01*
X120316898Y-122915226D01*
X120505256Y-122837205D01*
X120674774Y-122723937D01*
X120818937Y-122579774D01*
X120932205Y-122410256D01*
X120967500Y-122325047D01*
X121002795Y-122410256D01*
X121116063Y-122579774D01*
X121260226Y-122723937D01*
X121429744Y-122837205D01*
X121618102Y-122915226D01*
X121818061Y-122955000D01*
X122021939Y-122955000D01*
X122221898Y-122915226D01*
X122410256Y-122837205D01*
X122579774Y-122723937D01*
X122723937Y-122579774D01*
X122837205Y-122410256D01*
X122872500Y-122325047D01*
X122907795Y-122410256D01*
X123021063Y-122579774D01*
X123165226Y-122723937D01*
X123334744Y-122837205D01*
X123523102Y-122915226D01*
X123723061Y-122955000D01*
X123926939Y-122955000D01*
X124126898Y-122915226D01*
X124315256Y-122837205D01*
X124484774Y-122723937D01*
X124628937Y-122579774D01*
X124742205Y-122410256D01*
X124820226Y-122221898D01*
X124849082Y-122076830D01*
X124893649Y-122113178D01*
G36*
X134073002Y-91205804D02*
G01*
X134073002Y-95506592D01*
X133984561Y-95489000D01*
X133873000Y-95489000D01*
X133873000Y-95377439D01*
X133823619Y-95129179D01*
X133726753Y-94895324D01*
X133586125Y-94684860D01*
X133407140Y-94505875D01*
X133196676Y-94365247D01*
X132962821Y-94268381D01*
X132714561Y-94219000D01*
X132461439Y-94219000D01*
X132213179Y-94268381D01*
X131979324Y-94365247D01*
X131768860Y-94505875D01*
X131589875Y-94684860D01*
X131449247Y-94895324D01*
X131352381Y-95129179D01*
X131303000Y-95377439D01*
X131303000Y-95489000D01*
X131190998Y-95489000D01*
X131190998Y-95647748D01*
X131032250Y-95489000D01*
X130668000Y-95485928D01*
X130543518Y-95498188D01*
X130423820Y-95534498D01*
X130313506Y-95593463D01*
X130216815Y-95672815D01*
X130137463Y-95769506D01*
X130078498Y-95879820D01*
X130042188Y-95999518D01*
X130029928Y-96124000D01*
X130033000Y-96488250D01*
X130191750Y-96647000D01*
X131191000Y-96647000D01*
X131191000Y-96627000D01*
X131445000Y-96627000D01*
X131445000Y-96647000D01*
X131465000Y-96647000D01*
X131465000Y-96901000D01*
X131445000Y-96901000D01*
X131445000Y-97900250D01*
X131603750Y-98059000D01*
X131968000Y-98062072D01*
X132092482Y-98049812D01*
X132212180Y-98013502D01*
X132322494Y-97954537D01*
X132419185Y-97875185D01*
X132498537Y-97778494D01*
X132557502Y-97668180D01*
X132593812Y-97548482D01*
X132606072Y-97424000D01*
X132603000Y-97059750D01*
X132444252Y-96901002D01*
X132573088Y-96901002D01*
X132622381Y-97148821D01*
X132719247Y-97382676D01*
X132859875Y-97593140D01*
X133038860Y-97772125D01*
X133249324Y-97912753D01*
X133483179Y-98009619D01*
X133731439Y-98059000D01*
X133984561Y-98059000D01*
X134073002Y-98041408D01*
X134073001Y-106152197D01*
X128593887Y-111631312D01*
X128411335Y-111595000D01*
X128128665Y-111595000D01*
X127851426Y-111650147D01*
X127590273Y-111758320D01*
X127355241Y-111915363D01*
X127155363Y-112115241D01*
X126998320Y-112350273D01*
X126890147Y-112611426D01*
X126835000Y-112888665D01*
X126835000Y-113171335D01*
X126890147Y-113448574D01*
X126998320Y-113709727D01*
X127155363Y-113944759D01*
X127355241Y-114144637D01*
X127435001Y-114197930D01*
X127435000Y-114340852D01*
X127322794Y-114415826D01*
X127115826Y-114622794D01*
X127000216Y-114795817D01*
X126759040Y-114720565D01*
X125909605Y-115570000D01*
X126759040Y-116419435D01*
X127000216Y-116344183D01*
X127115826Y-116517206D01*
X127322794Y-116724174D01*
X127566162Y-116886788D01*
X127836579Y-116998798D01*
X128123652Y-117055900D01*
X128416348Y-117055900D01*
X128703421Y-116998798D01*
X128973838Y-116886788D01*
X129217206Y-116724174D01*
X129424174Y-116517206D01*
X129540000Y-116343861D01*
X129655826Y-116517206D01*
X129862794Y-116724174D01*
X130106162Y-116886788D01*
X130376579Y-116998798D01*
X130663652Y-117055900D01*
X130956348Y-117055900D01*
X131243421Y-116998798D01*
X131513838Y-116886788D01*
X131757206Y-116724174D01*
X131964174Y-116517206D01*
X132080000Y-116343861D01*
X132195826Y-116517206D01*
X132402794Y-116724174D01*
X132646162Y-116886788D01*
X132916579Y-116998798D01*
X133203652Y-117055900D01*
X133496348Y-117055900D01*
X133783421Y-116998798D01*
X134050144Y-116888318D01*
X134046748Y-116892482D01*
X133764514Y-117125965D01*
X133442304Y-117300184D01*
X133092385Y-117408502D01*
X132697557Y-117450000D01*
X126332581Y-117450000D01*
X126303699Y-117452845D01*
X126291883Y-117452762D01*
X126282712Y-117453662D01*
X125912958Y-117492525D01*
X125854371Y-117504551D01*
X125795601Y-117515762D01*
X125786779Y-117518426D01*
X125431615Y-117628367D01*
X125376464Y-117651551D01*
X125321008Y-117673956D01*
X125312872Y-117678283D01*
X124985827Y-117855115D01*
X124936285Y-117888531D01*
X124886178Y-117921320D01*
X124879037Y-117927145D01*
X124848869Y-117952102D01*
X124820226Y-117808102D01*
X124742205Y-117619744D01*
X124628937Y-117450226D01*
X124484774Y-117306063D01*
X124315256Y-117192795D01*
X124126898Y-117114774D01*
X123926939Y-117075000D01*
X123723061Y-117075000D01*
X123523102Y-117114774D01*
X123334744Y-117192795D01*
X123165226Y-117306063D01*
X123021063Y-117450226D01*
X122907795Y-117619744D01*
X122872500Y-117704953D01*
X122837205Y-117619744D01*
X122723937Y-117450226D01*
X122579774Y-117306063D01*
X122410256Y-117192795D01*
X122221898Y-117114774D01*
X122021939Y-117075000D01*
X121818061Y-117075000D01*
X121618102Y-117114774D01*
X121429744Y-117192795D01*
X121260226Y-117306063D01*
X121116063Y-117450226D01*
X121002795Y-117619744D01*
X120967500Y-117704953D01*
X120932205Y-117619744D01*
X120818937Y-117450226D01*
X120674774Y-117306063D01*
X120505256Y-117192795D01*
X120316898Y-117114774D01*
X120116939Y-117075000D01*
X119913061Y-117075000D01*
X119713102Y-117114774D01*
X119524744Y-117192795D01*
X119355226Y-117306063D01*
X119211063Y-117450226D01*
X119097795Y-117619744D01*
X119062500Y-117704953D01*
X119027205Y-117619744D01*
X118913937Y-117450226D01*
X118769774Y-117306063D01*
X118600256Y-117192795D01*
X118411898Y-117114774D01*
X118211939Y-117075000D01*
X118008061Y-117075000D01*
X117808102Y-117114774D01*
X117619744Y-117192795D01*
X117450226Y-117306063D01*
X117388881Y-117367408D01*
X117322224Y-116796652D01*
X117338310Y-116848207D01*
X117602503Y-116974196D01*
X117886199Y-117046223D01*
X118178496Y-117061519D01*
X118468161Y-117019497D01*
X118744062Y-116921771D01*
X118881690Y-116848207D01*
X118959435Y-116599040D01*
X118110000Y-115749605D01*
X118095858Y-115763748D01*
X117916253Y-115584143D01*
X117930395Y-115570000D01*
X117916253Y-115555858D01*
X118095858Y-115376253D01*
X118110000Y-115390395D01*
X118959435Y-114540960D01*
X118881690Y-114291793D01*
X118617497Y-114165804D01*
X118333801Y-114093777D01*
X118041504Y-114078481D01*
X117751839Y-114120503D01*
X117475938Y-114218229D01*
X117338310Y-114291793D01*
X117260566Y-114540958D01*
X117144465Y-114424857D01*
X117055604Y-114513718D01*
X116962713Y-113718340D01*
X116951967Y-113654647D01*
X116913258Y-113536337D01*
X116852212Y-113427851D01*
X116178575Y-112465512D01*
X117859783Y-112465512D01*
X117901213Y-112745130D01*
X117996397Y-113011292D01*
X118063329Y-113136514D01*
X118307298Y-113208097D01*
X119120395Y-112395000D01*
X118307298Y-111581903D01*
X118063329Y-111653486D01*
X117942429Y-111908996D01*
X117873700Y-112183184D01*
X117859783Y-112465512D01*
X116178575Y-112465512D01*
X115078356Y-110893771D01*
X113157000Y-108011737D01*
X113157000Y-106210000D01*
X113171335Y-106210000D01*
X113448574Y-106154853D01*
X113709727Y-106046680D01*
X113944759Y-105889637D01*
X114144637Y-105689759D01*
X114301680Y-105454727D01*
X114409853Y-105193574D01*
X114465000Y-104916335D01*
X114465000Y-104633665D01*
X114409853Y-104356426D01*
X114301680Y-104095273D01*
X114144637Y-103860241D01*
X113944759Y-103660363D01*
X113709727Y-103503320D01*
X113448574Y-103395147D01*
X113171335Y-103340000D01*
X113157000Y-103340000D01*
X113157000Y-103035000D01*
X113171335Y-103035000D01*
X113448574Y-102979853D01*
X113709727Y-102871680D01*
X113944759Y-102714637D01*
X114144637Y-102514759D01*
X114301680Y-102279727D01*
X114409853Y-102018574D01*
X114465000Y-101741335D01*
X114465000Y-101458665D01*
X114409853Y-101181426D01*
X114301680Y-100920273D01*
X114144637Y-100685241D01*
X113944759Y-100485363D01*
X113709727Y-100328320D01*
X113448574Y-100220147D01*
X113357000Y-100201932D01*
X113357000Y-99788265D01*
X113520125Y-99625140D01*
X113660753Y-99414676D01*
X113757619Y-99180821D01*
X113807000Y-98932561D01*
X113807000Y-98821000D01*
X113919002Y-98821000D01*
X113919002Y-98662252D01*
X114077750Y-98821000D01*
X114442000Y-98824072D01*
X114566482Y-98811812D01*
X114686180Y-98775502D01*
X114796494Y-98716537D01*
X114893185Y-98637185D01*
X114972537Y-98540494D01*
X115031502Y-98430180D01*
X115067812Y-98310482D01*
X115080072Y-98186000D01*
X115077000Y-97821750D01*
X114918250Y-97663000D01*
X113919000Y-97663000D01*
X113919000Y-97683000D01*
X113665000Y-97683000D01*
X113665000Y-97663000D01*
X113645000Y-97663000D01*
X113645000Y-97409000D01*
X113665000Y-97409000D01*
X113665000Y-97389000D01*
X113919000Y-97389000D01*
X113919000Y-97409000D01*
X114918250Y-97409000D01*
X115077000Y-97250250D01*
X115080072Y-96886000D01*
X115067812Y-96761518D01*
X115031502Y-96641820D01*
X114972537Y-96531506D01*
X114893185Y-96434815D01*
X114796494Y-96355463D01*
X114686180Y-96296498D01*
X114566482Y-96260188D01*
X114442000Y-96247928D01*
X114239227Y-96249638D01*
X115625313Y-94863552D01*
X115693882Y-94856799D01*
X115813004Y-94820664D01*
X115921998Y-94762405D01*
X115955247Y-94842676D01*
X116095875Y-95053140D01*
X116274860Y-95232125D01*
X116485324Y-95372753D01*
X116719179Y-95469619D01*
X116967439Y-95519000D01*
X117079000Y-95519000D01*
X117079000Y-95630561D01*
X117128381Y-95878821D01*
X117225247Y-96112676D01*
X117365875Y-96323140D01*
X117544860Y-96502125D01*
X117755324Y-96642753D01*
X117989179Y-96739619D01*
X118237439Y-96789000D01*
X118490561Y-96789000D01*
X118738821Y-96739619D01*
X118972676Y-96642753D01*
X119183140Y-96502125D01*
X119362125Y-96323140D01*
X119502753Y-96112676D01*
X119566211Y-95959473D01*
X121088610Y-95959473D01*
X121128875Y-96219344D01*
X121219065Y-96466366D01*
X121272963Y-96567203D01*
X121506731Y-96626664D01*
X122248395Y-95885000D01*
X121506731Y-95143336D01*
X121272963Y-95202797D01*
X121162066Y-95441242D01*
X121099817Y-95696740D01*
X121088610Y-95959473D01*
X119566211Y-95959473D01*
X119599619Y-95878821D01*
X119649000Y-95630561D01*
X119649000Y-95519000D01*
X119761002Y-95519000D01*
X119761002Y-95360252D01*
X119919750Y-95519000D01*
X120284000Y-95522072D01*
X120408482Y-95509812D01*
X120528180Y-95473502D01*
X120638494Y-95414537D01*
X120735185Y-95335185D01*
X120814537Y-95238494D01*
X120873502Y-95128180D01*
X120909812Y-95008482D01*
X120922072Y-94884000D01*
X120919000Y-94519750D01*
X120760250Y-94361000D01*
X119761000Y-94361000D01*
X119761000Y-94381000D01*
X119507000Y-94381000D01*
X119507000Y-94361000D01*
X119487000Y-94361000D01*
X119487000Y-94107000D01*
X119507000Y-94107000D01*
X119507000Y-93107750D01*
X119761000Y-93107750D01*
X119761000Y-94107000D01*
X120760250Y-94107000D01*
X120919000Y-93948250D01*
X120922072Y-93584000D01*
X120909812Y-93459518D01*
X120873502Y-93339820D01*
X120814537Y-93229506D01*
X120735185Y-93132815D01*
X120638494Y-93053463D01*
X120528180Y-92994498D01*
X120408482Y-92958188D01*
X120284000Y-92945928D01*
X119919750Y-92949000D01*
X119761000Y-93107750D01*
X119507000Y-93107750D01*
X119348250Y-92949000D01*
X118984000Y-92945928D01*
X118859518Y-92958188D01*
X118739820Y-92994498D01*
X118629506Y-93053463D01*
X118532815Y-93132815D01*
X118453463Y-93229506D01*
X118394498Y-93339820D01*
X118358188Y-93459518D01*
X118345928Y-93584000D01*
X118349000Y-93948250D01*
X118507748Y-94106998D01*
X118378912Y-94106998D01*
X118329619Y-93859179D01*
X118232753Y-93625324D01*
X118092125Y-93414860D01*
X117913140Y-93235875D01*
X117702676Y-93095247D01*
X117484140Y-93004726D01*
X117598865Y-92890001D01*
X118088981Y-92890001D01*
X118129999Y-92894041D01*
X118171017Y-92890001D01*
X118171018Y-92890001D01*
X118293688Y-92877919D01*
X118451086Y-92830173D01*
X118596145Y-92752637D01*
X118723290Y-92648292D01*
X118749445Y-92616422D01*
X119102060Y-92263807D01*
X119233740Y-92290000D01*
X119526260Y-92290000D01*
X119813158Y-92232932D01*
X120083411Y-92120990D01*
X120326632Y-91958475D01*
X120533475Y-91751632D01*
X120650000Y-91577240D01*
X120766525Y-91751632D01*
X120973368Y-91958475D01*
X121216589Y-92120990D01*
X121486842Y-92232932D01*
X121642926Y-92263979D01*
X121576987Y-92308038D01*
X121391038Y-92493987D01*
X121244939Y-92712641D01*
X121144304Y-92955595D01*
X121093000Y-93213514D01*
X121093000Y-93476486D01*
X121144304Y-93734405D01*
X121244939Y-93977359D01*
X121391038Y-94196013D01*
X121576987Y-94381962D01*
X121795641Y-94528061D01*
X122009444Y-94616621D01*
X121846634Y-94676065D01*
X121745797Y-94729963D01*
X121686336Y-94963731D01*
X122428000Y-95705395D01*
X123169664Y-94963731D01*
X123110203Y-94729963D01*
X122871758Y-94619066D01*
X122852173Y-94614294D01*
X123060359Y-94528061D01*
X123279013Y-94381962D01*
X123464962Y-94196013D01*
X123611061Y-93977359D01*
X123625001Y-93943706D01*
X123625001Y-95135132D01*
X123562548Y-95197585D01*
X123349269Y-95143336D01*
X122607605Y-95885000D01*
X122621748Y-95899143D01*
X122442143Y-96078748D01*
X122428000Y-96064605D01*
X121686336Y-96806269D01*
X121740586Y-97019549D01*
X121428578Y-97331557D01*
X121396708Y-97357712D01*
X121320545Y-97450518D01*
X121292363Y-97484858D01*
X121214827Y-97629917D01*
X121167081Y-97787315D01*
X121150959Y-97951003D01*
X121154999Y-97992022D01*
X121155000Y-102708131D01*
X120088578Y-103774554D01*
X120056709Y-103800709D01*
X119994166Y-103876919D01*
X119952364Y-103927855D01*
X119874828Y-104072914D01*
X119827082Y-104230312D01*
X119810960Y-104394000D01*
X119815000Y-104435019D01*
X119815001Y-107417069D01*
X119735241Y-107470363D01*
X119535363Y-107670241D01*
X119378320Y-107905273D01*
X119270147Y-108166426D01*
X119215000Y-108443665D01*
X119215000Y-108726335D01*
X119270147Y-109003574D01*
X119378320Y-109264727D01*
X119535363Y-109499759D01*
X119735241Y-109699637D01*
X119815001Y-109752931D01*
X119815001Y-111051149D01*
X119786004Y-111037429D01*
X119511816Y-110968700D01*
X119229488Y-110954783D01*
X118949870Y-110996213D01*
X118683708Y-111091397D01*
X118558486Y-111158329D01*
X118486903Y-111402298D01*
X119300000Y-112215395D01*
X119314143Y-112201253D01*
X119493748Y-112380858D01*
X119479605Y-112395000D01*
X119493748Y-112409143D01*
X119314143Y-112588748D01*
X119300000Y-112574605D01*
X118486903Y-113387702D01*
X118558486Y-113631671D01*
X118813996Y-113752571D01*
X119088184Y-113821300D01*
X119370512Y-113835217D01*
X119650130Y-113793787D01*
X119815000Y-113734827D01*
X119815000Y-114340852D01*
X119702794Y-114415826D01*
X119495826Y-114622794D01*
X119380216Y-114795817D01*
X119139040Y-114720565D01*
X118289605Y-115570000D01*
X119139040Y-116419435D01*
X119380216Y-116344183D01*
X119495826Y-116517206D01*
X119702794Y-116724174D01*
X119946162Y-116886788D01*
X120216579Y-116998798D01*
X120503652Y-117055900D01*
X120796348Y-117055900D01*
X121083421Y-116998798D01*
X121353838Y-116886788D01*
X121597206Y-116724174D01*
X121804174Y-116517206D01*
X121920000Y-116343861D01*
X122035826Y-116517206D01*
X122242794Y-116724174D01*
X122486162Y-116886788D01*
X122756579Y-116998798D01*
X123043652Y-117055900D01*
X123336348Y-117055900D01*
X123623421Y-116998798D01*
X123893838Y-116886788D01*
X124137206Y-116724174D01*
X124262340Y-116599040D01*
X124880565Y-116599040D01*
X124958310Y-116848207D01*
X125222503Y-116974196D01*
X125506199Y-117046223D01*
X125798496Y-117061519D01*
X126088161Y-117019497D01*
X126364062Y-116921771D01*
X126501690Y-116848207D01*
X126579435Y-116599040D01*
X125730000Y-115749605D01*
X124880565Y-116599040D01*
X124262340Y-116599040D01*
X124344174Y-116517206D01*
X124459784Y-116344183D01*
X124700960Y-116419435D01*
X125550395Y-115570000D01*
X124700960Y-114720565D01*
X124459784Y-114795817D01*
X124344174Y-114622794D01*
X124262340Y-114540960D01*
X124880565Y-114540960D01*
X125730000Y-115390395D01*
X126579435Y-114540960D01*
X126501690Y-114291793D01*
X126237497Y-114165804D01*
X125953801Y-114093777D01*
X125661504Y-114078481D01*
X125371839Y-114120503D01*
X125095938Y-114218229D01*
X124958310Y-114291793D01*
X124880565Y-114540960D01*
X124262340Y-114540960D01*
X124137206Y-114415826D01*
X124025000Y-114340852D01*
X124025000Y-105942930D01*
X124104759Y-105889637D01*
X124304637Y-105689759D01*
X124461680Y-105454727D01*
X124569853Y-105193574D01*
X124625000Y-104916335D01*
X124625000Y-104633665D01*
X124606285Y-104539582D01*
X125283165Y-103862702D01*
X127456903Y-103862702D01*
X127528486Y-104106671D01*
X127783996Y-104227571D01*
X128058184Y-104296300D01*
X128340512Y-104310217D01*
X128620130Y-104268787D01*
X128886292Y-104173603D01*
X129011514Y-104106671D01*
X129083097Y-103862702D01*
X128270000Y-103049605D01*
X127456903Y-103862702D01*
X125283165Y-103862702D01*
X126205356Y-102940512D01*
X126829783Y-102940512D01*
X126871213Y-103220130D01*
X126966397Y-103486292D01*
X127033329Y-103611514D01*
X127277298Y-103683097D01*
X128090395Y-102870000D01*
X128449605Y-102870000D01*
X129262702Y-103683097D01*
X129506671Y-103611514D01*
X129627571Y-103356004D01*
X129696300Y-103081816D01*
X129710217Y-102799488D01*
X129668787Y-102519870D01*
X129573603Y-102253708D01*
X129506671Y-102128486D01*
X129262702Y-102056903D01*
X128449605Y-102870000D01*
X128090395Y-102870000D01*
X127277298Y-102056903D01*
X127033329Y-102128486D01*
X126912429Y-102383996D01*
X126843700Y-102658184D01*
X126829783Y-102940512D01*
X126205356Y-102940512D01*
X126545433Y-102600436D01*
X126577291Y-102574291D01*
X126681636Y-102447146D01*
X126759172Y-102302087D01*
X126806918Y-102144689D01*
X126819000Y-102022019D01*
X126819000Y-102022018D01*
X126823040Y-101981000D01*
X126819000Y-101939982D01*
X126819000Y-101877298D01*
X127456903Y-101877298D01*
X128270000Y-102690395D01*
X129083097Y-101877298D01*
X129011514Y-101633329D01*
X128756004Y-101512429D01*
X128481816Y-101443700D01*
X128199488Y-101429783D01*
X127919870Y-101471213D01*
X127653708Y-101566397D01*
X127528486Y-101633329D01*
X127456903Y-101877298D01*
X126819000Y-101877298D01*
X126819000Y-97424000D01*
X130029928Y-97424000D01*
X130042188Y-97548482D01*
X130078498Y-97668180D01*
X130137463Y-97778494D01*
X130216815Y-97875185D01*
X130313506Y-97954537D01*
X130423820Y-98013502D01*
X130543518Y-98049812D01*
X130668000Y-98062072D01*
X131032250Y-98059000D01*
X131191000Y-97900250D01*
X131191000Y-96901000D01*
X130191750Y-96901000D01*
X130033000Y-97059750D01*
X130029928Y-97424000D01*
X126819000Y-97424000D01*
X126819000Y-92283090D01*
X126853740Y-92290000D01*
X127146260Y-92290000D01*
X127433158Y-92232932D01*
X127703411Y-92120990D01*
X127946632Y-91958475D01*
X128153475Y-91751632D01*
X128270000Y-91577240D01*
X128386525Y-91751632D01*
X128593368Y-91958475D01*
X128836589Y-92120990D01*
X129106842Y-92232932D01*
X129393740Y-92290000D01*
X129686260Y-92290000D01*
X129973158Y-92232932D01*
X130243411Y-92120990D01*
X130486632Y-91958475D01*
X130618487Y-91826620D01*
X130640498Y-91899180D01*
X130699463Y-92009494D01*
X130778815Y-92106185D01*
X130875506Y-92185537D01*
X130985820Y-92244502D01*
X131105518Y-92280812D01*
X131230000Y-92293072D01*
X131794250Y-92290000D01*
X131953000Y-92131250D01*
X131953000Y-90932000D01*
X132207000Y-90932000D01*
X132207000Y-92131250D01*
X132365750Y-92290000D01*
X132930000Y-92293072D01*
X133054482Y-92280812D01*
X133174180Y-92244502D01*
X133284494Y-92185537D01*
X133381185Y-92106185D01*
X133460537Y-92009494D01*
X133519502Y-91899180D01*
X133555812Y-91779482D01*
X133568072Y-91655000D01*
X133565000Y-91090750D01*
X133406250Y-90932000D01*
X132207000Y-90932000D01*
X131953000Y-90932000D01*
X131933000Y-90932000D01*
X131933000Y-90678000D01*
X131953000Y-90678000D01*
X131953000Y-90658000D01*
X132207000Y-90658000D01*
X132207000Y-90678000D01*
X133406250Y-90678000D01*
X133475724Y-90608526D01*
X134073002Y-91205804D01*
G37*
X134073002Y-91205804D02*
X134073002Y-95506592D01*
X133984561Y-95489000D01*
X133873000Y-95489000D01*
X133873000Y-95377439D01*
X133823619Y-95129179D01*
X133726753Y-94895324D01*
X133586125Y-94684860D01*
X133407140Y-94505875D01*
X133196676Y-94365247D01*
X132962821Y-94268381D01*
X132714561Y-94219000D01*
X132461439Y-94219000D01*
X132213179Y-94268381D01*
X131979324Y-94365247D01*
X131768860Y-94505875D01*
X131589875Y-94684860D01*
X131449247Y-94895324D01*
X131352381Y-95129179D01*
X131303000Y-95377439D01*
X131303000Y-95489000D01*
X131190998Y-95489000D01*
X131190998Y-95647748D01*
X131032250Y-95489000D01*
X130668000Y-95485928D01*
X130543518Y-95498188D01*
X130423820Y-95534498D01*
X130313506Y-95593463D01*
X130216815Y-95672815D01*
X130137463Y-95769506D01*
X130078498Y-95879820D01*
X130042188Y-95999518D01*
X130029928Y-96124000D01*
X130033000Y-96488250D01*
X130191750Y-96647000D01*
X131191000Y-96647000D01*
X131191000Y-96627000D01*
X131445000Y-96627000D01*
X131445000Y-96647000D01*
X131465000Y-96647000D01*
X131465000Y-96901000D01*
X131445000Y-96901000D01*
X131445000Y-97900250D01*
X131603750Y-98059000D01*
X131968000Y-98062072D01*
X132092482Y-98049812D01*
X132212180Y-98013502D01*
X132322494Y-97954537D01*
X132419185Y-97875185D01*
X132498537Y-97778494D01*
X132557502Y-97668180D01*
X132593812Y-97548482D01*
X132606072Y-97424000D01*
X132603000Y-97059750D01*
X132444252Y-96901002D01*
X132573088Y-96901002D01*
X132622381Y-97148821D01*
X132719247Y-97382676D01*
X132859875Y-97593140D01*
X133038860Y-97772125D01*
X133249324Y-97912753D01*
X133483179Y-98009619D01*
X133731439Y-98059000D01*
X133984561Y-98059000D01*
X134073002Y-98041408D01*
X134073001Y-106152197D01*
X128593887Y-111631312D01*
X128411335Y-111595000D01*
X128128665Y-111595000D01*
X127851426Y-111650147D01*
X127590273Y-111758320D01*
X127355241Y-111915363D01*
X127155363Y-112115241D01*
X126998320Y-112350273D01*
X126890147Y-112611426D01*
X126835000Y-112888665D01*
X126835000Y-113171335D01*
X126890147Y-113448574D01*
X126998320Y-113709727D01*
X127155363Y-113944759D01*
X127355241Y-114144637D01*
X127435001Y-114197930D01*
X127435000Y-114340852D01*
X127322794Y-114415826D01*
X127115826Y-114622794D01*
X127000216Y-114795817D01*
X126759040Y-114720565D01*
X125909605Y-115570000D01*
X126759040Y-116419435D01*
X127000216Y-116344183D01*
X127115826Y-116517206D01*
X127322794Y-116724174D01*
X127566162Y-116886788D01*
X127836579Y-116998798D01*
X128123652Y-117055900D01*
X128416348Y-117055900D01*
X128703421Y-116998798D01*
X128973838Y-116886788D01*
X129217206Y-116724174D01*
X129424174Y-116517206D01*
X129540000Y-116343861D01*
X129655826Y-116517206D01*
X129862794Y-116724174D01*
X130106162Y-116886788D01*
X130376579Y-116998798D01*
X130663652Y-117055900D01*
X130956348Y-117055900D01*
X131243421Y-116998798D01*
X131513838Y-116886788D01*
X131757206Y-116724174D01*
X131964174Y-116517206D01*
X132080000Y-116343861D01*
X132195826Y-116517206D01*
X132402794Y-116724174D01*
X132646162Y-116886788D01*
X132916579Y-116998798D01*
X133203652Y-117055900D01*
X133496348Y-117055900D01*
X133783421Y-116998798D01*
X134050144Y-116888318D01*
X134046748Y-116892482D01*
X133764514Y-117125965D01*
X133442304Y-117300184D01*
X133092385Y-117408502D01*
X132697557Y-117450000D01*
X126332581Y-117450000D01*
X126303699Y-117452845D01*
X126291883Y-117452762D01*
X126282712Y-117453662D01*
X125912958Y-117492525D01*
X125854371Y-117504551D01*
X125795601Y-117515762D01*
X125786779Y-117518426D01*
X125431615Y-117628367D01*
X125376464Y-117651551D01*
X125321008Y-117673956D01*
X125312872Y-117678283D01*
X124985827Y-117855115D01*
X124936285Y-117888531D01*
X124886178Y-117921320D01*
X124879037Y-117927145D01*
X124848869Y-117952102D01*
X124820226Y-117808102D01*
X124742205Y-117619744D01*
X124628937Y-117450226D01*
X124484774Y-117306063D01*
X124315256Y-117192795D01*
X124126898Y-117114774D01*
X123926939Y-117075000D01*
X123723061Y-117075000D01*
X123523102Y-117114774D01*
X123334744Y-117192795D01*
X123165226Y-117306063D01*
X123021063Y-117450226D01*
X122907795Y-117619744D01*
X122872500Y-117704953D01*
X122837205Y-117619744D01*
X122723937Y-117450226D01*
X122579774Y-117306063D01*
X122410256Y-117192795D01*
X122221898Y-117114774D01*
X122021939Y-117075000D01*
X121818061Y-117075000D01*
X121618102Y-117114774D01*
X121429744Y-117192795D01*
X121260226Y-117306063D01*
X121116063Y-117450226D01*
X121002795Y-117619744D01*
X120967500Y-117704953D01*
X120932205Y-117619744D01*
X120818937Y-117450226D01*
X120674774Y-117306063D01*
X120505256Y-117192795D01*
X120316898Y-117114774D01*
X120116939Y-117075000D01*
X119913061Y-117075000D01*
X119713102Y-117114774D01*
X119524744Y-117192795D01*
X119355226Y-117306063D01*
X119211063Y-117450226D01*
X119097795Y-117619744D01*
X119062500Y-117704953D01*
X119027205Y-117619744D01*
X118913937Y-117450226D01*
X118769774Y-117306063D01*
X118600256Y-117192795D01*
X118411898Y-117114774D01*
X118211939Y-117075000D01*
X118008061Y-117075000D01*
X117808102Y-117114774D01*
X117619744Y-117192795D01*
X117450226Y-117306063D01*
X117388881Y-117367408D01*
X117322224Y-116796652D01*
X117338310Y-116848207D01*
X117602503Y-116974196D01*
X117886199Y-117046223D01*
X118178496Y-117061519D01*
X118468161Y-117019497D01*
X118744062Y-116921771D01*
X118881690Y-116848207D01*
X118959435Y-116599040D01*
X118110000Y-115749605D01*
X118095858Y-115763748D01*
X117916253Y-115584143D01*
X117930395Y-115570000D01*
X117916253Y-115555858D01*
X118095858Y-115376253D01*
X118110000Y-115390395D01*
X118959435Y-114540960D01*
X118881690Y-114291793D01*
X118617497Y-114165804D01*
X118333801Y-114093777D01*
X118041504Y-114078481D01*
X117751839Y-114120503D01*
X117475938Y-114218229D01*
X117338310Y-114291793D01*
X117260566Y-114540958D01*
X117144465Y-114424857D01*
X117055604Y-114513718D01*
X116962713Y-113718340D01*
X116951967Y-113654647D01*
X116913258Y-113536337D01*
X116852212Y-113427851D01*
X116178575Y-112465512D01*
X117859783Y-112465512D01*
X117901213Y-112745130D01*
X117996397Y-113011292D01*
X118063329Y-113136514D01*
X118307298Y-113208097D01*
X119120395Y-112395000D01*
X118307298Y-111581903D01*
X118063329Y-111653486D01*
X117942429Y-111908996D01*
X117873700Y-112183184D01*
X117859783Y-112465512D01*
X116178575Y-112465512D01*
X115078356Y-110893771D01*
X113157000Y-108011737D01*
X113157000Y-106210000D01*
X113171335Y-106210000D01*
X113448574Y-106154853D01*
X113709727Y-106046680D01*
X113944759Y-105889637D01*
X114144637Y-105689759D01*
X114301680Y-105454727D01*
X114409853Y-105193574D01*
X114465000Y-104916335D01*
X114465000Y-104633665D01*
X114409853Y-104356426D01*
X114301680Y-104095273D01*
X114144637Y-103860241D01*
X113944759Y-103660363D01*
X113709727Y-103503320D01*
X113448574Y-103395147D01*
X113171335Y-103340000D01*
X113157000Y-103340000D01*
X113157000Y-103035000D01*
X113171335Y-103035000D01*
X113448574Y-102979853D01*
X113709727Y-102871680D01*
X113944759Y-102714637D01*
X114144637Y-102514759D01*
X114301680Y-102279727D01*
X114409853Y-102018574D01*
X114465000Y-101741335D01*
X114465000Y-101458665D01*
X114409853Y-101181426D01*
X114301680Y-100920273D01*
X114144637Y-100685241D01*
X113944759Y-100485363D01*
X113709727Y-100328320D01*
X113448574Y-100220147D01*
X113357000Y-100201932D01*
X113357000Y-99788265D01*
X113520125Y-99625140D01*
X113660753Y-99414676D01*
X113757619Y-99180821D01*
X113807000Y-98932561D01*
X113807000Y-98821000D01*
X113919002Y-98821000D01*
X113919002Y-98662252D01*
X114077750Y-98821000D01*
X114442000Y-98824072D01*
X114566482Y-98811812D01*
X114686180Y-98775502D01*
X114796494Y-98716537D01*
X114893185Y-98637185D01*
X114972537Y-98540494D01*
X115031502Y-98430180D01*
X115067812Y-98310482D01*
X115080072Y-98186000D01*
X115077000Y-97821750D01*
X114918250Y-97663000D01*
X113919000Y-97663000D01*
X113919000Y-97683000D01*
X113665000Y-97683000D01*
X113665000Y-97663000D01*
X113645000Y-97663000D01*
X113645000Y-97409000D01*
X113665000Y-97409000D01*
X113665000Y-97389000D01*
X113919000Y-97389000D01*
X113919000Y-97409000D01*
X114918250Y-97409000D01*
X115077000Y-97250250D01*
X115080072Y-96886000D01*
X115067812Y-96761518D01*
X115031502Y-96641820D01*
X114972537Y-96531506D01*
X114893185Y-96434815D01*
X114796494Y-96355463D01*
X114686180Y-96296498D01*
X114566482Y-96260188D01*
X114442000Y-96247928D01*
X114239227Y-96249638D01*
X115625313Y-94863552D01*
X115693882Y-94856799D01*
X115813004Y-94820664D01*
X115921998Y-94762405D01*
X115955247Y-94842676D01*
X116095875Y-95053140D01*
X116274860Y-95232125D01*
X116485324Y-95372753D01*
X116719179Y-95469619D01*
X116967439Y-95519000D01*
X117079000Y-95519000D01*
X117079000Y-95630561D01*
X117128381Y-95878821D01*
X117225247Y-96112676D01*
X117365875Y-96323140D01*
X117544860Y-96502125D01*
X117755324Y-96642753D01*
X117989179Y-96739619D01*
X118237439Y-96789000D01*
X118490561Y-96789000D01*
X118738821Y-96739619D01*
X118972676Y-96642753D01*
X119183140Y-96502125D01*
X119362125Y-96323140D01*
X119502753Y-96112676D01*
X119566211Y-95959473D01*
X121088610Y-95959473D01*
X121128875Y-96219344D01*
X121219065Y-96466366D01*
X121272963Y-96567203D01*
X121506731Y-96626664D01*
X122248395Y-95885000D01*
X121506731Y-95143336D01*
X121272963Y-95202797D01*
X121162066Y-95441242D01*
X121099817Y-95696740D01*
X121088610Y-95959473D01*
X119566211Y-95959473D01*
X119599619Y-95878821D01*
X119649000Y-95630561D01*
X119649000Y-95519000D01*
X119761002Y-95519000D01*
X119761002Y-95360252D01*
X119919750Y-95519000D01*
X120284000Y-95522072D01*
X120408482Y-95509812D01*
X120528180Y-95473502D01*
X120638494Y-95414537D01*
X120735185Y-95335185D01*
X120814537Y-95238494D01*
X120873502Y-95128180D01*
X120909812Y-95008482D01*
X120922072Y-94884000D01*
X120919000Y-94519750D01*
X120760250Y-94361000D01*
X119761000Y-94361000D01*
X119761000Y-94381000D01*
X119507000Y-94381000D01*
X119507000Y-94361000D01*
X119487000Y-94361000D01*
X119487000Y-94107000D01*
X119507000Y-94107000D01*
X119507000Y-93107750D01*
X119761000Y-93107750D01*
X119761000Y-94107000D01*
X120760250Y-94107000D01*
X120919000Y-93948250D01*
X120922072Y-93584000D01*
X120909812Y-93459518D01*
X120873502Y-93339820D01*
X120814537Y-93229506D01*
X120735185Y-93132815D01*
X120638494Y-93053463D01*
X120528180Y-92994498D01*
X120408482Y-92958188D01*
X120284000Y-92945928D01*
X119919750Y-92949000D01*
X119761000Y-93107750D01*
X119507000Y-93107750D01*
X119348250Y-92949000D01*
X118984000Y-92945928D01*
X118859518Y-92958188D01*
X118739820Y-92994498D01*
X118629506Y-93053463D01*
X118532815Y-93132815D01*
X118453463Y-93229506D01*
X118394498Y-93339820D01*
X118358188Y-93459518D01*
X118345928Y-93584000D01*
X118349000Y-93948250D01*
X118507748Y-94106998D01*
X118378912Y-94106998D01*
X118329619Y-93859179D01*
X118232753Y-93625324D01*
X118092125Y-93414860D01*
X117913140Y-93235875D01*
X117702676Y-93095247D01*
X117484140Y-93004726D01*
X117598865Y-92890001D01*
X118088981Y-92890001D01*
X118129999Y-92894041D01*
X118171017Y-92890001D01*
X118171018Y-92890001D01*
X118293688Y-92877919D01*
X118451086Y-92830173D01*
X118596145Y-92752637D01*
X118723290Y-92648292D01*
X118749445Y-92616422D01*
X119102060Y-92263807D01*
X119233740Y-92290000D01*
X119526260Y-92290000D01*
X119813158Y-92232932D01*
X120083411Y-92120990D01*
X120326632Y-91958475D01*
X120533475Y-91751632D01*
X120650000Y-91577240D01*
X120766525Y-91751632D01*
X120973368Y-91958475D01*
X121216589Y-92120990D01*
X121486842Y-92232932D01*
X121642926Y-92263979D01*
X121576987Y-92308038D01*
X121391038Y-92493987D01*
X121244939Y-92712641D01*
X121144304Y-92955595D01*
X121093000Y-93213514D01*
X121093000Y-93476486D01*
X121144304Y-93734405D01*
X121244939Y-93977359D01*
X121391038Y-94196013D01*
X121576987Y-94381962D01*
X121795641Y-94528061D01*
X122009444Y-94616621D01*
X121846634Y-94676065D01*
X121745797Y-94729963D01*
X121686336Y-94963731D01*
X122428000Y-95705395D01*
X123169664Y-94963731D01*
X123110203Y-94729963D01*
X122871758Y-94619066D01*
X122852173Y-94614294D01*
X123060359Y-94528061D01*
X123279013Y-94381962D01*
X123464962Y-94196013D01*
X123611061Y-93977359D01*
X123625001Y-93943706D01*
X123625001Y-95135132D01*
X123562548Y-95197585D01*
X123349269Y-95143336D01*
X122607605Y-95885000D01*
X122621748Y-95899143D01*
X122442143Y-96078748D01*
X122428000Y-96064605D01*
X121686336Y-96806269D01*
X121740586Y-97019549D01*
X121428578Y-97331557D01*
X121396708Y-97357712D01*
X121320545Y-97450518D01*
X121292363Y-97484858D01*
X121214827Y-97629917D01*
X121167081Y-97787315D01*
X121150959Y-97951003D01*
X121154999Y-97992022D01*
X121155000Y-102708131D01*
X120088578Y-103774554D01*
X120056709Y-103800709D01*
X119994166Y-103876919D01*
X119952364Y-103927855D01*
X119874828Y-104072914D01*
X119827082Y-104230312D01*
X119810960Y-104394000D01*
X119815000Y-104435019D01*
X119815001Y-107417069D01*
X119735241Y-107470363D01*
X119535363Y-107670241D01*
X119378320Y-107905273D01*
X119270147Y-108166426D01*
X119215000Y-108443665D01*
X119215000Y-108726335D01*
X119270147Y-109003574D01*
X119378320Y-109264727D01*
X119535363Y-109499759D01*
X119735241Y-109699637D01*
X119815001Y-109752931D01*
X119815001Y-111051149D01*
X119786004Y-111037429D01*
X119511816Y-110968700D01*
X119229488Y-110954783D01*
X118949870Y-110996213D01*
X118683708Y-111091397D01*
X118558486Y-111158329D01*
X118486903Y-111402298D01*
X119300000Y-112215395D01*
X119314143Y-112201253D01*
X119493748Y-112380858D01*
X119479605Y-112395000D01*
X119493748Y-112409143D01*
X119314143Y-112588748D01*
X119300000Y-112574605D01*
X118486903Y-113387702D01*
X118558486Y-113631671D01*
X118813996Y-113752571D01*
X119088184Y-113821300D01*
X119370512Y-113835217D01*
X119650130Y-113793787D01*
X119815000Y-113734827D01*
X119815000Y-114340852D01*
X119702794Y-114415826D01*
X119495826Y-114622794D01*
X119380216Y-114795817D01*
X119139040Y-114720565D01*
X118289605Y-115570000D01*
X119139040Y-116419435D01*
X119380216Y-116344183D01*
X119495826Y-116517206D01*
X119702794Y-116724174D01*
X119946162Y-116886788D01*
X120216579Y-116998798D01*
X120503652Y-117055900D01*
X120796348Y-117055900D01*
X121083421Y-116998798D01*
X121353838Y-116886788D01*
X121597206Y-116724174D01*
X121804174Y-116517206D01*
X121920000Y-116343861D01*
X122035826Y-116517206D01*
X122242794Y-116724174D01*
X122486162Y-116886788D01*
X122756579Y-116998798D01*
X123043652Y-117055900D01*
X123336348Y-117055900D01*
X123623421Y-116998798D01*
X123893838Y-116886788D01*
X124137206Y-116724174D01*
X124262340Y-116599040D01*
X124880565Y-116599040D01*
X124958310Y-116848207D01*
X125222503Y-116974196D01*
X125506199Y-117046223D01*
X125798496Y-117061519D01*
X126088161Y-117019497D01*
X126364062Y-116921771D01*
X126501690Y-116848207D01*
X126579435Y-116599040D01*
X125730000Y-115749605D01*
X124880565Y-116599040D01*
X124262340Y-116599040D01*
X124344174Y-116517206D01*
X124459784Y-116344183D01*
X124700960Y-116419435D01*
X125550395Y-115570000D01*
X124700960Y-114720565D01*
X124459784Y-114795817D01*
X124344174Y-114622794D01*
X124262340Y-114540960D01*
X124880565Y-114540960D01*
X125730000Y-115390395D01*
X126579435Y-114540960D01*
X126501690Y-114291793D01*
X126237497Y-114165804D01*
X125953801Y-114093777D01*
X125661504Y-114078481D01*
X125371839Y-114120503D01*
X125095938Y-114218229D01*
X124958310Y-114291793D01*
X124880565Y-114540960D01*
X124262340Y-114540960D01*
X124137206Y-114415826D01*
X124025000Y-114340852D01*
X124025000Y-105942930D01*
X124104759Y-105889637D01*
X124304637Y-105689759D01*
X124461680Y-105454727D01*
X124569853Y-105193574D01*
X124625000Y-104916335D01*
X124625000Y-104633665D01*
X124606285Y-104539582D01*
X125283165Y-103862702D01*
X127456903Y-103862702D01*
X127528486Y-104106671D01*
X127783996Y-104227571D01*
X128058184Y-104296300D01*
X128340512Y-104310217D01*
X128620130Y-104268787D01*
X128886292Y-104173603D01*
X129011514Y-104106671D01*
X129083097Y-103862702D01*
X128270000Y-103049605D01*
X127456903Y-103862702D01*
X125283165Y-103862702D01*
X126205356Y-102940512D01*
X126829783Y-102940512D01*
X126871213Y-103220130D01*
X126966397Y-103486292D01*
X127033329Y-103611514D01*
X127277298Y-103683097D01*
X128090395Y-102870000D01*
X128449605Y-102870000D01*
X129262702Y-103683097D01*
X129506671Y-103611514D01*
X129627571Y-103356004D01*
X129696300Y-103081816D01*
X129710217Y-102799488D01*
X129668787Y-102519870D01*
X129573603Y-102253708D01*
X129506671Y-102128486D01*
X129262702Y-102056903D01*
X128449605Y-102870000D01*
X128090395Y-102870000D01*
X127277298Y-102056903D01*
X127033329Y-102128486D01*
X126912429Y-102383996D01*
X126843700Y-102658184D01*
X126829783Y-102940512D01*
X126205356Y-102940512D01*
X126545433Y-102600436D01*
X126577291Y-102574291D01*
X126681636Y-102447146D01*
X126759172Y-102302087D01*
X126806918Y-102144689D01*
X126819000Y-102022019D01*
X126819000Y-102022018D01*
X126823040Y-101981000D01*
X126819000Y-101939982D01*
X126819000Y-101877298D01*
X127456903Y-101877298D01*
X128270000Y-102690395D01*
X129083097Y-101877298D01*
X129011514Y-101633329D01*
X128756004Y-101512429D01*
X128481816Y-101443700D01*
X128199488Y-101429783D01*
X127919870Y-101471213D01*
X127653708Y-101566397D01*
X127528486Y-101633329D01*
X127456903Y-101877298D01*
X126819000Y-101877298D01*
X126819000Y-97424000D01*
X130029928Y-97424000D01*
X130042188Y-97548482D01*
X130078498Y-97668180D01*
X130137463Y-97778494D01*
X130216815Y-97875185D01*
X130313506Y-97954537D01*
X130423820Y-98013502D01*
X130543518Y-98049812D01*
X130668000Y-98062072D01*
X131032250Y-98059000D01*
X131191000Y-97900250D01*
X131191000Y-96901000D01*
X130191750Y-96901000D01*
X130033000Y-97059750D01*
X130029928Y-97424000D01*
X126819000Y-97424000D01*
X126819000Y-92283090D01*
X126853740Y-92290000D01*
X127146260Y-92290000D01*
X127433158Y-92232932D01*
X127703411Y-92120990D01*
X127946632Y-91958475D01*
X128153475Y-91751632D01*
X128270000Y-91577240D01*
X128386525Y-91751632D01*
X128593368Y-91958475D01*
X128836589Y-92120990D01*
X129106842Y-92232932D01*
X129393740Y-92290000D01*
X129686260Y-92290000D01*
X129973158Y-92232932D01*
X130243411Y-92120990D01*
X130486632Y-91958475D01*
X130618487Y-91826620D01*
X130640498Y-91899180D01*
X130699463Y-92009494D01*
X130778815Y-92106185D01*
X130875506Y-92185537D01*
X130985820Y-92244502D01*
X131105518Y-92280812D01*
X131230000Y-92293072D01*
X131794250Y-92290000D01*
X131953000Y-92131250D01*
X131953000Y-90932000D01*
X132207000Y-90932000D01*
X132207000Y-92131250D01*
X132365750Y-92290000D01*
X132930000Y-92293072D01*
X133054482Y-92280812D01*
X133174180Y-92244502D01*
X133284494Y-92185537D01*
X133381185Y-92106185D01*
X133460537Y-92009494D01*
X133519502Y-91899180D01*
X133555812Y-91779482D01*
X133568072Y-91655000D01*
X133565000Y-91090750D01*
X133406250Y-90932000D01*
X132207000Y-90932000D01*
X131953000Y-90932000D01*
X131933000Y-90932000D01*
X131933000Y-90678000D01*
X131953000Y-90678000D01*
X131953000Y-90658000D01*
X132207000Y-90658000D01*
X132207000Y-90678000D01*
X133406250Y-90678000D01*
X133475724Y-90608526D01*
X134073002Y-91205804D01*
G36*
X134595001Y-114758726D02*
G01*
X134504174Y-114622794D01*
X134297206Y-114415826D01*
X134053838Y-114253212D01*
X133783421Y-114141202D01*
X133496348Y-114084100D01*
X133203652Y-114084100D01*
X132916579Y-114141202D01*
X132646162Y-114253212D01*
X132402794Y-114415826D01*
X132195826Y-114622794D01*
X132080000Y-114796139D01*
X131964174Y-114622794D01*
X131757206Y-114415826D01*
X131513838Y-114253212D01*
X131243421Y-114141202D01*
X130956348Y-114084100D01*
X130663652Y-114084100D01*
X130376579Y-114141202D01*
X130106162Y-114253212D01*
X129862794Y-114415826D01*
X129655826Y-114622794D01*
X129540000Y-114796139D01*
X129424174Y-114622794D01*
X129217206Y-114415826D01*
X129105000Y-114340852D01*
X129105000Y-114197930D01*
X129184759Y-114144637D01*
X129384637Y-113944759D01*
X129541680Y-113709727D01*
X129649853Y-113448574D01*
X129705000Y-113171335D01*
X129705000Y-112888665D01*
X129668688Y-112706113D01*
X134595001Y-107779801D01*
X134595001Y-114758726D01*
G37*
X134595001Y-114758726D02*
X134504174Y-114622794D01*
X134297206Y-114415826D01*
X134053838Y-114253212D01*
X133783421Y-114141202D01*
X133496348Y-114084100D01*
X133203652Y-114084100D01*
X132916579Y-114141202D01*
X132646162Y-114253212D01*
X132402794Y-114415826D01*
X132195826Y-114622794D01*
X132080000Y-114796139D01*
X131964174Y-114622794D01*
X131757206Y-114415826D01*
X131513838Y-114253212D01*
X131243421Y-114141202D01*
X130956348Y-114084100D01*
X130663652Y-114084100D01*
X130376579Y-114141202D01*
X130106162Y-114253212D01*
X129862794Y-114415826D01*
X129655826Y-114622794D01*
X129540000Y-114796139D01*
X129424174Y-114622794D01*
X129217206Y-114415826D01*
X129105000Y-114340852D01*
X129105000Y-114197930D01*
X129184759Y-114144637D01*
X129384637Y-113944759D01*
X129541680Y-113709727D01*
X129649853Y-113448574D01*
X129705000Y-113171335D01*
X129705000Y-112888665D01*
X129668688Y-112706113D01*
X134595001Y-107779801D01*
X134595001Y-114758726D01*
G36*
X125149000Y-101635131D02*
G01*
X124276870Y-102507262D01*
X124182704Y-102413097D01*
X124426671Y-102341514D01*
X124547571Y-102086004D01*
X124616300Y-101811816D01*
X124630217Y-101529488D01*
X124588787Y-101249870D01*
X124493603Y-100983708D01*
X124426671Y-100858486D01*
X124182702Y-100786903D01*
X123369605Y-101600000D01*
X123383748Y-101614143D01*
X123204143Y-101793748D01*
X123190000Y-101779605D01*
X123175858Y-101793748D01*
X122996253Y-101614143D01*
X123010395Y-101600000D01*
X122996253Y-101585858D01*
X123175858Y-101406253D01*
X123190000Y-101420395D01*
X124003097Y-100607298D01*
X123931514Y-100363329D01*
X123676004Y-100242429D01*
X123401816Y-100173700D01*
X123119488Y-100159783D01*
X122839870Y-100201213D01*
X122824999Y-100206531D01*
X122824999Y-98296870D01*
X125021432Y-96100439D01*
X125053291Y-96074293D01*
X125088608Y-96031260D01*
X125149001Y-95957670D01*
X125149000Y-101635131D01*
G37*
X125149000Y-101635131D02*
X124276870Y-102507262D01*
X124182704Y-102413097D01*
X124426671Y-102341514D01*
X124547571Y-102086004D01*
X124616300Y-101811816D01*
X124630217Y-101529488D01*
X124588787Y-101249870D01*
X124493603Y-100983708D01*
X124426671Y-100858486D01*
X124182702Y-100786903D01*
X123369605Y-101600000D01*
X123383748Y-101614143D01*
X123204143Y-101793748D01*
X123190000Y-101779605D01*
X123175858Y-101793748D01*
X122996253Y-101614143D01*
X123010395Y-101600000D01*
X122996253Y-101585858D01*
X123175858Y-101406253D01*
X123190000Y-101420395D01*
X124003097Y-100607298D01*
X123931514Y-100363329D01*
X123676004Y-100242429D01*
X123401816Y-100173700D01*
X123119488Y-100159783D01*
X122839870Y-100201213D01*
X122824999Y-100206531D01*
X122824999Y-98296870D01*
X125021432Y-96100439D01*
X125053291Y-96074293D01*
X125088608Y-96031260D01*
X125149001Y-95957670D01*
X125149000Y-101635131D01*
G36*
X133079545Y-56578909D02*
G01*
X133430208Y-56684780D01*
X133753625Y-56856744D01*
X134037484Y-57088254D01*
X134270965Y-57370486D01*
X134445183Y-57692695D01*
X134553502Y-58042614D01*
X134595000Y-58437443D01*
X134595001Y-82517711D01*
X134556091Y-82914545D01*
X134450220Y-83265206D01*
X134278257Y-83588623D01*
X134046748Y-83872482D01*
X133764514Y-84105965D01*
X133442304Y-84280184D01*
X133092385Y-84388502D01*
X132697557Y-84430000D01*
X126332581Y-84430000D01*
X126303699Y-84432845D01*
X126291883Y-84432762D01*
X126282712Y-84433662D01*
X125912958Y-84472525D01*
X125854371Y-84484551D01*
X125795601Y-84495762D01*
X125786779Y-84498426D01*
X125431615Y-84608367D01*
X125376464Y-84631551D01*
X125321008Y-84653956D01*
X125312872Y-84658283D01*
X124985827Y-84835115D01*
X124936285Y-84868531D01*
X124886178Y-84901320D01*
X124879037Y-84907145D01*
X124848869Y-84932102D01*
X124820226Y-84788102D01*
X124742205Y-84599744D01*
X124628937Y-84430226D01*
X124484774Y-84286063D01*
X124315256Y-84172795D01*
X124126898Y-84094774D01*
X123926939Y-84055000D01*
X123723061Y-84055000D01*
X123523102Y-84094774D01*
X123334744Y-84172795D01*
X123165226Y-84286063D01*
X123021063Y-84430226D01*
X122907795Y-84599744D01*
X122872500Y-84684953D01*
X122837205Y-84599744D01*
X122723937Y-84430226D01*
X122579774Y-84286063D01*
X122410256Y-84172795D01*
X122221898Y-84094774D01*
X122021939Y-84055000D01*
X121818061Y-84055000D01*
X121618102Y-84094774D01*
X121429744Y-84172795D01*
X121260226Y-84286063D01*
X121116063Y-84430226D01*
X121002795Y-84599744D01*
X120967500Y-84684953D01*
X120932205Y-84599744D01*
X120818937Y-84430226D01*
X120674774Y-84286063D01*
X120505256Y-84172795D01*
X120316898Y-84094774D01*
X120116939Y-84055000D01*
X119913061Y-84055000D01*
X119713102Y-84094774D01*
X119524744Y-84172795D01*
X119355226Y-84286063D01*
X119211063Y-84430226D01*
X119097795Y-84599744D01*
X119062500Y-84684953D01*
X119027205Y-84599744D01*
X118913937Y-84430226D01*
X118769774Y-84286063D01*
X118600256Y-84172795D01*
X118411898Y-84094774D01*
X118211939Y-84055000D01*
X118008061Y-84055000D01*
X117808102Y-84094774D01*
X117619744Y-84172795D01*
X117450226Y-84286063D01*
X117306063Y-84430226D01*
X117192795Y-84599744D01*
X117157500Y-84684953D01*
X117122205Y-84599744D01*
X117008937Y-84430226D01*
X116864774Y-84286063D01*
X116695256Y-84172795D01*
X116506898Y-84094774D01*
X116306939Y-84055000D01*
X116103061Y-84055000D01*
X115903102Y-84094774D01*
X115714744Y-84172795D01*
X115545226Y-84286063D01*
X115401063Y-84430226D01*
X115287795Y-84599744D01*
X115209774Y-84788102D01*
X115180918Y-84933170D01*
X115136351Y-84896822D01*
X115086540Y-84863728D01*
X115037168Y-84829922D01*
X115029062Y-84825539D01*
X114700790Y-84650994D01*
X114645489Y-84628201D01*
X114590504Y-84604634D01*
X114581700Y-84601909D01*
X114225778Y-84494449D01*
X114167078Y-84482826D01*
X114108584Y-84470393D01*
X114099422Y-84469430D01*
X114099420Y-84469430D01*
X113729404Y-84433150D01*
X113729402Y-84433150D01*
X113697419Y-84430000D01*
X107347279Y-84430000D01*
X106950455Y-84391091D01*
X106599794Y-84285220D01*
X106276377Y-84113257D01*
X105992518Y-83881748D01*
X105759035Y-83599514D01*
X105584816Y-83277304D01*
X105476498Y-82927385D01*
X105435000Y-82532557D01*
X105435000Y-77235098D01*
X105565000Y-77235098D01*
X105565000Y-77704902D01*
X105656654Y-78165679D01*
X105836440Y-78599721D01*
X106097450Y-78990349D01*
X106429651Y-79322550D01*
X106820279Y-79583560D01*
X107254321Y-79763346D01*
X107715098Y-79855000D01*
X108184902Y-79855000D01*
X108645679Y-79763346D01*
X109079721Y-79583560D01*
X109470349Y-79322550D01*
X109802550Y-78990349D01*
X110063560Y-78599721D01*
X110063997Y-78598665D01*
X113373000Y-78598665D01*
X113373000Y-78881335D01*
X113428147Y-79158574D01*
X113536320Y-79419727D01*
X113693363Y-79654759D01*
X113893241Y-79854637D01*
X114128273Y-80011680D01*
X114389426Y-80119853D01*
X114666665Y-80175000D01*
X114949335Y-80175000D01*
X115226574Y-80119853D01*
X115487727Y-80011680D01*
X115722759Y-79854637D01*
X115922637Y-79654759D01*
X116079680Y-79419727D01*
X116187853Y-79158574D01*
X116243000Y-78881335D01*
X116243000Y-78598665D01*
X116187853Y-78321426D01*
X116079680Y-78060273D01*
X115922637Y-77825241D01*
X115722759Y-77625363D01*
X115487727Y-77468320D01*
X115226574Y-77360147D01*
X114949335Y-77305000D01*
X114666665Y-77305000D01*
X114389426Y-77360147D01*
X114128273Y-77468320D01*
X113893241Y-77625363D01*
X113693363Y-77825241D01*
X113536320Y-78060273D01*
X113428147Y-78321426D01*
X113373000Y-78598665D01*
X110063997Y-78598665D01*
X110243346Y-78165679D01*
X110335000Y-77704902D01*
X110335000Y-77235098D01*
X110243346Y-76774321D01*
X110063560Y-76340279D01*
X109802550Y-75949651D01*
X109470349Y-75617450D01*
X109079721Y-75356440D01*
X108645679Y-75176654D01*
X108184902Y-75085000D01*
X107715098Y-75085000D01*
X107254321Y-75176654D01*
X106820279Y-75356440D01*
X106429651Y-75617450D01*
X106097450Y-75949651D01*
X105836440Y-76340279D01*
X105656654Y-76774321D01*
X105565000Y-77235098D01*
X105435000Y-77235098D01*
X105435000Y-64555000D01*
X106461928Y-64555000D01*
X106461928Y-66255000D01*
X106474188Y-66379482D01*
X106510498Y-66499180D01*
X106569463Y-66609494D01*
X106648815Y-66706185D01*
X106745506Y-66785537D01*
X106855820Y-66844502D01*
X106975518Y-66880812D01*
X107100000Y-66893072D01*
X108800000Y-66893072D01*
X108924482Y-66880812D01*
X109044180Y-66844502D01*
X109154494Y-66785537D01*
X109251185Y-66706185D01*
X109330537Y-66609494D01*
X109389502Y-66499180D01*
X109425812Y-66379482D01*
X109438072Y-66255000D01*
X109438072Y-64555000D01*
X109437174Y-64545885D01*
X110325000Y-65433711D01*
X110325000Y-65546335D01*
X110380147Y-65823574D01*
X110488320Y-66084727D01*
X110645363Y-66319759D01*
X110845241Y-66519637D01*
X111080273Y-66676680D01*
X111341426Y-66784853D01*
X111618665Y-66840000D01*
X111901335Y-66840000D01*
X112178574Y-66784853D01*
X112439727Y-66676680D01*
X112674759Y-66519637D01*
X112874637Y-66319759D01*
X113031680Y-66084727D01*
X113139853Y-65823574D01*
X113195000Y-65546335D01*
X113195000Y-65263665D01*
X113139853Y-64986426D01*
X113031680Y-64725273D01*
X112874637Y-64490241D01*
X112674759Y-64290363D01*
X112439727Y-64133320D01*
X112178574Y-64025147D01*
X111901335Y-63970000D01*
X111788711Y-63970000D01*
X109987807Y-62169097D01*
X109955396Y-62129604D01*
X109797797Y-62000266D01*
X109617993Y-61904159D01*
X109422895Y-61844976D01*
X109270838Y-61830000D01*
X109270828Y-61830000D01*
X109220000Y-61824994D01*
X109169172Y-61830000D01*
X109015107Y-61830000D01*
X108896632Y-61711525D01*
X108722240Y-61595000D01*
X108896632Y-61478475D01*
X109015107Y-61360000D01*
X113509923Y-61360000D01*
X113428147Y-61557426D01*
X113373000Y-61834665D01*
X113373000Y-62117335D01*
X113428147Y-62394574D01*
X113536320Y-62655727D01*
X113693363Y-62890759D01*
X113773000Y-62970396D01*
X113773001Y-68275162D01*
X113767994Y-68326000D01*
X113787977Y-68528895D01*
X113847160Y-68723993D01*
X113943266Y-68903797D01*
X114037944Y-69019162D01*
X114072605Y-69061396D01*
X114112092Y-69093802D01*
X116243100Y-71224811D01*
X116243100Y-71393348D01*
X116300202Y-71680421D01*
X116412212Y-71950838D01*
X116574826Y-72194206D01*
X116781794Y-72401174D01*
X117025162Y-72563788D01*
X117295579Y-72675798D01*
X117582652Y-72732900D01*
X117875348Y-72732900D01*
X118162421Y-72675798D01*
X118432838Y-72563788D01*
X118676206Y-72401174D01*
X118883174Y-72194206D01*
X119045788Y-71950838D01*
X119157798Y-71680421D01*
X119214900Y-71393348D01*
X119214900Y-71208941D01*
X119291100Y-71212928D01*
X119291100Y-71393348D01*
X119348202Y-71680421D01*
X119460212Y-71950838D01*
X119622826Y-72194206D01*
X119742001Y-72313381D01*
X119742000Y-73866289D01*
X119078290Y-74530000D01*
X112754396Y-74530000D01*
X112674759Y-74450363D01*
X112439727Y-74293320D01*
X112178574Y-74185147D01*
X111901335Y-74130000D01*
X111618665Y-74130000D01*
X111341426Y-74185147D01*
X111080273Y-74293320D01*
X110845241Y-74450363D01*
X110645363Y-74650241D01*
X110488320Y-74885273D01*
X110380147Y-75146426D01*
X110325000Y-75423665D01*
X110325000Y-75706335D01*
X110380147Y-75983574D01*
X110488320Y-76244727D01*
X110645363Y-76479759D01*
X110845241Y-76679637D01*
X111080273Y-76836680D01*
X111341426Y-76944853D01*
X111618665Y-77000000D01*
X111901335Y-77000000D01*
X112178574Y-76944853D01*
X112439727Y-76836680D01*
X112674759Y-76679637D01*
X112754396Y-76600000D01*
X119456172Y-76600000D01*
X119507000Y-76605006D01*
X119557828Y-76600000D01*
X119557838Y-76600000D01*
X119709895Y-76585024D01*
X119904993Y-76525841D01*
X120084797Y-76429734D01*
X120242396Y-76300396D01*
X120274807Y-76260903D01*
X121266001Y-75269710D01*
X121266001Y-76022162D01*
X121260994Y-76073000D01*
X121280977Y-76275895D01*
X121340160Y-76470993D01*
X121436266Y-76650797D01*
X121459935Y-76679637D01*
X121565605Y-76808396D01*
X121605092Y-76840802D01*
X123533000Y-78768711D01*
X123533000Y-78881335D01*
X123588147Y-79158574D01*
X123696320Y-79419727D01*
X123853363Y-79654759D01*
X124053241Y-79854637D01*
X124288273Y-80011680D01*
X124549426Y-80119853D01*
X124826665Y-80175000D01*
X125109335Y-80175000D01*
X125386574Y-80119853D01*
X125647727Y-80011680D01*
X125882759Y-79854637D01*
X126082637Y-79654759D01*
X126239680Y-79419727D01*
X126347853Y-79158574D01*
X126403000Y-78881335D01*
X126403000Y-78598665D01*
X126347853Y-78321426D01*
X126239680Y-78060273D01*
X126082637Y-77825241D01*
X125882759Y-77625363D01*
X125647727Y-77468320D01*
X125386574Y-77360147D01*
X125109335Y-77305000D01*
X124996711Y-77305000D01*
X124926809Y-77235098D01*
X129695000Y-77235098D01*
X129695000Y-77704902D01*
X129786654Y-78165679D01*
X129966440Y-78599721D01*
X130227450Y-78990349D01*
X130559651Y-79322550D01*
X130950279Y-79583560D01*
X131384321Y-79763346D01*
X131845098Y-79855000D01*
X132314902Y-79855000D01*
X132775679Y-79763346D01*
X133209721Y-79583560D01*
X133600349Y-79322550D01*
X133932550Y-78990349D01*
X134193560Y-78599721D01*
X134373346Y-78165679D01*
X134465000Y-77704902D01*
X134465000Y-77235098D01*
X134373346Y-76774321D01*
X134193560Y-76340279D01*
X133932550Y-75949651D01*
X133600349Y-75617450D01*
X133209721Y-75356440D01*
X132775679Y-75176654D01*
X132314902Y-75085000D01*
X131845098Y-75085000D01*
X131384321Y-75176654D01*
X130950279Y-75356440D01*
X130559651Y-75617450D01*
X130227450Y-75949651D01*
X129966440Y-76340279D01*
X129786654Y-76774321D01*
X129695000Y-77235098D01*
X124926809Y-77235098D01*
X123336000Y-75644290D01*
X123336000Y-70789380D01*
X123455174Y-70670206D01*
X123617788Y-70426838D01*
X123729798Y-70156421D01*
X123786900Y-69869348D01*
X123786900Y-69576652D01*
X123729798Y-69289579D01*
X123617788Y-69019162D01*
X123455174Y-68775794D01*
X123248206Y-68568826D01*
X123004838Y-68406212D01*
X122734421Y-68294202D01*
X122447348Y-68237100D01*
X122154652Y-68237100D01*
X121867579Y-68294202D01*
X121597162Y-68406212D01*
X121353794Y-68568826D01*
X121146826Y-68775794D01*
X120984212Y-69019162D01*
X120872202Y-69289579D01*
X120815100Y-69576652D01*
X120815100Y-69761100D01*
X120738941Y-69761100D01*
X120744519Y-69654504D01*
X120702497Y-69364839D01*
X120604771Y-69088938D01*
X120531207Y-68951310D01*
X120282040Y-68873565D01*
X119432605Y-69723000D01*
X119446748Y-69737143D01*
X119267143Y-69916748D01*
X119253000Y-69902605D01*
X119238858Y-69916748D01*
X119059253Y-69737143D01*
X119073395Y-69723000D01*
X118223960Y-68873565D01*
X117974793Y-68951310D01*
X117848804Y-69215503D01*
X117776777Y-69499199D01*
X117763072Y-69761100D01*
X117706811Y-69761100D01*
X116639671Y-68693960D01*
X118403565Y-68693960D01*
X119253000Y-69543395D01*
X120102435Y-68693960D01*
X120024690Y-68444793D01*
X119760497Y-68318804D01*
X119476801Y-68246777D01*
X119184504Y-68231481D01*
X118894839Y-68273503D01*
X118618938Y-68371229D01*
X118481310Y-68444793D01*
X118403565Y-68693960D01*
X116639671Y-68693960D01*
X115843000Y-67897290D01*
X115843000Y-62970396D01*
X115922637Y-62890759D01*
X116079680Y-62655727D01*
X116187853Y-62394574D01*
X116243000Y-62117335D01*
X116243000Y-61834665D01*
X116187853Y-61557426D01*
X116106077Y-61360000D01*
X122888290Y-61360000D01*
X123533000Y-62004711D01*
X123533000Y-62117335D01*
X123588147Y-62394574D01*
X123696320Y-62655727D01*
X123853363Y-62890759D01*
X124053241Y-63090637D01*
X124288273Y-63247680D01*
X124549426Y-63355853D01*
X124826665Y-63411000D01*
X125109335Y-63411000D01*
X125386574Y-63355853D01*
X125647727Y-63247680D01*
X125882759Y-63090637D01*
X126082637Y-62890759D01*
X126239680Y-62655727D01*
X126347853Y-62394574D01*
X126403000Y-62117335D01*
X126403000Y-61834665D01*
X126347853Y-61557426D01*
X126239680Y-61296273D01*
X126082637Y-61061241D01*
X125882759Y-60861363D01*
X125647727Y-60704320D01*
X125386574Y-60596147D01*
X125109335Y-60541000D01*
X124996711Y-60541000D01*
X124084807Y-59629097D01*
X124052396Y-59589604D01*
X123894797Y-59460266D01*
X123714993Y-59364159D01*
X123519895Y-59304976D01*
X123367838Y-59290000D01*
X123367828Y-59290000D01*
X123317000Y-59284994D01*
X123266172Y-59290000D01*
X109015107Y-59290000D01*
X108896632Y-59171525D01*
X108714466Y-59049805D01*
X108831355Y-58980178D01*
X109047588Y-58785269D01*
X109221641Y-58551920D01*
X109346825Y-58289099D01*
X109391476Y-58141890D01*
X109270155Y-57912000D01*
X108077000Y-57912000D01*
X108077000Y-57932000D01*
X107823000Y-57932000D01*
X107823000Y-57912000D01*
X106629845Y-57912000D01*
X106508524Y-58141890D01*
X106553175Y-58289099D01*
X106678359Y-58551920D01*
X106852412Y-58785269D01*
X107068645Y-58980178D01*
X107185534Y-59049805D01*
X107003368Y-59171525D01*
X106796525Y-59378368D01*
X106634010Y-59621589D01*
X106522068Y-59891842D01*
X106465000Y-60178740D01*
X106465000Y-60471260D01*
X106522068Y-60758158D01*
X106634010Y-61028411D01*
X106796525Y-61271632D01*
X107003368Y-61478475D01*
X107177760Y-61595000D01*
X107003368Y-61711525D01*
X106796525Y-61918368D01*
X106634010Y-62161589D01*
X106522068Y-62431842D01*
X106465000Y-62718740D01*
X106465000Y-63011260D01*
X106522068Y-63298158D01*
X106634010Y-63568411D01*
X106796525Y-63811632D01*
X106928380Y-63943487D01*
X106855820Y-63965498D01*
X106745506Y-64024463D01*
X106648815Y-64103815D01*
X106569463Y-64200506D01*
X106510498Y-64310820D01*
X106474188Y-64430518D01*
X106461928Y-64555000D01*
X105435000Y-64555000D01*
X105435000Y-58452279D01*
X105473909Y-58055455D01*
X105579780Y-57704792D01*
X105751744Y-57381375D01*
X105983254Y-57097516D01*
X106265486Y-56864035D01*
X106587695Y-56689817D01*
X106937614Y-56581498D01*
X107113686Y-56562992D01*
X107068645Y-56589822D01*
X106852412Y-56784731D01*
X106678359Y-57018080D01*
X106553175Y-57280901D01*
X106508524Y-57428110D01*
X106629845Y-57658000D01*
X107823000Y-57658000D01*
X107823000Y-57638000D01*
X108077000Y-57638000D01*
X108077000Y-57658000D01*
X109270155Y-57658000D01*
X109391476Y-57428110D01*
X109346825Y-57280901D01*
X109221641Y-57018080D01*
X109047588Y-56784731D01*
X108831355Y-56589822D01*
X108747715Y-56540000D01*
X132682721Y-56540000D01*
X133079545Y-56578909D01*
G37*
X133079545Y-56578909D02*
X133430208Y-56684780D01*
X133753625Y-56856744D01*
X134037484Y-57088254D01*
X134270965Y-57370486D01*
X134445183Y-57692695D01*
X134553502Y-58042614D01*
X134595000Y-58437443D01*
X134595001Y-82517711D01*
X134556091Y-82914545D01*
X134450220Y-83265206D01*
X134278257Y-83588623D01*
X134046748Y-83872482D01*
X133764514Y-84105965D01*
X133442304Y-84280184D01*
X133092385Y-84388502D01*
X132697557Y-84430000D01*
X126332581Y-84430000D01*
X126303699Y-84432845D01*
X126291883Y-84432762D01*
X126282712Y-84433662D01*
X125912958Y-84472525D01*
X125854371Y-84484551D01*
X125795601Y-84495762D01*
X125786779Y-84498426D01*
X125431615Y-84608367D01*
X125376464Y-84631551D01*
X125321008Y-84653956D01*
X125312872Y-84658283D01*
X124985827Y-84835115D01*
X124936285Y-84868531D01*
X124886178Y-84901320D01*
X124879037Y-84907145D01*
X124848869Y-84932102D01*
X124820226Y-84788102D01*
X124742205Y-84599744D01*
X124628937Y-84430226D01*
X124484774Y-84286063D01*
X124315256Y-84172795D01*
X124126898Y-84094774D01*
X123926939Y-84055000D01*
X123723061Y-84055000D01*
X123523102Y-84094774D01*
X123334744Y-84172795D01*
X123165226Y-84286063D01*
X123021063Y-84430226D01*
X122907795Y-84599744D01*
X122872500Y-84684953D01*
X122837205Y-84599744D01*
X122723937Y-84430226D01*
X122579774Y-84286063D01*
X122410256Y-84172795D01*
X122221898Y-84094774D01*
X122021939Y-84055000D01*
X121818061Y-84055000D01*
X121618102Y-84094774D01*
X121429744Y-84172795D01*
X121260226Y-84286063D01*
X121116063Y-84430226D01*
X121002795Y-84599744D01*
X120967500Y-84684953D01*
X120932205Y-84599744D01*
X120818937Y-84430226D01*
X120674774Y-84286063D01*
X120505256Y-84172795D01*
X120316898Y-84094774D01*
X120116939Y-84055000D01*
X119913061Y-84055000D01*
X119713102Y-84094774D01*
X119524744Y-84172795D01*
X119355226Y-84286063D01*
X119211063Y-84430226D01*
X119097795Y-84599744D01*
X119062500Y-84684953D01*
X119027205Y-84599744D01*
X118913937Y-84430226D01*
X118769774Y-84286063D01*
X118600256Y-84172795D01*
X118411898Y-84094774D01*
X118211939Y-84055000D01*
X118008061Y-84055000D01*
X117808102Y-84094774D01*
X117619744Y-84172795D01*
X117450226Y-84286063D01*
X117306063Y-84430226D01*
X117192795Y-84599744D01*
X117157500Y-84684953D01*
X117122205Y-84599744D01*
X117008937Y-84430226D01*
X116864774Y-84286063D01*
X116695256Y-84172795D01*
X116506898Y-84094774D01*
X116306939Y-84055000D01*
X116103061Y-84055000D01*
X115903102Y-84094774D01*
X115714744Y-84172795D01*
X115545226Y-84286063D01*
X115401063Y-84430226D01*
X115287795Y-84599744D01*
X115209774Y-84788102D01*
X115180918Y-84933170D01*
X115136351Y-84896822D01*
X115086540Y-84863728D01*
X115037168Y-84829922D01*
X115029062Y-84825539D01*
X114700790Y-84650994D01*
X114645489Y-84628201D01*
X114590504Y-84604634D01*
X114581700Y-84601909D01*
X114225778Y-84494449D01*
X114167078Y-84482826D01*
X114108584Y-84470393D01*
X114099422Y-84469430D01*
X114099420Y-84469430D01*
X113729404Y-84433150D01*
X113729402Y-84433150D01*
X113697419Y-84430000D01*
X107347279Y-84430000D01*
X106950455Y-84391091D01*
X106599794Y-84285220D01*
X106276377Y-84113257D01*
X105992518Y-83881748D01*
X105759035Y-83599514D01*
X105584816Y-83277304D01*
X105476498Y-82927385D01*
X105435000Y-82532557D01*
X105435000Y-77235098D01*
X105565000Y-77235098D01*
X105565000Y-77704902D01*
X105656654Y-78165679D01*
X105836440Y-78599721D01*
X106097450Y-78990349D01*
X106429651Y-79322550D01*
X106820279Y-79583560D01*
X107254321Y-79763346D01*
X107715098Y-79855000D01*
X108184902Y-79855000D01*
X108645679Y-79763346D01*
X109079721Y-79583560D01*
X109470349Y-79322550D01*
X109802550Y-78990349D01*
X110063560Y-78599721D01*
X110063997Y-78598665D01*
X113373000Y-78598665D01*
X113373000Y-78881335D01*
X113428147Y-79158574D01*
X113536320Y-79419727D01*
X113693363Y-79654759D01*
X113893241Y-79854637D01*
X114128273Y-80011680D01*
X114389426Y-80119853D01*
X114666665Y-80175000D01*
X114949335Y-80175000D01*
X115226574Y-80119853D01*
X115487727Y-80011680D01*
X115722759Y-79854637D01*
X115922637Y-79654759D01*
X116079680Y-79419727D01*
X116187853Y-79158574D01*
X116243000Y-78881335D01*
X116243000Y-78598665D01*
X116187853Y-78321426D01*
X116079680Y-78060273D01*
X115922637Y-77825241D01*
X115722759Y-77625363D01*
X115487727Y-77468320D01*
X115226574Y-77360147D01*
X114949335Y-77305000D01*
X114666665Y-77305000D01*
X114389426Y-77360147D01*
X114128273Y-77468320D01*
X113893241Y-77625363D01*
X113693363Y-77825241D01*
X113536320Y-78060273D01*
X113428147Y-78321426D01*
X113373000Y-78598665D01*
X110063997Y-78598665D01*
X110243346Y-78165679D01*
X110335000Y-77704902D01*
X110335000Y-77235098D01*
X110243346Y-76774321D01*
X110063560Y-76340279D01*
X109802550Y-75949651D01*
X109470349Y-75617450D01*
X109079721Y-75356440D01*
X108645679Y-75176654D01*
X108184902Y-75085000D01*
X107715098Y-75085000D01*
X107254321Y-75176654D01*
X106820279Y-75356440D01*
X106429651Y-75617450D01*
X106097450Y-75949651D01*
X105836440Y-76340279D01*
X105656654Y-76774321D01*
X105565000Y-77235098D01*
X105435000Y-77235098D01*
X105435000Y-64555000D01*
X106461928Y-64555000D01*
X106461928Y-66255000D01*
X106474188Y-66379482D01*
X106510498Y-66499180D01*
X106569463Y-66609494D01*
X106648815Y-66706185D01*
X106745506Y-66785537D01*
X106855820Y-66844502D01*
X106975518Y-66880812D01*
X107100000Y-66893072D01*
X108800000Y-66893072D01*
X108924482Y-66880812D01*
X109044180Y-66844502D01*
X109154494Y-66785537D01*
X109251185Y-66706185D01*
X109330537Y-66609494D01*
X109389502Y-66499180D01*
X109425812Y-66379482D01*
X109438072Y-66255000D01*
X109438072Y-64555000D01*
X109437174Y-64545885D01*
X110325000Y-65433711D01*
X110325000Y-65546335D01*
X110380147Y-65823574D01*
X110488320Y-66084727D01*
X110645363Y-66319759D01*
X110845241Y-66519637D01*
X111080273Y-66676680D01*
X111341426Y-66784853D01*
X111618665Y-66840000D01*
X111901335Y-66840000D01*
X112178574Y-66784853D01*
X112439727Y-66676680D01*
X112674759Y-66519637D01*
X112874637Y-66319759D01*
X113031680Y-66084727D01*
X113139853Y-65823574D01*
X113195000Y-65546335D01*
X113195000Y-65263665D01*
X113139853Y-64986426D01*
X113031680Y-64725273D01*
X112874637Y-64490241D01*
X112674759Y-64290363D01*
X112439727Y-64133320D01*
X112178574Y-64025147D01*
X111901335Y-63970000D01*
X111788711Y-63970000D01*
X109987807Y-62169097D01*
X109955396Y-62129604D01*
X109797797Y-62000266D01*
X109617993Y-61904159D01*
X109422895Y-61844976D01*
X109270838Y-61830000D01*
X109270828Y-61830000D01*
X109220000Y-61824994D01*
X109169172Y-61830000D01*
X109015107Y-61830000D01*
X108896632Y-61711525D01*
X108722240Y-61595000D01*
X108896632Y-61478475D01*
X109015107Y-61360000D01*
X113509923Y-61360000D01*
X113428147Y-61557426D01*
X113373000Y-61834665D01*
X113373000Y-62117335D01*
X113428147Y-62394574D01*
X113536320Y-62655727D01*
X113693363Y-62890759D01*
X113773000Y-62970396D01*
X113773001Y-68275162D01*
X113767994Y-68326000D01*
X113787977Y-68528895D01*
X113847160Y-68723993D01*
X113943266Y-68903797D01*
X114037944Y-69019162D01*
X114072605Y-69061396D01*
X114112092Y-69093802D01*
X116243100Y-71224811D01*
X116243100Y-71393348D01*
X116300202Y-71680421D01*
X116412212Y-71950838D01*
X116574826Y-72194206D01*
X116781794Y-72401174D01*
X117025162Y-72563788D01*
X117295579Y-72675798D01*
X117582652Y-72732900D01*
X117875348Y-72732900D01*
X118162421Y-72675798D01*
X118432838Y-72563788D01*
X118676206Y-72401174D01*
X118883174Y-72194206D01*
X119045788Y-71950838D01*
X119157798Y-71680421D01*
X119214900Y-71393348D01*
X119214900Y-71208941D01*
X119291100Y-71212928D01*
X119291100Y-71393348D01*
X119348202Y-71680421D01*
X119460212Y-71950838D01*
X119622826Y-72194206D01*
X119742001Y-72313381D01*
X119742000Y-73866289D01*
X119078290Y-74530000D01*
X112754396Y-74530000D01*
X112674759Y-74450363D01*
X112439727Y-74293320D01*
X112178574Y-74185147D01*
X111901335Y-74130000D01*
X111618665Y-74130000D01*
X111341426Y-74185147D01*
X111080273Y-74293320D01*
X110845241Y-74450363D01*
X110645363Y-74650241D01*
X110488320Y-74885273D01*
X110380147Y-75146426D01*
X110325000Y-75423665D01*
X110325000Y-75706335D01*
X110380147Y-75983574D01*
X110488320Y-76244727D01*
X110645363Y-76479759D01*
X110845241Y-76679637D01*
X111080273Y-76836680D01*
X111341426Y-76944853D01*
X111618665Y-77000000D01*
X111901335Y-77000000D01*
X112178574Y-76944853D01*
X112439727Y-76836680D01*
X112674759Y-76679637D01*
X112754396Y-76600000D01*
X119456172Y-76600000D01*
X119507000Y-76605006D01*
X119557828Y-76600000D01*
X119557838Y-76600000D01*
X119709895Y-76585024D01*
X119904993Y-76525841D01*
X120084797Y-76429734D01*
X120242396Y-76300396D01*
X120274807Y-76260903D01*
X121266001Y-75269710D01*
X121266001Y-76022162D01*
X121260994Y-76073000D01*
X121280977Y-76275895D01*
X121340160Y-76470993D01*
X121436266Y-76650797D01*
X121459935Y-76679637D01*
X121565605Y-76808396D01*
X121605092Y-76840802D01*
X123533000Y-78768711D01*
X123533000Y-78881335D01*
X123588147Y-79158574D01*
X123696320Y-79419727D01*
X123853363Y-79654759D01*
X124053241Y-79854637D01*
X124288273Y-80011680D01*
X124549426Y-80119853D01*
X124826665Y-80175000D01*
X125109335Y-80175000D01*
X125386574Y-80119853D01*
X125647727Y-80011680D01*
X125882759Y-79854637D01*
X126082637Y-79654759D01*
X126239680Y-79419727D01*
X126347853Y-79158574D01*
X126403000Y-78881335D01*
X126403000Y-78598665D01*
X126347853Y-78321426D01*
X126239680Y-78060273D01*
X126082637Y-77825241D01*
X125882759Y-77625363D01*
X125647727Y-77468320D01*
X125386574Y-77360147D01*
X125109335Y-77305000D01*
X124996711Y-77305000D01*
X124926809Y-77235098D01*
X129695000Y-77235098D01*
X129695000Y-77704902D01*
X129786654Y-78165679D01*
X129966440Y-78599721D01*
X130227450Y-78990349D01*
X130559651Y-79322550D01*
X130950279Y-79583560D01*
X131384321Y-79763346D01*
X131845098Y-79855000D01*
X132314902Y-79855000D01*
X132775679Y-79763346D01*
X133209721Y-79583560D01*
X133600349Y-79322550D01*
X133932550Y-78990349D01*
X134193560Y-78599721D01*
X134373346Y-78165679D01*
X134465000Y-77704902D01*
X134465000Y-77235098D01*
X134373346Y-76774321D01*
X134193560Y-76340279D01*
X133932550Y-75949651D01*
X133600349Y-75617450D01*
X133209721Y-75356440D01*
X132775679Y-75176654D01*
X132314902Y-75085000D01*
X131845098Y-75085000D01*
X131384321Y-75176654D01*
X130950279Y-75356440D01*
X130559651Y-75617450D01*
X130227450Y-75949651D01*
X129966440Y-76340279D01*
X129786654Y-76774321D01*
X129695000Y-77235098D01*
X124926809Y-77235098D01*
X123336000Y-75644290D01*
X123336000Y-70789380D01*
X123455174Y-70670206D01*
X123617788Y-70426838D01*
X123729798Y-70156421D01*
X123786900Y-69869348D01*
X123786900Y-69576652D01*
X123729798Y-69289579D01*
X123617788Y-69019162D01*
X123455174Y-68775794D01*
X123248206Y-68568826D01*
X123004838Y-68406212D01*
X122734421Y-68294202D01*
X122447348Y-68237100D01*
X122154652Y-68237100D01*
X121867579Y-68294202D01*
X121597162Y-68406212D01*
X121353794Y-68568826D01*
X121146826Y-68775794D01*
X120984212Y-69019162D01*
X120872202Y-69289579D01*
X120815100Y-69576652D01*
X120815100Y-69761100D01*
X120738941Y-69761100D01*
X120744519Y-69654504D01*
X120702497Y-69364839D01*
X120604771Y-69088938D01*
X120531207Y-68951310D01*
X120282040Y-68873565D01*
X119432605Y-69723000D01*
X119446748Y-69737143D01*
X119267143Y-69916748D01*
X119253000Y-69902605D01*
X119238858Y-69916748D01*
X119059253Y-69737143D01*
X119073395Y-69723000D01*
X118223960Y-68873565D01*
X117974793Y-68951310D01*
X117848804Y-69215503D01*
X117776777Y-69499199D01*
X117763072Y-69761100D01*
X117706811Y-69761100D01*
X116639671Y-68693960D01*
X118403565Y-68693960D01*
X119253000Y-69543395D01*
X120102435Y-68693960D01*
X120024690Y-68444793D01*
X119760497Y-68318804D01*
X119476801Y-68246777D01*
X119184504Y-68231481D01*
X118894839Y-68273503D01*
X118618938Y-68371229D01*
X118481310Y-68444793D01*
X118403565Y-68693960D01*
X116639671Y-68693960D01*
X115843000Y-67897290D01*
X115843000Y-62970396D01*
X115922637Y-62890759D01*
X116079680Y-62655727D01*
X116187853Y-62394574D01*
X116243000Y-62117335D01*
X116243000Y-61834665D01*
X116187853Y-61557426D01*
X116106077Y-61360000D01*
X122888290Y-61360000D01*
X123533000Y-62004711D01*
X123533000Y-62117335D01*
X123588147Y-62394574D01*
X123696320Y-62655727D01*
X123853363Y-62890759D01*
X124053241Y-63090637D01*
X124288273Y-63247680D01*
X124549426Y-63355853D01*
X124826665Y-63411000D01*
X125109335Y-63411000D01*
X125386574Y-63355853D01*
X125647727Y-63247680D01*
X125882759Y-63090637D01*
X126082637Y-62890759D01*
X126239680Y-62655727D01*
X126347853Y-62394574D01*
X126403000Y-62117335D01*
X126403000Y-61834665D01*
X126347853Y-61557426D01*
X126239680Y-61296273D01*
X126082637Y-61061241D01*
X125882759Y-60861363D01*
X125647727Y-60704320D01*
X125386574Y-60596147D01*
X125109335Y-60541000D01*
X124996711Y-60541000D01*
X124084807Y-59629097D01*
X124052396Y-59589604D01*
X123894797Y-59460266D01*
X123714993Y-59364159D01*
X123519895Y-59304976D01*
X123367838Y-59290000D01*
X123367828Y-59290000D01*
X123317000Y-59284994D01*
X123266172Y-59290000D01*
X109015107Y-59290000D01*
X108896632Y-59171525D01*
X108714466Y-59049805D01*
X108831355Y-58980178D01*
X109047588Y-58785269D01*
X109221641Y-58551920D01*
X109346825Y-58289099D01*
X109391476Y-58141890D01*
X109270155Y-57912000D01*
X108077000Y-57912000D01*
X108077000Y-57932000D01*
X107823000Y-57932000D01*
X107823000Y-57912000D01*
X106629845Y-57912000D01*
X106508524Y-58141890D01*
X106553175Y-58289099D01*
X106678359Y-58551920D01*
X106852412Y-58785269D01*
X107068645Y-58980178D01*
X107185534Y-59049805D01*
X107003368Y-59171525D01*
X106796525Y-59378368D01*
X106634010Y-59621589D01*
X106522068Y-59891842D01*
X106465000Y-60178740D01*
X106465000Y-60471260D01*
X106522068Y-60758158D01*
X106634010Y-61028411D01*
X106796525Y-61271632D01*
X107003368Y-61478475D01*
X107177760Y-61595000D01*
X107003368Y-61711525D01*
X106796525Y-61918368D01*
X106634010Y-62161589D01*
X106522068Y-62431842D01*
X106465000Y-62718740D01*
X106465000Y-63011260D01*
X106522068Y-63298158D01*
X106634010Y-63568411D01*
X106796525Y-63811632D01*
X106928380Y-63943487D01*
X106855820Y-63965498D01*
X106745506Y-64024463D01*
X106648815Y-64103815D01*
X106569463Y-64200506D01*
X106510498Y-64310820D01*
X106474188Y-64430518D01*
X106461928Y-64555000D01*
X105435000Y-64555000D01*
X105435000Y-58452279D01*
X105473909Y-58055455D01*
X105579780Y-57704792D01*
X105751744Y-57381375D01*
X105983254Y-57097516D01*
X106265486Y-56864035D01*
X106587695Y-56689817D01*
X106937614Y-56581498D01*
X107113686Y-56562992D01*
X107068645Y-56589822D01*
X106852412Y-56784731D01*
X106678359Y-57018080D01*
X106553175Y-57280901D01*
X106508524Y-57428110D01*
X106629845Y-57658000D01*
X107823000Y-57658000D01*
X107823000Y-57638000D01*
X108077000Y-57638000D01*
X108077000Y-57658000D01*
X109270155Y-57658000D01*
X109391476Y-57428110D01*
X109346825Y-57280901D01*
X109221641Y-57018080D01*
X109047588Y-56784731D01*
X108831355Y-56589822D01*
X108747715Y-56540000D01*
X132682721Y-56540000D01*
X133079545Y-56578909D01*
G36*
X113299731Y-89707412D02*
G01*
X113104822Y-89923645D01*
X112955843Y-90173748D01*
X112858519Y-90448109D01*
X112979186Y-90678000D01*
X114173000Y-90678000D01*
X114173000Y-90658000D01*
X114427000Y-90658000D01*
X114427000Y-90678000D01*
X114447000Y-90678000D01*
X114447000Y-90932000D01*
X114427000Y-90932000D01*
X114427000Y-92125155D01*
X114656890Y-92246476D01*
X114804099Y-92201825D01*
X115066920Y-92076641D01*
X115300269Y-91902588D01*
X115443000Y-91744242D01*
X115443000Y-92684131D01*
X114020131Y-94107000D01*
X112522000Y-94107000D01*
X112497224Y-94109440D01*
X112473399Y-94116667D01*
X112451443Y-94128403D01*
X112432197Y-94144197D01*
X112416403Y-94163443D01*
X112404667Y-94185399D01*
X112397440Y-94209224D01*
X112395000Y-94234000D01*
X112395000Y-95732131D01*
X111960579Y-96166552D01*
X111928709Y-96192707D01*
X111843531Y-96296498D01*
X111824364Y-96319853D01*
X111797077Y-96370903D01*
X111626821Y-96300381D01*
X111378561Y-96251000D01*
X111125439Y-96251000D01*
X110877179Y-96300381D01*
X110643324Y-96397247D01*
X110432860Y-96537875D01*
X110253875Y-96716860D01*
X110113247Y-96927324D01*
X110016381Y-97161179D01*
X109967000Y-97409439D01*
X109967000Y-97662561D01*
X110016381Y-97910821D01*
X110113247Y-98144676D01*
X110253875Y-98355140D01*
X110432860Y-98534125D01*
X110643324Y-98674753D01*
X110877179Y-98771619D01*
X111125439Y-98821000D01*
X111237000Y-98821000D01*
X111237000Y-98932561D01*
X111286381Y-99180821D01*
X111383247Y-99414676D01*
X111523875Y-99625140D01*
X111687000Y-99788265D01*
X111687001Y-101050972D01*
X111682960Y-101092000D01*
X111683772Y-101100247D01*
X111650147Y-101181426D01*
X111595000Y-101458665D01*
X111595000Y-101741335D01*
X111650147Y-102018574D01*
X111758320Y-102279727D01*
X111915363Y-102514759D01*
X112115241Y-102714637D01*
X112350273Y-102871680D01*
X112395000Y-102890207D01*
X112395000Y-103481397D01*
X112288486Y-103538329D01*
X112216903Y-103782298D01*
X112395000Y-103960395D01*
X112395000Y-104319605D01*
X112037298Y-103961903D01*
X111793329Y-104033486D01*
X111672429Y-104288996D01*
X111603700Y-104563184D01*
X111589783Y-104845512D01*
X111631213Y-105125130D01*
X111726397Y-105391292D01*
X111793329Y-105516514D01*
X112037298Y-105588097D01*
X112395000Y-105230395D01*
X112395000Y-105589605D01*
X112216903Y-105767702D01*
X112288486Y-106011671D01*
X112395000Y-106062070D01*
X112395000Y-108204000D01*
X112397440Y-108228776D01*
X112404667Y-108252601D01*
X112416330Y-108274447D01*
X114205582Y-110958325D01*
X113949870Y-110996213D01*
X113683708Y-111091397D01*
X113558486Y-111158329D01*
X113486903Y-111402298D01*
X114300000Y-112215395D01*
X114314143Y-112201253D01*
X114493748Y-112380858D01*
X114479605Y-112395000D01*
X115292702Y-113208097D01*
X115536671Y-113136514D01*
X115609861Y-112981834D01*
X116209575Y-113838569D01*
X116257836Y-114251805D01*
X116077497Y-114165804D01*
X115793801Y-114093777D01*
X115501504Y-114078481D01*
X115211839Y-114120503D01*
X114935938Y-114218229D01*
X114798310Y-114291793D01*
X114720565Y-114540960D01*
X115570000Y-115390395D01*
X115584143Y-115376253D01*
X115763748Y-115555858D01*
X115749605Y-115570000D01*
X115763748Y-115584143D01*
X115584143Y-115763748D01*
X115570000Y-115749605D01*
X114720565Y-116599040D01*
X114798310Y-116848207D01*
X115062503Y-116974196D01*
X115346199Y-117046223D01*
X115638496Y-117061519D01*
X115928161Y-117019497D01*
X116204062Y-116921771D01*
X116341690Y-116848207D01*
X116419434Y-116599042D01*
X116535535Y-116715143D01*
X116544481Y-116706197D01*
X116596534Y-117151903D01*
X116506898Y-117114774D01*
X116306939Y-117075000D01*
X116103061Y-117075000D01*
X115903102Y-117114774D01*
X115714744Y-117192795D01*
X115545226Y-117306063D01*
X115401063Y-117450226D01*
X115287795Y-117619744D01*
X115209774Y-117808102D01*
X115180918Y-117953170D01*
X115136351Y-117916822D01*
X115086540Y-117883728D01*
X115037168Y-117849922D01*
X115029062Y-117845539D01*
X114700790Y-117670994D01*
X114645489Y-117648201D01*
X114590504Y-117624634D01*
X114581700Y-117621909D01*
X114225778Y-117514449D01*
X114167078Y-117502826D01*
X114108584Y-117490393D01*
X114099422Y-117489430D01*
X114099420Y-117489430D01*
X113729404Y-117453150D01*
X113729402Y-117453150D01*
X113697419Y-117450000D01*
X107347279Y-117450000D01*
X106950455Y-117411091D01*
X106599794Y-117305220D01*
X106276377Y-117133257D01*
X105992518Y-116901748D01*
X105759035Y-116619514D01*
X105584816Y-116297304D01*
X105476498Y-115947385D01*
X105435000Y-115552557D01*
X105435000Y-114808000D01*
X111541028Y-114808000D01*
X111541028Y-116332000D01*
X111553288Y-116456482D01*
X111589598Y-116576180D01*
X111648563Y-116686494D01*
X111727915Y-116783185D01*
X111824606Y-116862537D01*
X111934920Y-116921502D01*
X112054618Y-116957812D01*
X112179100Y-116970072D01*
X113880900Y-116970072D01*
X114005382Y-116957812D01*
X114125080Y-116921502D01*
X114235394Y-116862537D01*
X114332085Y-116783185D01*
X114411437Y-116686494D01*
X114470402Y-116576180D01*
X114506712Y-116456482D01*
X114511273Y-116410172D01*
X114540960Y-116419435D01*
X115390395Y-115570000D01*
X114540960Y-114720565D01*
X114511273Y-114729828D01*
X114506712Y-114683518D01*
X114470402Y-114563820D01*
X114411437Y-114453506D01*
X114332085Y-114356815D01*
X114235394Y-114277463D01*
X114125080Y-114218498D01*
X114005382Y-114182188D01*
X113880900Y-114169928D01*
X112179100Y-114169928D01*
X112054618Y-114182188D01*
X111934920Y-114218498D01*
X111824606Y-114277463D01*
X111727915Y-114356815D01*
X111648563Y-114453506D01*
X111589598Y-114563820D01*
X111553288Y-114683518D01*
X111541028Y-114808000D01*
X105435000Y-114808000D01*
X105435000Y-113387702D01*
X113486903Y-113387702D01*
X113558486Y-113631671D01*
X113813996Y-113752571D01*
X114088184Y-113821300D01*
X114370512Y-113835217D01*
X114650130Y-113793787D01*
X114916292Y-113698603D01*
X115041514Y-113631671D01*
X115113097Y-113387702D01*
X114300000Y-112574605D01*
X113486903Y-113387702D01*
X105435000Y-113387702D01*
X105435000Y-110255098D01*
X105565000Y-110255098D01*
X105565000Y-110724902D01*
X105656654Y-111185679D01*
X105836440Y-111619721D01*
X106097450Y-112010349D01*
X106429651Y-112342550D01*
X106820279Y-112603560D01*
X107254321Y-112783346D01*
X107715098Y-112875000D01*
X108184902Y-112875000D01*
X108645679Y-112783346D01*
X109079721Y-112603560D01*
X109286323Y-112465512D01*
X112859783Y-112465512D01*
X112901213Y-112745130D01*
X112996397Y-113011292D01*
X113063329Y-113136514D01*
X113307298Y-113208097D01*
X114120395Y-112395000D01*
X113307298Y-111581903D01*
X113063329Y-111653486D01*
X112942429Y-111908996D01*
X112873700Y-112183184D01*
X112859783Y-112465512D01*
X109286323Y-112465512D01*
X109470349Y-112342550D01*
X109802550Y-112010349D01*
X110063560Y-111619721D01*
X110243346Y-111185679D01*
X110335000Y-110724902D01*
X110335000Y-110255098D01*
X110286588Y-110011714D01*
X110560512Y-110025217D01*
X110840130Y-109983787D01*
X111106292Y-109888603D01*
X111231514Y-109821671D01*
X111303097Y-109577702D01*
X110490000Y-108764605D01*
X110475858Y-108778748D01*
X110296253Y-108599143D01*
X110310395Y-108585000D01*
X110669605Y-108585000D01*
X111482702Y-109398097D01*
X111726671Y-109326514D01*
X111847571Y-109071004D01*
X111916300Y-108796816D01*
X111930217Y-108514488D01*
X111888787Y-108234870D01*
X111793603Y-107968708D01*
X111726671Y-107843486D01*
X111482702Y-107771903D01*
X110669605Y-108585000D01*
X110310395Y-108585000D01*
X109497298Y-107771903D01*
X109253329Y-107843486D01*
X109132429Y-108098996D01*
X109064468Y-108370122D01*
X108645679Y-108196654D01*
X108184902Y-108105000D01*
X107715098Y-108105000D01*
X107254321Y-108196654D01*
X106820279Y-108376440D01*
X106429651Y-108637450D01*
X106097450Y-108969651D01*
X105836440Y-109360279D01*
X105656654Y-109794321D01*
X105565000Y-110255098D01*
X105435000Y-110255098D01*
X105435000Y-107592298D01*
X109676903Y-107592298D01*
X110490000Y-108405395D01*
X111303097Y-107592298D01*
X111231514Y-107348329D01*
X110976004Y-107227429D01*
X110701816Y-107158700D01*
X110419488Y-107144783D01*
X110139870Y-107186213D01*
X109873708Y-107281397D01*
X109748486Y-107348329D01*
X109676903Y-107592298D01*
X105435000Y-107592298D01*
X105435000Y-97575000D01*
X106461928Y-97575000D01*
X106461928Y-99275000D01*
X106474188Y-99399482D01*
X106510498Y-99519180D01*
X106569463Y-99629494D01*
X106648815Y-99726185D01*
X106745506Y-99805537D01*
X106855820Y-99864502D01*
X106975518Y-99900812D01*
X107100000Y-99913072D01*
X108800000Y-99913072D01*
X108924482Y-99900812D01*
X109044180Y-99864502D01*
X109154494Y-99805537D01*
X109251185Y-99726185D01*
X109330537Y-99629494D01*
X109389502Y-99519180D01*
X109425812Y-99399482D01*
X109438072Y-99275000D01*
X109438072Y-97575000D01*
X109425812Y-97450518D01*
X109389502Y-97330820D01*
X109330537Y-97220506D01*
X109251185Y-97123815D01*
X109154494Y-97044463D01*
X109044180Y-96985498D01*
X108971620Y-96963487D01*
X109103475Y-96831632D01*
X109265990Y-96588411D01*
X109377932Y-96318158D01*
X109435000Y-96031260D01*
X109435000Y-95738740D01*
X109377932Y-95451842D01*
X109265990Y-95181589D01*
X109103475Y-94938368D01*
X108896632Y-94731525D01*
X108722240Y-94615000D01*
X108896632Y-94498475D01*
X109103475Y-94291632D01*
X109265990Y-94048411D01*
X109377932Y-93778158D01*
X109435000Y-93491260D01*
X109435000Y-93198740D01*
X109377932Y-92911842D01*
X109265990Y-92641589D01*
X109103475Y-92398368D01*
X108896632Y-92191525D01*
X108714466Y-92069805D01*
X108831355Y-92000178D01*
X109047588Y-91805269D01*
X109221641Y-91571920D01*
X109346825Y-91309099D01*
X109391475Y-91161891D01*
X112858519Y-91161891D01*
X112955843Y-91436252D01*
X113104822Y-91686355D01*
X113299731Y-91902588D01*
X113533080Y-92076641D01*
X113795901Y-92201825D01*
X113943110Y-92246476D01*
X114173000Y-92125155D01*
X114173000Y-90932000D01*
X112979186Y-90932000D01*
X112858519Y-91161891D01*
X109391475Y-91161891D01*
X109391476Y-91161890D01*
X109270155Y-90932000D01*
X108077000Y-90932000D01*
X108077000Y-90952000D01*
X107823000Y-90952000D01*
X107823000Y-90932000D01*
X106629845Y-90932000D01*
X106508524Y-91161890D01*
X106553175Y-91309099D01*
X106678359Y-91571920D01*
X106852412Y-91805269D01*
X107068645Y-92000178D01*
X107185534Y-92069805D01*
X107003368Y-92191525D01*
X106796525Y-92398368D01*
X106634010Y-92641589D01*
X106522068Y-92911842D01*
X106465000Y-93198740D01*
X106465000Y-93491260D01*
X106522068Y-93778158D01*
X106634010Y-94048411D01*
X106796525Y-94291632D01*
X107003368Y-94498475D01*
X107177760Y-94615000D01*
X107003368Y-94731525D01*
X106796525Y-94938368D01*
X106634010Y-95181589D01*
X106522068Y-95451842D01*
X106465000Y-95738740D01*
X106465000Y-96031260D01*
X106522068Y-96318158D01*
X106634010Y-96588411D01*
X106796525Y-96831632D01*
X106928380Y-96963487D01*
X106855820Y-96985498D01*
X106745506Y-97044463D01*
X106648815Y-97123815D01*
X106569463Y-97220506D01*
X106510498Y-97330820D01*
X106474188Y-97450518D01*
X106461928Y-97575000D01*
X105435000Y-97575000D01*
X105435000Y-91472279D01*
X105473909Y-91075455D01*
X105579780Y-90724792D01*
X105751744Y-90401375D01*
X105983254Y-90117516D01*
X106265486Y-89884035D01*
X106587695Y-89709817D01*
X106937614Y-89601498D01*
X107113686Y-89582992D01*
X107068645Y-89609822D01*
X106852412Y-89804731D01*
X106678359Y-90038080D01*
X106553175Y-90300901D01*
X106508524Y-90448110D01*
X106629845Y-90678000D01*
X107823000Y-90678000D01*
X107823000Y-90658000D01*
X108077000Y-90658000D01*
X108077000Y-90678000D01*
X109270155Y-90678000D01*
X109391476Y-90448110D01*
X109346825Y-90300901D01*
X109221641Y-90038080D01*
X109047588Y-89804731D01*
X108831355Y-89609822D01*
X108747715Y-89560000D01*
X113497363Y-89560000D01*
X113299731Y-89707412D01*
G37*
X113299731Y-89707412D02*
X113104822Y-89923645D01*
X112955843Y-90173748D01*
X112858519Y-90448109D01*
X112979186Y-90678000D01*
X114173000Y-90678000D01*
X114173000Y-90658000D01*
X114427000Y-90658000D01*
X114427000Y-90678000D01*
X114447000Y-90678000D01*
X114447000Y-90932000D01*
X114427000Y-90932000D01*
X114427000Y-92125155D01*
X114656890Y-92246476D01*
X114804099Y-92201825D01*
X115066920Y-92076641D01*
X115300269Y-91902588D01*
X115443000Y-91744242D01*
X115443000Y-92684131D01*
X114020131Y-94107000D01*
X112522000Y-94107000D01*
X112497224Y-94109440D01*
X112473399Y-94116667D01*
X112451443Y-94128403D01*
X112432197Y-94144197D01*
X112416403Y-94163443D01*
X112404667Y-94185399D01*
X112397440Y-94209224D01*
X112395000Y-94234000D01*
X112395000Y-95732131D01*
X111960579Y-96166552D01*
X111928709Y-96192707D01*
X111843531Y-96296498D01*
X111824364Y-96319853D01*
X111797077Y-96370903D01*
X111626821Y-96300381D01*
X111378561Y-96251000D01*
X111125439Y-96251000D01*
X110877179Y-96300381D01*
X110643324Y-96397247D01*
X110432860Y-96537875D01*
X110253875Y-96716860D01*
X110113247Y-96927324D01*
X110016381Y-97161179D01*
X109967000Y-97409439D01*
X109967000Y-97662561D01*
X110016381Y-97910821D01*
X110113247Y-98144676D01*
X110253875Y-98355140D01*
X110432860Y-98534125D01*
X110643324Y-98674753D01*
X110877179Y-98771619D01*
X111125439Y-98821000D01*
X111237000Y-98821000D01*
X111237000Y-98932561D01*
X111286381Y-99180821D01*
X111383247Y-99414676D01*
X111523875Y-99625140D01*
X111687000Y-99788265D01*
X111687001Y-101050972D01*
X111682960Y-101092000D01*
X111683772Y-101100247D01*
X111650147Y-101181426D01*
X111595000Y-101458665D01*
X111595000Y-101741335D01*
X111650147Y-102018574D01*
X111758320Y-102279727D01*
X111915363Y-102514759D01*
X112115241Y-102714637D01*
X112350273Y-102871680D01*
X112395000Y-102890207D01*
X112395000Y-103481397D01*
X112288486Y-103538329D01*
X112216903Y-103782298D01*
X112395000Y-103960395D01*
X112395000Y-104319605D01*
X112037298Y-103961903D01*
X111793329Y-104033486D01*
X111672429Y-104288996D01*
X111603700Y-104563184D01*
X111589783Y-104845512D01*
X111631213Y-105125130D01*
X111726397Y-105391292D01*
X111793329Y-105516514D01*
X112037298Y-105588097D01*
X112395000Y-105230395D01*
X112395000Y-105589605D01*
X112216903Y-105767702D01*
X112288486Y-106011671D01*
X112395000Y-106062070D01*
X112395000Y-108204000D01*
X112397440Y-108228776D01*
X112404667Y-108252601D01*
X112416330Y-108274447D01*
X114205582Y-110958325D01*
X113949870Y-110996213D01*
X113683708Y-111091397D01*
X113558486Y-111158329D01*
X113486903Y-111402298D01*
X114300000Y-112215395D01*
X114314143Y-112201253D01*
X114493748Y-112380858D01*
X114479605Y-112395000D01*
X115292702Y-113208097D01*
X115536671Y-113136514D01*
X115609861Y-112981834D01*
X116209575Y-113838569D01*
X116257836Y-114251805D01*
X116077497Y-114165804D01*
X115793801Y-114093777D01*
X115501504Y-114078481D01*
X115211839Y-114120503D01*
X114935938Y-114218229D01*
X114798310Y-114291793D01*
X114720565Y-114540960D01*
X115570000Y-115390395D01*
X115584143Y-115376253D01*
X115763748Y-115555858D01*
X115749605Y-115570000D01*
X115763748Y-115584143D01*
X115584143Y-115763748D01*
X115570000Y-115749605D01*
X114720565Y-116599040D01*
X114798310Y-116848207D01*
X115062503Y-116974196D01*
X115346199Y-117046223D01*
X115638496Y-117061519D01*
X115928161Y-117019497D01*
X116204062Y-116921771D01*
X116341690Y-116848207D01*
X116419434Y-116599042D01*
X116535535Y-116715143D01*
X116544481Y-116706197D01*
X116596534Y-117151903D01*
X116506898Y-117114774D01*
X116306939Y-117075000D01*
X116103061Y-117075000D01*
X115903102Y-117114774D01*
X115714744Y-117192795D01*
X115545226Y-117306063D01*
X115401063Y-117450226D01*
X115287795Y-117619744D01*
X115209774Y-117808102D01*
X115180918Y-117953170D01*
X115136351Y-117916822D01*
X115086540Y-117883728D01*
X115037168Y-117849922D01*
X115029062Y-117845539D01*
X114700790Y-117670994D01*
X114645489Y-117648201D01*
X114590504Y-117624634D01*
X114581700Y-117621909D01*
X114225778Y-117514449D01*
X114167078Y-117502826D01*
X114108584Y-117490393D01*
X114099422Y-117489430D01*
X114099420Y-117489430D01*
X113729404Y-117453150D01*
X113729402Y-117453150D01*
X113697419Y-117450000D01*
X107347279Y-117450000D01*
X106950455Y-117411091D01*
X106599794Y-117305220D01*
X106276377Y-117133257D01*
X105992518Y-116901748D01*
X105759035Y-116619514D01*
X105584816Y-116297304D01*
X105476498Y-115947385D01*
X105435000Y-115552557D01*
X105435000Y-114808000D01*
X111541028Y-114808000D01*
X111541028Y-116332000D01*
X111553288Y-116456482D01*
X111589598Y-116576180D01*
X111648563Y-116686494D01*
X111727915Y-116783185D01*
X111824606Y-116862537D01*
X111934920Y-116921502D01*
X112054618Y-116957812D01*
X112179100Y-116970072D01*
X113880900Y-116970072D01*
X114005382Y-116957812D01*
X114125080Y-116921502D01*
X114235394Y-116862537D01*
X114332085Y-116783185D01*
X114411437Y-116686494D01*
X114470402Y-116576180D01*
X114506712Y-116456482D01*
X114511273Y-116410172D01*
X114540960Y-116419435D01*
X115390395Y-115570000D01*
X114540960Y-114720565D01*
X114511273Y-114729828D01*
X114506712Y-114683518D01*
X114470402Y-114563820D01*
X114411437Y-114453506D01*
X114332085Y-114356815D01*
X114235394Y-114277463D01*
X114125080Y-114218498D01*
X114005382Y-114182188D01*
X113880900Y-114169928D01*
X112179100Y-114169928D01*
X112054618Y-114182188D01*
X111934920Y-114218498D01*
X111824606Y-114277463D01*
X111727915Y-114356815D01*
X111648563Y-114453506D01*
X111589598Y-114563820D01*
X111553288Y-114683518D01*
X111541028Y-114808000D01*
X105435000Y-114808000D01*
X105435000Y-113387702D01*
X113486903Y-113387702D01*
X113558486Y-113631671D01*
X113813996Y-113752571D01*
X114088184Y-113821300D01*
X114370512Y-113835217D01*
X114650130Y-113793787D01*
X114916292Y-113698603D01*
X115041514Y-113631671D01*
X115113097Y-113387702D01*
X114300000Y-112574605D01*
X113486903Y-113387702D01*
X105435000Y-113387702D01*
X105435000Y-110255098D01*
X105565000Y-110255098D01*
X105565000Y-110724902D01*
X105656654Y-111185679D01*
X105836440Y-111619721D01*
X106097450Y-112010349D01*
X106429651Y-112342550D01*
X106820279Y-112603560D01*
X107254321Y-112783346D01*
X107715098Y-112875000D01*
X108184902Y-112875000D01*
X108645679Y-112783346D01*
X109079721Y-112603560D01*
X109286323Y-112465512D01*
X112859783Y-112465512D01*
X112901213Y-112745130D01*
X112996397Y-113011292D01*
X113063329Y-113136514D01*
X113307298Y-113208097D01*
X114120395Y-112395000D01*
X113307298Y-111581903D01*
X113063329Y-111653486D01*
X112942429Y-111908996D01*
X112873700Y-112183184D01*
X112859783Y-112465512D01*
X109286323Y-112465512D01*
X109470349Y-112342550D01*
X109802550Y-112010349D01*
X110063560Y-111619721D01*
X110243346Y-111185679D01*
X110335000Y-110724902D01*
X110335000Y-110255098D01*
X110286588Y-110011714D01*
X110560512Y-110025217D01*
X110840130Y-109983787D01*
X111106292Y-109888603D01*
X111231514Y-109821671D01*
X111303097Y-109577702D01*
X110490000Y-108764605D01*
X110475858Y-108778748D01*
X110296253Y-108599143D01*
X110310395Y-108585000D01*
X110669605Y-108585000D01*
X111482702Y-109398097D01*
X111726671Y-109326514D01*
X111847571Y-109071004D01*
X111916300Y-108796816D01*
X111930217Y-108514488D01*
X111888787Y-108234870D01*
X111793603Y-107968708D01*
X111726671Y-107843486D01*
X111482702Y-107771903D01*
X110669605Y-108585000D01*
X110310395Y-108585000D01*
X109497298Y-107771903D01*
X109253329Y-107843486D01*
X109132429Y-108098996D01*
X109064468Y-108370122D01*
X108645679Y-108196654D01*
X108184902Y-108105000D01*
X107715098Y-108105000D01*
X107254321Y-108196654D01*
X106820279Y-108376440D01*
X106429651Y-108637450D01*
X106097450Y-108969651D01*
X105836440Y-109360279D01*
X105656654Y-109794321D01*
X105565000Y-110255098D01*
X105435000Y-110255098D01*
X105435000Y-107592298D01*
X109676903Y-107592298D01*
X110490000Y-108405395D01*
X111303097Y-107592298D01*
X111231514Y-107348329D01*
X110976004Y-107227429D01*
X110701816Y-107158700D01*
X110419488Y-107144783D01*
X110139870Y-107186213D01*
X109873708Y-107281397D01*
X109748486Y-107348329D01*
X109676903Y-107592298D01*
X105435000Y-107592298D01*
X105435000Y-97575000D01*
X106461928Y-97575000D01*
X106461928Y-99275000D01*
X106474188Y-99399482D01*
X106510498Y-99519180D01*
X106569463Y-99629494D01*
X106648815Y-99726185D01*
X106745506Y-99805537D01*
X106855820Y-99864502D01*
X106975518Y-99900812D01*
X107100000Y-99913072D01*
X108800000Y-99913072D01*
X108924482Y-99900812D01*
X109044180Y-99864502D01*
X109154494Y-99805537D01*
X109251185Y-99726185D01*
X109330537Y-99629494D01*
X109389502Y-99519180D01*
X109425812Y-99399482D01*
X109438072Y-99275000D01*
X109438072Y-97575000D01*
X109425812Y-97450518D01*
X109389502Y-97330820D01*
X109330537Y-97220506D01*
X109251185Y-97123815D01*
X109154494Y-97044463D01*
X109044180Y-96985498D01*
X108971620Y-96963487D01*
X109103475Y-96831632D01*
X109265990Y-96588411D01*
X109377932Y-96318158D01*
X109435000Y-96031260D01*
X109435000Y-95738740D01*
X109377932Y-95451842D01*
X109265990Y-95181589D01*
X109103475Y-94938368D01*
X108896632Y-94731525D01*
X108722240Y-94615000D01*
X108896632Y-94498475D01*
X109103475Y-94291632D01*
X109265990Y-94048411D01*
X109377932Y-93778158D01*
X109435000Y-93491260D01*
X109435000Y-93198740D01*
X109377932Y-92911842D01*
X109265990Y-92641589D01*
X109103475Y-92398368D01*
X108896632Y-92191525D01*
X108714466Y-92069805D01*
X108831355Y-92000178D01*
X109047588Y-91805269D01*
X109221641Y-91571920D01*
X109346825Y-91309099D01*
X109391475Y-91161891D01*
X112858519Y-91161891D01*
X112955843Y-91436252D01*
X113104822Y-91686355D01*
X113299731Y-91902588D01*
X113533080Y-92076641D01*
X113795901Y-92201825D01*
X113943110Y-92246476D01*
X114173000Y-92125155D01*
X114173000Y-90932000D01*
X112979186Y-90932000D01*
X112858519Y-91161891D01*
X109391475Y-91161891D01*
X109391476Y-91161890D01*
X109270155Y-90932000D01*
X108077000Y-90932000D01*
X108077000Y-90952000D01*
X107823000Y-90952000D01*
X107823000Y-90932000D01*
X106629845Y-90932000D01*
X106508524Y-91161890D01*
X106553175Y-91309099D01*
X106678359Y-91571920D01*
X106852412Y-91805269D01*
X107068645Y-92000178D01*
X107185534Y-92069805D01*
X107003368Y-92191525D01*
X106796525Y-92398368D01*
X106634010Y-92641589D01*
X106522068Y-92911842D01*
X106465000Y-93198740D01*
X106465000Y-93491260D01*
X106522068Y-93778158D01*
X106634010Y-94048411D01*
X106796525Y-94291632D01*
X107003368Y-94498475D01*
X107177760Y-94615000D01*
X107003368Y-94731525D01*
X106796525Y-94938368D01*
X106634010Y-95181589D01*
X106522068Y-95451842D01*
X106465000Y-95738740D01*
X106465000Y-96031260D01*
X106522068Y-96318158D01*
X106634010Y-96588411D01*
X106796525Y-96831632D01*
X106928380Y-96963487D01*
X106855820Y-96985498D01*
X106745506Y-97044463D01*
X106648815Y-97123815D01*
X106569463Y-97220506D01*
X106510498Y-97330820D01*
X106474188Y-97450518D01*
X106461928Y-97575000D01*
X105435000Y-97575000D01*
X105435000Y-91472279D01*
X105473909Y-91075455D01*
X105579780Y-90724792D01*
X105751744Y-90401375D01*
X105983254Y-90117516D01*
X106265486Y-89884035D01*
X106587695Y-89709817D01*
X106937614Y-89601498D01*
X107113686Y-89582992D01*
X107068645Y-89609822D01*
X106852412Y-89804731D01*
X106678359Y-90038080D01*
X106553175Y-90300901D01*
X106508524Y-90448110D01*
X106629845Y-90678000D01*
X107823000Y-90678000D01*
X107823000Y-90658000D01*
X108077000Y-90658000D01*
X108077000Y-90678000D01*
X109270155Y-90678000D01*
X109391476Y-90448110D01*
X109346825Y-90300901D01*
X109221641Y-90038080D01*
X109047588Y-89804731D01*
X108831355Y-89609822D01*
X108747715Y-89560000D01*
X113497363Y-89560000D01*
X113299731Y-89707412D01*
M02*
