G04 #@! TF.GenerationSoftware,KiCad,Pcbnew,5.1.6*
G04 #@! TF.CreationDate,2021-12-18T09:42:17+01:00*
G04 #@! TF.ProjectId,co2_blep,636f325f-626c-4657-902e-6b696361645f,rev?*
G04 #@! TF.SameCoordinates,Original*
G04 #@! TF.FileFunction,Soldermask,Bot*
G04 #@! TF.FilePolarity,Negative*
%FSLAX46Y46*%
G04 Gerber Fmt 4.6, Leading zero omitted, Abs format (unit mm)*
G04 Created by KiCad (PCBNEW 5.1.6) date 2021-12-18 09:42:17*
%MOMM*%
%LPD*%
G01*
G04 APERTURE LIST*
%ADD10C,0.010000*%
%ADD11C,0.900000*%
%ADD12O,1.700000X1.700000*%
%ADD13C,1.700000*%
%ADD14O,1.800000X1.800000*%
%ADD15R,1.800000X1.800000*%
%ADD16R,1.400000X1.400000*%
%ADD17C,1.400000*%
%ADD18C,3.600000*%
%ADD19C,1.801800*%
%ADD20R,1.801800X1.624000*%
%ADD21R,1.801800X1.801800*%
%ADD22O,1.500000X1.500000*%
%ADD23C,1.500000*%
G04 APERTURE END LIST*
D10*
G36*
X122174356Y-132496919D02*
G01*
X122129680Y-132539744D01*
X122083080Y-132628483D01*
X122037309Y-132752799D01*
X121995119Y-132902355D01*
X121959264Y-133066814D01*
X121932494Y-133235839D01*
X121917563Y-133399093D01*
X121915429Y-133469333D01*
X121922923Y-133657628D01*
X121951830Y-133801884D01*
X122007046Y-133912034D01*
X122093463Y-133998011D01*
X122209777Y-134066765D01*
X122388658Y-134133228D01*
X122563386Y-134160424D01*
X122710548Y-134147684D01*
X122810944Y-134115225D01*
X122869145Y-134073251D01*
X122884423Y-134017297D01*
X122856051Y-133942897D01*
X122783299Y-133845587D01*
X122665441Y-133720900D01*
X122636289Y-133692184D01*
X122494924Y-133546770D01*
X122393554Y-133420207D01*
X122326251Y-133298525D01*
X122287089Y-133167756D01*
X122270139Y-133013929D01*
X122269367Y-132827371D01*
X122270270Y-132675146D01*
X122262832Y-132572539D01*
X122245198Y-132513094D01*
X122215513Y-132490357D01*
X122174356Y-132496919D01*
G37*
X122174356Y-132496919D02*
X122129680Y-132539744D01*
X122083080Y-132628483D01*
X122037309Y-132752799D01*
X121995119Y-132902355D01*
X121959264Y-133066814D01*
X121932494Y-133235839D01*
X121917563Y-133399093D01*
X121915429Y-133469333D01*
X121922923Y-133657628D01*
X121951830Y-133801884D01*
X122007046Y-133912034D01*
X122093463Y-133998011D01*
X122209777Y-134066765D01*
X122388658Y-134133228D01*
X122563386Y-134160424D01*
X122710548Y-134147684D01*
X122810944Y-134115225D01*
X122869145Y-134073251D01*
X122884423Y-134017297D01*
X122856051Y-133942897D01*
X122783299Y-133845587D01*
X122665441Y-133720900D01*
X122636289Y-133692184D01*
X122494924Y-133546770D01*
X122393554Y-133420207D01*
X122326251Y-133298525D01*
X122287089Y-133167756D01*
X122270139Y-133013929D01*
X122269367Y-132827371D01*
X122270270Y-132675146D01*
X122262832Y-132572539D01*
X122245198Y-132513094D01*
X122215513Y-132490357D01*
X122174356Y-132496919D01*
G36*
X123245014Y-131546745D02*
G01*
X123006410Y-131638500D01*
X122795214Y-131779003D01*
X122681122Y-131887648D01*
X122576735Y-132009539D01*
X122482713Y-132136189D01*
X122405550Y-132257092D01*
X122351744Y-132361740D01*
X122327790Y-132439625D01*
X122327745Y-132459224D01*
X122362191Y-132511957D01*
X122443178Y-132559595D01*
X122560920Y-132600745D01*
X122705637Y-132634015D01*
X122867543Y-132658015D01*
X123036857Y-132671352D01*
X123203795Y-132672634D01*
X123358574Y-132660471D01*
X123491411Y-132633470D01*
X123510570Y-132627483D01*
X123721956Y-132529659D01*
X123928850Y-132379805D01*
X124126064Y-132182330D01*
X124296483Y-131959444D01*
X124370903Y-131841739D01*
X124407724Y-131755398D01*
X124403255Y-131692436D01*
X124353805Y-131644865D01*
X124255681Y-131604699D01*
X124114777Y-131566315D01*
X123800247Y-131510417D01*
X123509976Y-131503972D01*
X123245014Y-131546745D01*
G37*
X123245014Y-131546745D02*
X123006410Y-131638500D01*
X122795214Y-131779003D01*
X122681122Y-131887648D01*
X122576735Y-132009539D01*
X122482713Y-132136189D01*
X122405550Y-132257092D01*
X122351744Y-132361740D01*
X122327790Y-132439625D01*
X122327745Y-132459224D01*
X122362191Y-132511957D01*
X122443178Y-132559595D01*
X122560920Y-132600745D01*
X122705637Y-132634015D01*
X122867543Y-132658015D01*
X123036857Y-132671352D01*
X123203795Y-132672634D01*
X123358574Y-132660471D01*
X123491411Y-132633470D01*
X123510570Y-132627483D01*
X123721956Y-132529659D01*
X123928850Y-132379805D01*
X124126064Y-132182330D01*
X124296483Y-131959444D01*
X124370903Y-131841739D01*
X124407724Y-131755398D01*
X124403255Y-131692436D01*
X124353805Y-131644865D01*
X124255681Y-131604699D01*
X124114777Y-131566315D01*
X123800247Y-131510417D01*
X123509976Y-131503972D01*
X123245014Y-131546745D01*
G36*
X120795859Y-130676970D02*
G01*
X120792534Y-130678615D01*
X120765290Y-130697251D01*
X120749624Y-130725322D01*
X120743886Y-130774993D01*
X120746425Y-130858430D01*
X120753795Y-130964136D01*
X120794613Y-131273583D01*
X120868316Y-131539276D01*
X120977086Y-131764820D01*
X121123103Y-131953823D01*
X121308548Y-132109894D01*
X121518333Y-132228656D01*
X121653662Y-132285773D01*
X121801769Y-132338528D01*
X121933203Y-132376545D01*
X121947238Y-132379799D01*
X122066370Y-132405808D01*
X122142210Y-132419574D01*
X122186467Y-132421529D01*
X122210851Y-132412103D01*
X122227072Y-132391730D01*
X122228053Y-132390151D01*
X122241570Y-132334988D01*
X122246018Y-132238202D01*
X122242319Y-132113720D01*
X122231398Y-131975471D01*
X122214177Y-131837385D01*
X122191581Y-131713389D01*
X122180073Y-131666514D01*
X122106097Y-131465156D01*
X122001759Y-131278448D01*
X121877376Y-131123455D01*
X121819690Y-131070309D01*
X121708594Y-130991209D01*
X121571642Y-130912640D01*
X121419350Y-130838614D01*
X121262234Y-130773140D01*
X121110811Y-130720228D01*
X120975597Y-130683889D01*
X120867107Y-130668133D01*
X120795859Y-130676970D01*
G37*
X120795859Y-130676970D02*
X120792534Y-130678615D01*
X120765290Y-130697251D01*
X120749624Y-130725322D01*
X120743886Y-130774993D01*
X120746425Y-130858430D01*
X120753795Y-130964136D01*
X120794613Y-131273583D01*
X120868316Y-131539276D01*
X120977086Y-131764820D01*
X121123103Y-131953823D01*
X121308548Y-132109894D01*
X121518333Y-132228656D01*
X121653662Y-132285773D01*
X121801769Y-132338528D01*
X121933203Y-132376545D01*
X121947238Y-132379799D01*
X122066370Y-132405808D01*
X122142210Y-132419574D01*
X122186467Y-132421529D01*
X122210851Y-132412103D01*
X122227072Y-132391730D01*
X122228053Y-132390151D01*
X122241570Y-132334988D01*
X122246018Y-132238202D01*
X122242319Y-132113720D01*
X122231398Y-131975471D01*
X122214177Y-131837385D01*
X122191581Y-131713389D01*
X122180073Y-131666514D01*
X122106097Y-131465156D01*
X122001759Y-131278448D01*
X121877376Y-131123455D01*
X121819690Y-131070309D01*
X121708594Y-130991209D01*
X121571642Y-130912640D01*
X121419350Y-130838614D01*
X121262234Y-130773140D01*
X121110811Y-130720228D01*
X120975597Y-130683889D01*
X120867107Y-130668133D01*
X120795859Y-130676970D01*
G36*
X122545398Y-131288024D02*
G01*
X122542800Y-131290577D01*
X122480270Y-131318606D01*
X122387512Y-131321163D01*
X122284858Y-131297876D01*
X122278256Y-131295432D01*
X122211167Y-131276769D01*
X122189032Y-131291271D01*
X122209339Y-131341559D01*
X122218990Y-131357273D01*
X122245732Y-131416805D01*
X122277056Y-131512129D01*
X122306600Y-131623665D01*
X122309196Y-131634889D01*
X122335369Y-131749528D01*
X122359013Y-131852839D01*
X122375324Y-131923832D01*
X122376192Y-131927588D01*
X122394927Y-132008620D01*
X122496361Y-131885254D01*
X122577741Y-131796885D01*
X122677947Y-131702250D01*
X122741322Y-131649000D01*
X122815209Y-131588434D01*
X122826197Y-131578444D01*
X122614728Y-131578444D01*
X122546893Y-131650651D01*
X122479059Y-131722857D01*
X122461887Y-131657706D01*
X122441448Y-131578435D01*
X122425487Y-131514944D01*
X122422394Y-131454592D01*
X122449866Y-131437730D01*
X122502086Y-131464693D01*
X122548444Y-131507889D01*
X122614728Y-131578444D01*
X122826197Y-131578444D01*
X122867419Y-131540969D01*
X122885979Y-131518085D01*
X122862037Y-131501973D01*
X122801181Y-131484439D01*
X122781277Y-131480419D01*
X122669314Y-131443087D01*
X122598750Y-131383371D01*
X122576666Y-131314426D01*
X122570123Y-131276189D01*
X122545398Y-131288024D01*
G37*
X122545398Y-131288024D02*
X122542800Y-131290577D01*
X122480270Y-131318606D01*
X122387512Y-131321163D01*
X122284858Y-131297876D01*
X122278256Y-131295432D01*
X122211167Y-131276769D01*
X122189032Y-131291271D01*
X122209339Y-131341559D01*
X122218990Y-131357273D01*
X122245732Y-131416805D01*
X122277056Y-131512129D01*
X122306600Y-131623665D01*
X122309196Y-131634889D01*
X122335369Y-131749528D01*
X122359013Y-131852839D01*
X122375324Y-131923832D01*
X122376192Y-131927588D01*
X122394927Y-132008620D01*
X122496361Y-131885254D01*
X122577741Y-131796885D01*
X122677947Y-131702250D01*
X122741322Y-131649000D01*
X122815209Y-131588434D01*
X122826197Y-131578444D01*
X122614728Y-131578444D01*
X122546893Y-131650651D01*
X122479059Y-131722857D01*
X122461887Y-131657706D01*
X122441448Y-131578435D01*
X122425487Y-131514944D01*
X122422394Y-131454592D01*
X122449866Y-131437730D01*
X122502086Y-131464693D01*
X122548444Y-131507889D01*
X122614728Y-131578444D01*
X122826197Y-131578444D01*
X122867419Y-131540969D01*
X122885979Y-131518085D01*
X122862037Y-131501973D01*
X122801181Y-131484439D01*
X122781277Y-131480419D01*
X122669314Y-131443087D01*
X122598750Y-131383371D01*
X122576666Y-131314426D01*
X122570123Y-131276189D01*
X122545398Y-131288024D01*
G36*
X123969255Y-130182224D02*
G01*
X123837410Y-130185380D01*
X123738417Y-130192138D01*
X123660486Y-130203725D01*
X123591829Y-130221366D01*
X123520655Y-130246288D01*
X123520095Y-130246500D01*
X123302628Y-130359144D01*
X123108129Y-130522884D01*
X122937394Y-130736909D01*
X122800997Y-130979607D01*
X122740486Y-131113920D01*
X122707339Y-131208087D01*
X122699668Y-131270239D01*
X122715585Y-131308501D01*
X122723019Y-131315279D01*
X122787898Y-131343732D01*
X122896026Y-131367690D01*
X123034320Y-131386210D01*
X123189697Y-131398350D01*
X123349072Y-131403167D01*
X123499363Y-131399719D01*
X123627486Y-131387064D01*
X123654443Y-131382366D01*
X123859534Y-131315479D01*
X124060822Y-131198638D01*
X124250862Y-131038216D01*
X124422205Y-130840586D01*
X124567405Y-130612121D01*
X124578081Y-130591910D01*
X124643430Y-130461355D01*
X124683085Y-130361835D01*
X124692624Y-130289155D01*
X124667627Y-130239117D01*
X124603675Y-130207523D01*
X124496345Y-130190179D01*
X124341218Y-130182885D01*
X124145744Y-130181444D01*
X123969255Y-130182224D01*
G37*
X123969255Y-130182224D02*
X123837410Y-130185380D01*
X123738417Y-130192138D01*
X123660486Y-130203725D01*
X123591829Y-130221366D01*
X123520655Y-130246288D01*
X123520095Y-130246500D01*
X123302628Y-130359144D01*
X123108129Y-130522884D01*
X122937394Y-130736909D01*
X122800997Y-130979607D01*
X122740486Y-131113920D01*
X122707339Y-131208087D01*
X122699668Y-131270239D01*
X122715585Y-131308501D01*
X122723019Y-131315279D01*
X122787898Y-131343732D01*
X122896026Y-131367690D01*
X123034320Y-131386210D01*
X123189697Y-131398350D01*
X123349072Y-131403167D01*
X123499363Y-131399719D01*
X123627486Y-131387064D01*
X123654443Y-131382366D01*
X123859534Y-131315479D01*
X124060822Y-131198638D01*
X124250862Y-131038216D01*
X124422205Y-130840586D01*
X124567405Y-130612121D01*
X124578081Y-130591910D01*
X124643430Y-130461355D01*
X124683085Y-130361835D01*
X124692624Y-130289155D01*
X124667627Y-130239117D01*
X124603675Y-130207523D01*
X124496345Y-130190179D01*
X124341218Y-130182885D01*
X124145744Y-130181444D01*
X123969255Y-130182224D01*
G36*
X121244766Y-129314533D02*
G01*
X121209845Y-129375433D01*
X121190029Y-129483718D01*
X121181113Y-129584351D01*
X121182315Y-129864788D01*
X121225368Y-130133998D01*
X121307461Y-130381110D01*
X121425783Y-130595251D01*
X121451570Y-130630582D01*
X121562505Y-130747251D01*
X121713909Y-130866187D01*
X121891013Y-130978056D01*
X122079047Y-131073528D01*
X122262877Y-131143161D01*
X122375691Y-131173238D01*
X122447182Y-131180287D01*
X122487616Y-131164183D01*
X122502494Y-131140249D01*
X122519589Y-131064569D01*
X122531852Y-130949396D01*
X122538700Y-130811524D01*
X122539549Y-130667744D01*
X122533815Y-130534850D01*
X122526111Y-130461053D01*
X122464702Y-130211005D01*
X122354173Y-129985699D01*
X122193845Y-129784390D01*
X121983037Y-129606332D01*
X121721067Y-129450776D01*
X121523916Y-129361739D01*
X121393424Y-129313126D01*
X121303166Y-129295577D01*
X121244766Y-129314533D01*
G37*
X121244766Y-129314533D02*
X121209845Y-129375433D01*
X121190029Y-129483718D01*
X121181113Y-129584351D01*
X121182315Y-129864788D01*
X121225368Y-130133998D01*
X121307461Y-130381110D01*
X121425783Y-130595251D01*
X121451570Y-130630582D01*
X121562505Y-130747251D01*
X121713909Y-130866187D01*
X121891013Y-130978056D01*
X122079047Y-131073528D01*
X122262877Y-131143161D01*
X122375691Y-131173238D01*
X122447182Y-131180287D01*
X122487616Y-131164183D01*
X122502494Y-131140249D01*
X122519589Y-131064569D01*
X122531852Y-130949396D01*
X122538700Y-130811524D01*
X122539549Y-130667744D01*
X122533815Y-130534850D01*
X122526111Y-130461053D01*
X122464702Y-130211005D01*
X122354173Y-129985699D01*
X122193845Y-129784390D01*
X121983037Y-129606332D01*
X121721067Y-129450776D01*
X121523916Y-129361739D01*
X121393424Y-129313126D01*
X121303166Y-129295577D01*
X121244766Y-129314533D01*
G36*
X122638378Y-130012618D02*
G01*
X122572329Y-130013943D01*
X122548426Y-130015720D01*
X122558178Y-130041275D01*
X122582563Y-130100885D01*
X122593070Y-130126133D01*
X122615327Y-130206477D01*
X122635309Y-130329575D01*
X122651026Y-130481739D01*
X122656570Y-130562809D01*
X122675444Y-130892680D01*
X122788333Y-130710929D01*
X122870487Y-130594701D01*
X122972966Y-130471541D01*
X123063500Y-130377967D01*
X123139833Y-130304994D01*
X123196872Y-130246950D01*
X123224598Y-130214134D01*
X123225777Y-130211156D01*
X123201296Y-130199999D01*
X123144917Y-130195555D01*
X123072540Y-130179800D01*
X122997280Y-130140945D01*
X122938427Y-130091608D01*
X122915259Y-130045340D01*
X122887489Y-130024592D01*
X122804600Y-130013788D01*
X122731796Y-130012111D01*
X122638378Y-130012618D01*
G37*
X122638378Y-130012618D02*
X122572329Y-130013943D01*
X122548426Y-130015720D01*
X122558178Y-130041275D01*
X122582563Y-130100885D01*
X122593070Y-130126133D01*
X122615327Y-130206477D01*
X122635309Y-130329575D01*
X122651026Y-130481739D01*
X122656570Y-130562809D01*
X122675444Y-130892680D01*
X122788333Y-130710929D01*
X122870487Y-130594701D01*
X122972966Y-130471541D01*
X123063500Y-130377967D01*
X123139833Y-130304994D01*
X123196872Y-130246950D01*
X123224598Y-130214134D01*
X123225777Y-130211156D01*
X123201296Y-130199999D01*
X123144917Y-130195555D01*
X123072540Y-130179800D01*
X122997280Y-130140945D01*
X122938427Y-130091608D01*
X122915259Y-130045340D01*
X122887489Y-130024592D01*
X122804600Y-130013788D01*
X122731796Y-130012111D01*
X122638378Y-130012618D01*
G36*
X124259916Y-128770265D02*
G01*
X124007979Y-128811693D01*
X123793754Y-128882965D01*
X123610985Y-128986126D01*
X123462523Y-129113741D01*
X123318254Y-129293516D01*
X123192512Y-129511343D01*
X123094285Y-129749641D01*
X123043771Y-129932665D01*
X123035491Y-129991666D01*
X123052824Y-130023530D01*
X123108708Y-130045782D01*
X123132216Y-130052452D01*
X123240550Y-130070591D01*
X123386093Y-130078760D01*
X123550547Y-130077260D01*
X123715620Y-130066394D01*
X123863016Y-130046463D01*
X123896023Y-130039869D01*
X124130595Y-129963365D01*
X124338036Y-129839934D01*
X124506863Y-129685931D01*
X124611481Y-129554375D01*
X124718444Y-129388395D01*
X124816216Y-129208276D01*
X124893263Y-129034307D01*
X124918626Y-128961748D01*
X124939073Y-128883264D01*
X124938915Y-128827673D01*
X124911290Y-128791096D01*
X124849334Y-128769654D01*
X124746188Y-128759467D01*
X124594987Y-128756655D01*
X124555822Y-128756639D01*
X124259916Y-128770265D01*
G37*
X124259916Y-128770265D02*
X124007979Y-128811693D01*
X123793754Y-128882965D01*
X123610985Y-128986126D01*
X123462523Y-129113741D01*
X123318254Y-129293516D01*
X123192512Y-129511343D01*
X123094285Y-129749641D01*
X123043771Y-129932665D01*
X123035491Y-129991666D01*
X123052824Y-130023530D01*
X123108708Y-130045782D01*
X123132216Y-130052452D01*
X123240550Y-130070591D01*
X123386093Y-130078760D01*
X123550547Y-130077260D01*
X123715620Y-130066394D01*
X123863016Y-130046463D01*
X123896023Y-130039869D01*
X124130595Y-129963365D01*
X124338036Y-129839934D01*
X124506863Y-129685931D01*
X124611481Y-129554375D01*
X124718444Y-129388395D01*
X124816216Y-129208276D01*
X124893263Y-129034307D01*
X124918626Y-128961748D01*
X124939073Y-128883264D01*
X124938915Y-128827673D01*
X124911290Y-128791096D01*
X124849334Y-128769654D01*
X124746188Y-128759467D01*
X124594987Y-128756655D01*
X124555822Y-128756639D01*
X124259916Y-128770265D01*
G36*
X121766430Y-127928947D02*
G01*
X121721117Y-127968411D01*
X121691695Y-128048256D01*
X121674640Y-128172933D01*
X121666428Y-128346892D01*
X121664309Y-128474000D01*
X121665386Y-128659042D01*
X121673813Y-128801067D01*
X121690731Y-128913159D01*
X121708601Y-128982000D01*
X121801783Y-129197113D01*
X121943148Y-129392690D01*
X122134711Y-129570813D01*
X122378483Y-129733569D01*
X122496102Y-129797424D01*
X122621639Y-129859878D01*
X122707715Y-129896243D01*
X122763906Y-129908380D01*
X122799790Y-129898151D01*
X122824943Y-129867417D01*
X122827970Y-129861927D01*
X122858513Y-129775328D01*
X122883690Y-129647653D01*
X122901726Y-129494155D01*
X122910844Y-129330088D01*
X122909268Y-129170705D01*
X122909021Y-129165852D01*
X122882696Y-128941963D01*
X122825161Y-128748980D01*
X122730452Y-128575974D01*
X122592601Y-128412012D01*
X122408220Y-128248222D01*
X122302422Y-128171377D01*
X122172102Y-128087661D01*
X122043880Y-128014090D01*
X122032942Y-128008333D01*
X121918819Y-127953359D01*
X121831156Y-127925413D01*
X121766430Y-127928947D01*
G37*
X121766430Y-127928947D02*
X121721117Y-127968411D01*
X121691695Y-128048256D01*
X121674640Y-128172933D01*
X121666428Y-128346892D01*
X121664309Y-128474000D01*
X121665386Y-128659042D01*
X121673813Y-128801067D01*
X121690731Y-128913159D01*
X121708601Y-128982000D01*
X121801783Y-129197113D01*
X121943148Y-129392690D01*
X122134711Y-129570813D01*
X122378483Y-129733569D01*
X122496102Y-129797424D01*
X122621639Y-129859878D01*
X122707715Y-129896243D01*
X122763906Y-129908380D01*
X122799790Y-129898151D01*
X122824943Y-129867417D01*
X122827970Y-129861927D01*
X122858513Y-129775328D01*
X122883690Y-129647653D01*
X122901726Y-129494155D01*
X122910844Y-129330088D01*
X122909268Y-129170705D01*
X122909021Y-129165852D01*
X122882696Y-128941963D01*
X122825161Y-128748980D01*
X122730452Y-128575974D01*
X122592601Y-128412012D01*
X122408220Y-128248222D01*
X122302422Y-128171377D01*
X122172102Y-128087661D01*
X122043880Y-128014090D01*
X122032942Y-128008333D01*
X121918819Y-127953359D01*
X121831156Y-127925413D01*
X121766430Y-127928947D01*
G36*
X123063909Y-129181551D02*
G01*
X123057153Y-129227024D01*
X123056444Y-129295099D01*
X123057737Y-129374701D01*
X123061036Y-129424655D01*
X123063500Y-129433338D01*
X123080357Y-129411184D01*
X123114512Y-129355655D01*
X123131219Y-129326841D01*
X123191884Y-129220561D01*
X123124164Y-129188602D01*
X123083862Y-129172492D01*
X123063909Y-129181551D01*
G37*
X123063909Y-129181551D02*
X123057153Y-129227024D01*
X123056444Y-129295099D01*
X123057737Y-129374701D01*
X123061036Y-129424655D01*
X123063500Y-129433338D01*
X123080357Y-129411184D01*
X123114512Y-129355655D01*
X123131219Y-129326841D01*
X123191884Y-129220561D01*
X123124164Y-129188602D01*
X123083862Y-129172492D01*
X123063909Y-129181551D01*
G36*
X123745583Y-126868697D02*
G01*
X123644763Y-126935418D01*
X123552570Y-127006475D01*
X123326599Y-127211513D01*
X123141752Y-127432752D01*
X123008358Y-127655555D01*
X122945526Y-127843115D01*
X122918319Y-128064331D01*
X122926276Y-128309455D01*
X122968939Y-128568740D01*
X123045847Y-128832436D01*
X123066430Y-128887781D01*
X123111680Y-128988273D01*
X123158533Y-129043662D01*
X123217069Y-129055881D01*
X123297365Y-129026857D01*
X123409502Y-128958522D01*
X123415386Y-128954602D01*
X123564506Y-128840590D01*
X123712567Y-128702053D01*
X123846212Y-128553356D01*
X123952084Y-128408867D01*
X123997619Y-128328320D01*
X124077435Y-128100207D01*
X124111452Y-127843690D01*
X124099812Y-127563162D01*
X124042655Y-127263017D01*
X123954664Y-126985738D01*
X123916074Y-126899685D01*
X123873513Y-126851229D01*
X123819258Y-126840766D01*
X123745583Y-126868697D01*
G37*
X123745583Y-126868697D02*
X123644763Y-126935418D01*
X123552570Y-127006475D01*
X123326599Y-127211513D01*
X123141752Y-127432752D01*
X123008358Y-127655555D01*
X122945526Y-127843115D01*
X122918319Y-128064331D01*
X122926276Y-128309455D01*
X122968939Y-128568740D01*
X123045847Y-128832436D01*
X123066430Y-128887781D01*
X123111680Y-128988273D01*
X123158533Y-129043662D01*
X123217069Y-129055881D01*
X123297365Y-129026857D01*
X123409502Y-128958522D01*
X123415386Y-128954602D01*
X123564506Y-128840590D01*
X123712567Y-128702053D01*
X123846212Y-128553356D01*
X123952084Y-128408867D01*
X123997619Y-128328320D01*
X124077435Y-128100207D01*
X124111452Y-127843690D01*
X124099812Y-127563162D01*
X124042655Y-127263017D01*
X123954664Y-126985738D01*
X123916074Y-126899685D01*
X123873513Y-126851229D01*
X123819258Y-126840766D01*
X123745583Y-126868697D01*
D11*
X120015000Y-118110000D03*
X118110000Y-85090000D03*
X123825000Y-118110000D03*
X123825000Y-85090000D03*
X118110000Y-88900000D03*
X116205000Y-118110000D03*
X121920000Y-118110000D03*
X121920000Y-85090000D03*
X116205000Y-85090000D03*
X123825000Y-121920000D03*
X116205000Y-121920000D03*
X118110000Y-118110000D03*
X123825000Y-88900000D03*
X120015000Y-85090000D03*
X120015000Y-121920000D03*
X121920000Y-121920000D03*
X120015000Y-88900000D03*
X116205000Y-88900000D03*
X118110000Y-121920000D03*
X121920000Y-88900000D03*
D12*
X113030000Y-101600000D03*
D13*
X123190000Y-101600000D03*
D14*
X125730000Y-149225000D03*
X123190000Y-149225000D03*
X120650000Y-149225000D03*
X118110000Y-149225000D03*
X115570000Y-149225000D03*
X113030000Y-149225000D03*
X110490000Y-149225000D03*
D15*
X107950000Y-149225000D03*
D16*
X131318000Y-96774000D03*
D17*
X133858000Y-96774000D03*
X132588000Y-95504000D03*
D16*
X119634000Y-94234000D03*
D17*
X117094000Y-94234000D03*
X118364000Y-95504000D03*
D14*
X107950000Y-57785000D03*
X107950000Y-60325000D03*
X107950000Y-62865000D03*
D15*
X107950000Y-65405000D03*
D14*
X107950000Y-90805000D03*
X107950000Y-93345000D03*
X107950000Y-95885000D03*
D15*
X107950000Y-98425000D03*
D18*
X132080000Y-77470000D03*
X132080000Y-148590000D03*
X107950000Y-77470000D03*
D19*
X133350000Y-115570000D03*
X130810000Y-115570000D03*
X128270000Y-115570000D03*
X125730000Y-115570000D03*
X123190000Y-115570000D03*
X120650000Y-115570000D03*
X118110000Y-115570000D03*
X115570000Y-115570000D03*
D20*
X113030000Y-115570000D03*
D19*
X123190000Y-146050000D03*
X120650000Y-146050000D03*
X118110000Y-146050000D03*
X115570000Y-146050000D03*
X113030000Y-146050000D03*
X110490000Y-146050000D03*
X107950000Y-138430000D03*
X107950000Y-135890000D03*
D21*
X107950000Y-133350000D03*
D22*
X130810000Y-144780000D03*
D23*
X133350000Y-144780000D03*
D22*
X122428000Y-93345000D03*
D23*
X122428000Y-95885000D03*
D16*
X113792000Y-97536000D03*
D17*
X111252000Y-97536000D03*
X112522000Y-98806000D03*
D19*
X122301000Y-69723000D03*
X120777000Y-71247000D03*
X119253000Y-69723000D03*
X117729000Y-71247000D03*
D13*
X114300000Y-112395000D03*
X119300000Y-112395000D03*
D19*
X110490000Y-133350000D03*
X130810000Y-133350000D03*
D12*
X123190000Y-104775000D03*
D13*
X113030000Y-104775000D03*
D12*
X120650000Y-108585000D03*
D13*
X110490000Y-108585000D03*
D12*
X114808000Y-61976000D03*
D13*
X124968000Y-61976000D03*
D12*
X111760000Y-75565000D03*
D13*
X111760000Y-65405000D03*
D12*
X124968000Y-78740000D03*
D13*
X114808000Y-78740000D03*
D12*
X128270000Y-113030000D03*
D13*
X128270000Y-102870000D03*
D14*
X114300000Y-90805000D03*
X116840000Y-90805000D03*
X119380000Y-90805000D03*
X121920000Y-90805000D03*
X124460000Y-90805000D03*
X127000000Y-90805000D03*
X129540000Y-90805000D03*
D15*
X132080000Y-90805000D03*
D18*
X132080000Y-124460000D03*
X107950000Y-110490000D03*
X132080000Y-129540000D03*
M02*
