M48
; DRILL file {KiCad 5.1.6} date Sat Dec 18 09:42:15 2021
; FORMAT={-:-/ absolute / metric / decimal}
; #@! TF.CreationDate,2021-12-18T09:42:15+01:00
; #@! TF.GenerationSoftware,Kicad,Pcbnew,5.1.6
; #@! TF.FileFunction,Plated,1,2,PTH
FMAT,2
METRIC
T1C0.700
T2C0.750
T3C0.800
T4C1.000
T5C1.016
T6C2.200
%
G90
G05
T1
X107.9Y-71.2
X117.1Y-101.5
X119.6Y-99.6
X119.6Y-103.2
X119.7Y-77.4
X121.9Y-111.3
X128.27Y-99.568
X128.3Y-71.2
X128.3Y-95.3
X132.6Y-99.6
X132.6Y-104.8
X132.6Y-113.0
X130.81Y-144.78
X133.35Y-144.78
X122.428Y-93.345
X122.428Y-95.885
T2
X111.252Y-97.536
X112.522Y-98.806
X113.792Y-97.536
X117.094Y-94.234
X118.364Y-95.504
X119.634Y-94.234
X131.318Y-96.774
X132.588Y-95.504
X133.858Y-96.774
T3
X113.03Y-101.6
X123.19Y-101.6
X114.808Y-61.976
X124.968Y-61.976
X114.3Y-112.395
X119.3Y-112.395
X128.27Y-102.87
X128.27Y-113.03
X110.49Y-108.585
X120.65Y-108.585
X111.76Y-65.405
X111.76Y-75.565
X114.808Y-78.74
X124.968Y-78.74
X113.03Y-104.775
X123.19Y-104.775
T4
X107.95Y-90.805
X107.95Y-93.345
X107.95Y-95.885
X107.95Y-98.425
X107.95Y-57.785
X107.95Y-60.325
X107.95Y-62.865
X107.95Y-65.405
X107.95Y-149.225
X110.49Y-149.225
X113.03Y-149.225
X115.57Y-149.225
X118.11Y-149.225
X120.65Y-149.225
X123.19Y-149.225
X125.73Y-149.225
X114.3Y-90.805
X116.84Y-90.805
X119.38Y-90.805
X121.92Y-90.805
X124.46Y-90.805
X127.0Y-90.805
X129.54Y-90.805
X132.08Y-90.805
T5
X117.729Y-71.247
X119.253Y-69.723
X120.777Y-71.247
X122.301Y-69.723
X110.49Y-133.35
X130.81Y-133.35
X113.03Y-115.57
X115.57Y-115.57
X118.11Y-115.57
X120.65Y-115.57
X123.19Y-115.57
X125.73Y-115.57
X128.27Y-115.57
X130.81Y-115.57
X133.35Y-115.57
X107.95Y-133.35
X107.95Y-135.89
X107.95Y-138.43
X110.49Y-146.05
X113.03Y-146.05
X115.57Y-146.05
X118.11Y-146.05
X120.65Y-146.05
X123.19Y-146.05
T6
X132.08Y-148.59
X132.08Y-124.46
X107.95Y-77.47
X132.08Y-77.47
X132.08Y-129.54
X107.95Y-110.49
T0
M30
