G04 #@! TF.GenerationSoftware,KiCad,Pcbnew,5.1.6*
G04 #@! TF.CreationDate,2021-12-18T09:42:17+01:00*
G04 #@! TF.ProjectId,co2_blep,636f325f-626c-4657-902e-6b696361645f,rev?*
G04 #@! TF.SameCoordinates,Original*
G04 #@! TF.FileFunction,Legend,Top*
G04 #@! TF.FilePolarity,Positive*
%FSLAX46Y46*%
G04 Gerber Fmt 4.6, Leading zero omitted, Abs format (unit mm)*
G04 Created by KiCad (PCBNEW 5.1.6) date 2021-12-18 09:42:17*
%MOMM*%
%LPD*%
G01*
G04 APERTURE LIST*
%ADD10C,0.150000*%
%ADD11C,0.010000*%
%ADD12C,0.120000*%
%ADD13C,0.900000*%
%ADD14O,1.700000X1.700000*%
%ADD15C,1.700000*%
%ADD16O,1.800000X1.800000*%
%ADD17R,1.800000X1.800000*%
%ADD18R,1.400000X1.400000*%
%ADD19C,1.400000*%
%ADD20C,3.600000*%
%ADD21C,1.801800*%
%ADD22R,1.801800X1.624000*%
%ADD23R,1.801800X1.801800*%
%ADD24O,1.500000X1.500000*%
%ADD25C,1.500000*%
G04 APERTURE END LIST*
D10*
X132357142Y-68666666D02*
X132404761Y-68714285D01*
X132452380Y-68857142D01*
X132452380Y-68952380D01*
X132404761Y-69095238D01*
X132309523Y-69190476D01*
X132214285Y-69238095D01*
X132023809Y-69285714D01*
X131880952Y-69285714D01*
X131690476Y-69238095D01*
X131595238Y-69190476D01*
X131500000Y-69095238D01*
X131452380Y-68952380D01*
X131452380Y-68857142D01*
X131500000Y-68714285D01*
X131547619Y-68666666D01*
X131452380Y-68047619D02*
X131452380Y-67857142D01*
X131500000Y-67761904D01*
X131595238Y-67666666D01*
X131785714Y-67619047D01*
X132119047Y-67619047D01*
X132309523Y-67666666D01*
X132404761Y-67761904D01*
X132452380Y-67857142D01*
X132452380Y-68047619D01*
X132404761Y-68142857D01*
X132309523Y-68238095D01*
X132119047Y-68285714D01*
X131785714Y-68285714D01*
X131595238Y-68238095D01*
X131500000Y-68142857D01*
X131452380Y-68047619D01*
X131547619Y-67238095D02*
X131500000Y-67190476D01*
X131452380Y-67095238D01*
X131452380Y-66857142D01*
X131500000Y-66761904D01*
X131547619Y-66714285D01*
X131642857Y-66666666D01*
X131738095Y-66666666D01*
X131880952Y-66714285D01*
X132452380Y-67285714D01*
X132452380Y-66666666D01*
X132547619Y-66476190D02*
X132547619Y-65714285D01*
X132452380Y-65476190D02*
X131452380Y-65476190D01*
X131833333Y-65476190D02*
X131785714Y-65380952D01*
X131785714Y-65190476D01*
X131833333Y-65095238D01*
X131880952Y-65047619D01*
X131976190Y-65000000D01*
X132261904Y-65000000D01*
X132357142Y-65047619D01*
X132404761Y-65095238D01*
X132452380Y-65190476D01*
X132452380Y-65380952D01*
X132404761Y-65476190D01*
X132452380Y-64428571D02*
X132404761Y-64523809D01*
X132309523Y-64571428D01*
X131452380Y-64571428D01*
X132404761Y-63666666D02*
X132452380Y-63761904D01*
X132452380Y-63952380D01*
X132404761Y-64047619D01*
X132309523Y-64095238D01*
X131928571Y-64095238D01*
X131833333Y-64047619D01*
X131785714Y-63952380D01*
X131785714Y-63761904D01*
X131833333Y-63666666D01*
X131928571Y-63619047D01*
X132023809Y-63619047D01*
X132119047Y-64095238D01*
X131785714Y-63190476D02*
X132785714Y-63190476D01*
X131833333Y-63190476D02*
X131785714Y-63095238D01*
X131785714Y-62904761D01*
X131833333Y-62809523D01*
X131880952Y-62761904D01*
X131976190Y-62714285D01*
X132261904Y-62714285D01*
X132357142Y-62761904D01*
X132404761Y-62809523D01*
X132452380Y-62904761D01*
X132452380Y-63095238D01*
X132404761Y-63190476D01*
X134152380Y-68576190D02*
X133676190Y-68909523D01*
X134152380Y-69147619D02*
X133152380Y-69147619D01*
X133152380Y-68766666D01*
X133200000Y-68671428D01*
X133247619Y-68623809D01*
X133342857Y-68576190D01*
X133485714Y-68576190D01*
X133580952Y-68623809D01*
X133628571Y-68671428D01*
X133676190Y-68766666D01*
X133676190Y-69147619D01*
X133200000Y-67623809D02*
X133152380Y-67719047D01*
X133152380Y-67861904D01*
X133200000Y-68004761D01*
X133295238Y-68100000D01*
X133390476Y-68147619D01*
X133580952Y-68195238D01*
X133723809Y-68195238D01*
X133914285Y-68147619D01*
X134009523Y-68100000D01*
X134104761Y-68004761D01*
X134152380Y-67861904D01*
X134152380Y-67766666D01*
X134104761Y-67623809D01*
X134057142Y-67576190D01*
X133723809Y-67576190D01*
X133723809Y-67766666D01*
X133247619Y-66433333D02*
X133200000Y-66385714D01*
X133152380Y-66290476D01*
X133152380Y-66052380D01*
X133200000Y-65957142D01*
X133247619Y-65909523D01*
X133342857Y-65861904D01*
X133438095Y-65861904D01*
X133580952Y-65909523D01*
X134152380Y-66480952D01*
X134152380Y-65861904D01*
X133152380Y-65242857D02*
X133152380Y-65147619D01*
X133200000Y-65052380D01*
X133247619Y-65004761D01*
X133342857Y-64957142D01*
X133533333Y-64909523D01*
X133771428Y-64909523D01*
X133961904Y-64957142D01*
X134057142Y-65004761D01*
X134104761Y-65052380D01*
X134152380Y-65147619D01*
X134152380Y-65242857D01*
X134104761Y-65338095D01*
X134057142Y-65385714D01*
X133961904Y-65433333D01*
X133771428Y-65480952D01*
X133533333Y-65480952D01*
X133342857Y-65433333D01*
X133247619Y-65385714D01*
X133200000Y-65338095D01*
X133152380Y-65242857D01*
X133247619Y-64528571D02*
X133200000Y-64480952D01*
X133152380Y-64385714D01*
X133152380Y-64147619D01*
X133200000Y-64052380D01*
X133247619Y-64004761D01*
X133342857Y-63957142D01*
X133438095Y-63957142D01*
X133580952Y-64004761D01*
X134152380Y-64576190D01*
X134152380Y-63957142D01*
X134152380Y-63004761D02*
X134152380Y-63576190D01*
X134152380Y-63290476D02*
X133152380Y-63290476D01*
X133295238Y-63385714D01*
X133390476Y-63480952D01*
X133438095Y-63576190D01*
X130752380Y-68676190D02*
X130752380Y-69152380D01*
X129752380Y-69152380D01*
X130752380Y-68342857D02*
X129752380Y-68342857D01*
X130466666Y-68009523D01*
X129752380Y-67676190D01*
X130752380Y-67676190D01*
X130752380Y-67200000D02*
X129752380Y-67200000D01*
X129752380Y-66819047D01*
X129800000Y-66723809D01*
X129847619Y-66676190D01*
X129942857Y-66628571D01*
X130085714Y-66628571D01*
X130180952Y-66676190D01*
X130228571Y-66723809D01*
X130276190Y-66819047D01*
X130276190Y-67200000D01*
X130657142Y-65628571D02*
X130704761Y-65676190D01*
X130752380Y-65819047D01*
X130752380Y-65914285D01*
X130704761Y-66057142D01*
X130609523Y-66152380D01*
X130514285Y-66200000D01*
X130323809Y-66247619D01*
X130180952Y-66247619D01*
X129990476Y-66200000D01*
X129895238Y-66152380D01*
X129800000Y-66057142D01*
X129752380Y-65914285D01*
X129752380Y-65819047D01*
X129800000Y-65676190D01*
X129847619Y-65628571D01*
X130752380Y-63866666D02*
X130276190Y-64200000D01*
X130752380Y-64438095D02*
X129752380Y-64438095D01*
X129752380Y-64057142D01*
X129800000Y-63961904D01*
X129847619Y-63914285D01*
X129942857Y-63866666D01*
X130085714Y-63866666D01*
X130180952Y-63914285D01*
X130228571Y-63961904D01*
X130276190Y-64057142D01*
X130276190Y-64438095D01*
X130704761Y-63057142D02*
X130752380Y-63152380D01*
X130752380Y-63342857D01*
X130704761Y-63438095D01*
X130609523Y-63485714D01*
X130228571Y-63485714D01*
X130133333Y-63438095D01*
X130085714Y-63342857D01*
X130085714Y-63152380D01*
X130133333Y-63057142D01*
X130228571Y-63009523D01*
X130323809Y-63009523D01*
X130419047Y-63485714D01*
X130085714Y-62676190D02*
X130752380Y-62438095D01*
X130085714Y-62200000D01*
X129752380Y-60866666D02*
X129752380Y-60771428D01*
X129800000Y-60676190D01*
X129847619Y-60628571D01*
X129942857Y-60580952D01*
X130133333Y-60533333D01*
X130371428Y-60533333D01*
X130561904Y-60580952D01*
X130657142Y-60628571D01*
X130704761Y-60676190D01*
X130752380Y-60771428D01*
X130752380Y-60866666D01*
X130704761Y-60961904D01*
X130657142Y-61009523D01*
X130561904Y-61057142D01*
X130371428Y-61104761D01*
X130133333Y-61104761D01*
X129942857Y-61057142D01*
X129847619Y-61009523D01*
X129800000Y-60961904D01*
X129752380Y-60866666D01*
X129752380Y-59914285D02*
X129752380Y-59819047D01*
X129800000Y-59723809D01*
X129847619Y-59676190D01*
X129942857Y-59628571D01*
X130133333Y-59580952D01*
X130371428Y-59580952D01*
X130561904Y-59628571D01*
X130657142Y-59676190D01*
X130704761Y-59723809D01*
X130752380Y-59819047D01*
X130752380Y-59914285D01*
X130704761Y-60009523D01*
X130657142Y-60057142D01*
X130561904Y-60104761D01*
X130371428Y-60152380D01*
X130133333Y-60152380D01*
X129942857Y-60104761D01*
X129847619Y-60057142D01*
X129800000Y-60009523D01*
X129752380Y-59914285D01*
X130657142Y-59152380D02*
X130704761Y-59104761D01*
X130752380Y-59152380D01*
X130704761Y-59200000D01*
X130657142Y-59152380D01*
X130752380Y-59152380D01*
X129752380Y-58485714D02*
X129752380Y-58390476D01*
X129800000Y-58295238D01*
X129847619Y-58247619D01*
X129942857Y-58200000D01*
X130133333Y-58152380D01*
X130371428Y-58152380D01*
X130561904Y-58200000D01*
X130657142Y-58247619D01*
X130704761Y-58295238D01*
X130752380Y-58390476D01*
X130752380Y-58485714D01*
X130704761Y-58580952D01*
X130657142Y-58628571D01*
X130561904Y-58676190D01*
X130371428Y-58723809D01*
X130133333Y-58723809D01*
X129942857Y-58676190D01*
X129847619Y-58628571D01*
X129800000Y-58580952D01*
X129752380Y-58485714D01*
X130752380Y-57200000D02*
X130752380Y-57771428D01*
X130752380Y-57485714D02*
X129752380Y-57485714D01*
X129895238Y-57580952D01*
X129990476Y-57676190D01*
X130038095Y-57771428D01*
D11*
G36*
X128228865Y-133841073D02*
G01*
X128388313Y-133854988D01*
X128530775Y-133878602D01*
X128634120Y-133907147D01*
X128699769Y-133925976D01*
X128757196Y-133935655D01*
X128765845Y-133936000D01*
X128806712Y-133944070D01*
X128870593Y-133965409D01*
X128947737Y-133995708D01*
X129028394Y-134030661D01*
X129102814Y-134065959D01*
X129161248Y-134097295D01*
X129193946Y-134120361D01*
X129197667Y-134126786D01*
X129213995Y-134144216D01*
X129254121Y-134171792D01*
X129262367Y-134176759D01*
X129346762Y-134237912D01*
X129423957Y-134313970D01*
X129486252Y-134395219D01*
X129525950Y-134471947D01*
X129536275Y-134522324D01*
X129544993Y-134564545D01*
X129566881Y-134624200D01*
X129576253Y-134645084D01*
X129615664Y-134735052D01*
X129642820Y-134817153D01*
X129660656Y-134904795D01*
X129672108Y-135011384D01*
X129678220Y-135110750D01*
X129685127Y-135209819D01*
X129694647Y-135296371D01*
X129705396Y-135359670D01*
X129713698Y-135385917D01*
X129719107Y-135412682D01*
X129724223Y-135473797D01*
X129729074Y-135570276D01*
X129733686Y-135703136D01*
X129738086Y-135873394D01*
X129742301Y-136082064D01*
X129746358Y-136330164D01*
X129750283Y-136618709D01*
X129753567Y-136899334D01*
X129759714Y-137491611D01*
X129764683Y-138042165D01*
X129768469Y-138551591D01*
X129771064Y-139020482D01*
X129772463Y-139449434D01*
X129772660Y-139839040D01*
X129771647Y-140189895D01*
X129769418Y-140502593D01*
X129765968Y-140777728D01*
X129761289Y-141015895D01*
X129755376Y-141217688D01*
X129748222Y-141383701D01*
X129739820Y-141514529D01*
X129730165Y-141610765D01*
X129719250Y-141673005D01*
X129707068Y-141701843D01*
X129702142Y-141704167D01*
X129687799Y-141721925D01*
X129684500Y-141746500D01*
X129679447Y-141770965D01*
X129657600Y-141783709D01*
X129608926Y-141788382D01*
X129568084Y-141788834D01*
X129451667Y-141788834D01*
X129451667Y-141651250D01*
X129454142Y-141581184D01*
X129460620Y-141531630D01*
X129469309Y-141513667D01*
X129481627Y-141500455D01*
X129492716Y-141460175D01*
X129502587Y-141391859D01*
X129511252Y-141294539D01*
X129518720Y-141167247D01*
X129525005Y-141009016D01*
X129530116Y-140818879D01*
X129534066Y-140595867D01*
X129536865Y-140339013D01*
X129538524Y-140047349D01*
X129539055Y-139719907D01*
X129538470Y-139355720D01*
X129536779Y-138953821D01*
X129533993Y-138513241D01*
X129530124Y-138033013D01*
X129525184Y-137512169D01*
X129520710Y-137087782D01*
X129516967Y-136768962D01*
X129513155Y-136491174D01*
X129509238Y-136253118D01*
X129505183Y-136053493D01*
X129500954Y-135891000D01*
X129496518Y-135764337D01*
X129491839Y-135672204D01*
X129486884Y-135613300D01*
X129481617Y-135586325D01*
X129480795Y-135584949D01*
X129470319Y-135552812D01*
X129459936Y-135488123D01*
X129450923Y-135400646D01*
X129445102Y-135311834D01*
X129428940Y-135122488D01*
X129400757Y-134972537D01*
X129360268Y-134860705D01*
X129336121Y-134819820D01*
X129310733Y-134765032D01*
X129303500Y-134723649D01*
X129295383Y-134671332D01*
X129268370Y-134615845D01*
X129218472Y-134552145D01*
X129141700Y-134475190D01*
X129034061Y-134379940D01*
X129026134Y-134373193D01*
X128975332Y-134338751D01*
X128894699Y-134294354D01*
X128793944Y-134245179D01*
X128742584Y-134221970D01*
X128668505Y-134194890D01*
X128569371Y-134166356D01*
X128454786Y-134138294D01*
X128334355Y-134112630D01*
X128217681Y-134091291D01*
X128114369Y-134076203D01*
X128034023Y-134069293D01*
X127991167Y-134071246D01*
X127944114Y-134080589D01*
X127871093Y-134094892D01*
X127787702Y-134111101D01*
X127785666Y-134111495D01*
X127715410Y-134126047D01*
X127659634Y-134142003D01*
X127610398Y-134164360D01*
X127559761Y-134198112D01*
X127499781Y-134248254D01*
X127422518Y-134319782D01*
X127360497Y-134378931D01*
X127294258Y-134438087D01*
X127229255Y-134489163D01*
X127180580Y-134520511D01*
X127116927Y-134561529D01*
X127059314Y-134611889D01*
X127010380Y-134654099D01*
X126941519Y-134701752D01*
X126892631Y-134730634D01*
X126827881Y-134771618D01*
X126777759Y-134813749D01*
X126757646Y-134839978D01*
X126726054Y-134882068D01*
X126698033Y-134899708D01*
X126665069Y-134926461D01*
X126623510Y-134982849D01*
X126578891Y-135058600D01*
X126536746Y-135143442D01*
X126502611Y-135227105D01*
X126482019Y-135299316D01*
X126481659Y-135301250D01*
X126472737Y-135367228D01*
X126463989Y-135461269D01*
X126456608Y-135569116D01*
X126452892Y-135645209D01*
X126443437Y-135883334D01*
X126360428Y-135883334D01*
X126323365Y-135887770D01*
X126274068Y-135902539D01*
X126207645Y-135929825D01*
X126119202Y-135971816D01*
X126003846Y-136030698D01*
X125859175Y-136107324D01*
X125737826Y-136172758D01*
X125629348Y-136232104D01*
X125539217Y-136282293D01*
X125472913Y-136320260D01*
X125435913Y-136342939D01*
X125430174Y-136347487D01*
X125408762Y-136362477D01*
X125356421Y-136393594D01*
X125279627Y-136437145D01*
X125184857Y-136489437D01*
X125112788Y-136528461D01*
X125008346Y-136585492D01*
X124916486Y-136637344D01*
X124844001Y-136680051D01*
X124797679Y-136709645D01*
X124784705Y-136720109D01*
X124758452Y-136739919D01*
X124702600Y-136774260D01*
X124625231Y-136818380D01*
X124534432Y-136867523D01*
X124530417Y-136869641D01*
X124440940Y-136917829D01*
X124366182Y-136960059D01*
X124313609Y-136991975D01*
X124290686Y-137009216D01*
X124290379Y-137009774D01*
X124268204Y-137030691D01*
X124224200Y-137057703D01*
X124220896Y-137059430D01*
X124181610Y-137085543D01*
X124168237Y-137106622D01*
X124168930Y-137108325D01*
X124193417Y-137119783D01*
X124248507Y-137134599D01*
X124322948Y-137149811D01*
X124333664Y-137151699D01*
X124439317Y-137170402D01*
X124555242Y-137191590D01*
X124636250Y-137206846D01*
X124734523Y-137224142D01*
X124851868Y-137242363D01*
X124978157Y-137260201D01*
X125103261Y-137276349D01*
X125217050Y-137289501D01*
X125309395Y-137298349D01*
X125370166Y-137301586D01*
X125370414Y-137301586D01*
X125441693Y-137308163D01*
X125506250Y-137324174D01*
X125507997Y-137324846D01*
X125548939Y-137334540D01*
X125623446Y-137346202D01*
X125722863Y-137358703D01*
X125838533Y-137370914D01*
X125914782Y-137377860D01*
X126032669Y-137388872D01*
X126136297Y-137400324D01*
X126218063Y-137411234D01*
X126270365Y-137420622D01*
X126285199Y-137425619D01*
X126321074Y-137441927D01*
X126375935Y-137456505D01*
X126378437Y-137456988D01*
X126408153Y-137462099D01*
X126433388Y-137467435D01*
X126454558Y-137476263D01*
X126472076Y-137491847D01*
X126486357Y-137517452D01*
X126497815Y-137556344D01*
X126506865Y-137611787D01*
X126513922Y-137687048D01*
X126519398Y-137785391D01*
X126523710Y-137910081D01*
X126527271Y-138064384D01*
X126530495Y-138251565D01*
X126533798Y-138474888D01*
X126537151Y-138707571D01*
X126542397Y-139101265D01*
X126545935Y-139456612D01*
X126547662Y-139777566D01*
X126547472Y-140068084D01*
X126545262Y-140332119D01*
X126540927Y-140573629D01*
X126534362Y-140796568D01*
X126525462Y-141004891D01*
X126514125Y-141202553D01*
X126500243Y-141393511D01*
X126483715Y-141581720D01*
X126464434Y-141771134D01*
X126453651Y-141868209D01*
X126443406Y-141958167D01*
X126207142Y-141958167D01*
X126221474Y-141720042D01*
X126230994Y-141593790D01*
X126244948Y-141447814D01*
X126261112Y-141304197D01*
X126271006Y-141227917D01*
X126277916Y-141173432D01*
X126283852Y-141114774D01*
X126288875Y-141048566D01*
X126293045Y-140971435D01*
X126296424Y-140880005D01*
X126299071Y-140770901D01*
X126301047Y-140640748D01*
X126302414Y-140486171D01*
X126303232Y-140303794D01*
X126303561Y-140090243D01*
X126303463Y-139842142D01*
X126302998Y-139556117D01*
X126302792Y-139460500D01*
X126302045Y-139207818D01*
X126300986Y-138965052D01*
X126299652Y-138735913D01*
X126298082Y-138524109D01*
X126296311Y-138333351D01*
X126294378Y-138167347D01*
X126292321Y-138029807D01*
X126290175Y-137924440D01*
X126287979Y-137854956D01*
X126286346Y-137828839D01*
X126273314Y-137710594D01*
X126110949Y-137665747D01*
X125998128Y-137641203D01*
X125859212Y-137621224D01*
X125710374Y-137608085D01*
X125694584Y-137607181D01*
X125585898Y-137599238D01*
X125484368Y-137588133D01*
X125402228Y-137575418D01*
X125355917Y-137564205D01*
X125277414Y-137544587D01*
X125196319Y-137534957D01*
X125186584Y-137534763D01*
X125121715Y-137531172D01*
X125023490Y-137521322D01*
X124900243Y-137506301D01*
X124760310Y-137487193D01*
X124612026Y-137465086D01*
X124463725Y-137441065D01*
X124451042Y-137438912D01*
X124238366Y-137402764D01*
X124064950Y-137373544D01*
X123928359Y-137350845D01*
X123826158Y-137334261D01*
X123789584Y-137328505D01*
X123683750Y-137312084D01*
X123677066Y-137218531D01*
X123675086Y-137127676D01*
X123689582Y-137065382D01*
X123727755Y-137018905D01*
X123796811Y-136975501D01*
X123821708Y-136962645D01*
X123885722Y-136927646D01*
X123931253Y-136897629D01*
X123948334Y-136879289D01*
X123965676Y-136857583D01*
X123986935Y-136847601D01*
X124032563Y-136823721D01*
X124066310Y-136797587D01*
X124100589Y-136772978D01*
X124163357Y-136734258D01*
X124245536Y-136686830D01*
X124333849Y-136638343D01*
X124424886Y-136588414D01*
X124504037Y-136542857D01*
X124562681Y-136506776D01*
X124591896Y-136485581D01*
X124620636Y-136465261D01*
X124679737Y-136429416D01*
X124762066Y-136382173D01*
X124860488Y-136327661D01*
X124926047Y-136292245D01*
X125028898Y-136236558D01*
X125118253Y-136186936D01*
X125187555Y-136147121D01*
X125230243Y-136120854D01*
X125240622Y-136112802D01*
X125262011Y-136098073D01*
X125315186Y-136066743D01*
X125394499Y-136021982D01*
X125494304Y-135966963D01*
X125608953Y-135904856D01*
X125650593Y-135882539D01*
X125770545Y-135817773D01*
X125878959Y-135758005D01*
X125969821Y-135706649D01*
X126037120Y-135667120D01*
X126074844Y-135642832D01*
X126079608Y-135638916D01*
X126124840Y-135614140D01*
X126160310Y-135608167D01*
X126183817Y-135606026D01*
X126199059Y-135594263D01*
X126208482Y-135564870D01*
X126214531Y-135509837D01*
X126219652Y-135421154D01*
X126220094Y-135412375D01*
X126226780Y-135310183D01*
X126235943Y-135210062D01*
X126245920Y-135129389D01*
X126248972Y-135110750D01*
X126268502Y-135040117D01*
X126301712Y-134956325D01*
X126343313Y-134869381D01*
X126388016Y-134789289D01*
X126430533Y-134726054D01*
X126465575Y-134689681D01*
X126473749Y-134685532D01*
X126511905Y-134657599D01*
X126534437Y-134624095D01*
X126565056Y-134587217D01*
X126620164Y-134544324D01*
X126665438Y-134517056D01*
X126737147Y-134473614D01*
X126801698Y-134425926D01*
X126829090Y-134400824D01*
X126888177Y-134349514D01*
X126954515Y-134306450D01*
X126956090Y-134305635D01*
X127009405Y-134271217D01*
X127076340Y-134218476D01*
X127133917Y-134166766D01*
X127212766Y-134091014D01*
X127268206Y-134038586D01*
X127307218Y-134003336D01*
X127336784Y-133979119D01*
X127363886Y-133959789D01*
X127384141Y-133946513D01*
X127469753Y-133907766D01*
X127588594Y-133877137D01*
X127732295Y-133854890D01*
X127892487Y-133841288D01*
X128060800Y-133836594D01*
X128228865Y-133841073D01*
G37*
X128228865Y-133841073D02*
X128388313Y-133854988D01*
X128530775Y-133878602D01*
X128634120Y-133907147D01*
X128699769Y-133925976D01*
X128757196Y-133935655D01*
X128765845Y-133936000D01*
X128806712Y-133944070D01*
X128870593Y-133965409D01*
X128947737Y-133995708D01*
X129028394Y-134030661D01*
X129102814Y-134065959D01*
X129161248Y-134097295D01*
X129193946Y-134120361D01*
X129197667Y-134126786D01*
X129213995Y-134144216D01*
X129254121Y-134171792D01*
X129262367Y-134176759D01*
X129346762Y-134237912D01*
X129423957Y-134313970D01*
X129486252Y-134395219D01*
X129525950Y-134471947D01*
X129536275Y-134522324D01*
X129544993Y-134564545D01*
X129566881Y-134624200D01*
X129576253Y-134645084D01*
X129615664Y-134735052D01*
X129642820Y-134817153D01*
X129660656Y-134904795D01*
X129672108Y-135011384D01*
X129678220Y-135110750D01*
X129685127Y-135209819D01*
X129694647Y-135296371D01*
X129705396Y-135359670D01*
X129713698Y-135385917D01*
X129719107Y-135412682D01*
X129724223Y-135473797D01*
X129729074Y-135570276D01*
X129733686Y-135703136D01*
X129738086Y-135873394D01*
X129742301Y-136082064D01*
X129746358Y-136330164D01*
X129750283Y-136618709D01*
X129753567Y-136899334D01*
X129759714Y-137491611D01*
X129764683Y-138042165D01*
X129768469Y-138551591D01*
X129771064Y-139020482D01*
X129772463Y-139449434D01*
X129772660Y-139839040D01*
X129771647Y-140189895D01*
X129769418Y-140502593D01*
X129765968Y-140777728D01*
X129761289Y-141015895D01*
X129755376Y-141217688D01*
X129748222Y-141383701D01*
X129739820Y-141514529D01*
X129730165Y-141610765D01*
X129719250Y-141673005D01*
X129707068Y-141701843D01*
X129702142Y-141704167D01*
X129687799Y-141721925D01*
X129684500Y-141746500D01*
X129679447Y-141770965D01*
X129657600Y-141783709D01*
X129608926Y-141788382D01*
X129568084Y-141788834D01*
X129451667Y-141788834D01*
X129451667Y-141651250D01*
X129454142Y-141581184D01*
X129460620Y-141531630D01*
X129469309Y-141513667D01*
X129481627Y-141500455D01*
X129492716Y-141460175D01*
X129502587Y-141391859D01*
X129511252Y-141294539D01*
X129518720Y-141167247D01*
X129525005Y-141009016D01*
X129530116Y-140818879D01*
X129534066Y-140595867D01*
X129536865Y-140339013D01*
X129538524Y-140047349D01*
X129539055Y-139719907D01*
X129538470Y-139355720D01*
X129536779Y-138953821D01*
X129533993Y-138513241D01*
X129530124Y-138033013D01*
X129525184Y-137512169D01*
X129520710Y-137087782D01*
X129516967Y-136768962D01*
X129513155Y-136491174D01*
X129509238Y-136253118D01*
X129505183Y-136053493D01*
X129500954Y-135891000D01*
X129496518Y-135764337D01*
X129491839Y-135672204D01*
X129486884Y-135613300D01*
X129481617Y-135586325D01*
X129480795Y-135584949D01*
X129470319Y-135552812D01*
X129459936Y-135488123D01*
X129450923Y-135400646D01*
X129445102Y-135311834D01*
X129428940Y-135122488D01*
X129400757Y-134972537D01*
X129360268Y-134860705D01*
X129336121Y-134819820D01*
X129310733Y-134765032D01*
X129303500Y-134723649D01*
X129295383Y-134671332D01*
X129268370Y-134615845D01*
X129218472Y-134552145D01*
X129141700Y-134475190D01*
X129034061Y-134379940D01*
X129026134Y-134373193D01*
X128975332Y-134338751D01*
X128894699Y-134294354D01*
X128793944Y-134245179D01*
X128742584Y-134221970D01*
X128668505Y-134194890D01*
X128569371Y-134166356D01*
X128454786Y-134138294D01*
X128334355Y-134112630D01*
X128217681Y-134091291D01*
X128114369Y-134076203D01*
X128034023Y-134069293D01*
X127991167Y-134071246D01*
X127944114Y-134080589D01*
X127871093Y-134094892D01*
X127787702Y-134111101D01*
X127785666Y-134111495D01*
X127715410Y-134126047D01*
X127659634Y-134142003D01*
X127610398Y-134164360D01*
X127559761Y-134198112D01*
X127499781Y-134248254D01*
X127422518Y-134319782D01*
X127360497Y-134378931D01*
X127294258Y-134438087D01*
X127229255Y-134489163D01*
X127180580Y-134520511D01*
X127116927Y-134561529D01*
X127059314Y-134611889D01*
X127010380Y-134654099D01*
X126941519Y-134701752D01*
X126892631Y-134730634D01*
X126827881Y-134771618D01*
X126777759Y-134813749D01*
X126757646Y-134839978D01*
X126726054Y-134882068D01*
X126698033Y-134899708D01*
X126665069Y-134926461D01*
X126623510Y-134982849D01*
X126578891Y-135058600D01*
X126536746Y-135143442D01*
X126502611Y-135227105D01*
X126482019Y-135299316D01*
X126481659Y-135301250D01*
X126472737Y-135367228D01*
X126463989Y-135461269D01*
X126456608Y-135569116D01*
X126452892Y-135645209D01*
X126443437Y-135883334D01*
X126360428Y-135883334D01*
X126323365Y-135887770D01*
X126274068Y-135902539D01*
X126207645Y-135929825D01*
X126119202Y-135971816D01*
X126003846Y-136030698D01*
X125859175Y-136107324D01*
X125737826Y-136172758D01*
X125629348Y-136232104D01*
X125539217Y-136282293D01*
X125472913Y-136320260D01*
X125435913Y-136342939D01*
X125430174Y-136347487D01*
X125408762Y-136362477D01*
X125356421Y-136393594D01*
X125279627Y-136437145D01*
X125184857Y-136489437D01*
X125112788Y-136528461D01*
X125008346Y-136585492D01*
X124916486Y-136637344D01*
X124844001Y-136680051D01*
X124797679Y-136709645D01*
X124784705Y-136720109D01*
X124758452Y-136739919D01*
X124702600Y-136774260D01*
X124625231Y-136818380D01*
X124534432Y-136867523D01*
X124530417Y-136869641D01*
X124440940Y-136917829D01*
X124366182Y-136960059D01*
X124313609Y-136991975D01*
X124290686Y-137009216D01*
X124290379Y-137009774D01*
X124268204Y-137030691D01*
X124224200Y-137057703D01*
X124220896Y-137059430D01*
X124181610Y-137085543D01*
X124168237Y-137106622D01*
X124168930Y-137108325D01*
X124193417Y-137119783D01*
X124248507Y-137134599D01*
X124322948Y-137149811D01*
X124333664Y-137151699D01*
X124439317Y-137170402D01*
X124555242Y-137191590D01*
X124636250Y-137206846D01*
X124734523Y-137224142D01*
X124851868Y-137242363D01*
X124978157Y-137260201D01*
X125103261Y-137276349D01*
X125217050Y-137289501D01*
X125309395Y-137298349D01*
X125370166Y-137301586D01*
X125370414Y-137301586D01*
X125441693Y-137308163D01*
X125506250Y-137324174D01*
X125507997Y-137324846D01*
X125548939Y-137334540D01*
X125623446Y-137346202D01*
X125722863Y-137358703D01*
X125838533Y-137370914D01*
X125914782Y-137377860D01*
X126032669Y-137388872D01*
X126136297Y-137400324D01*
X126218063Y-137411234D01*
X126270365Y-137420622D01*
X126285199Y-137425619D01*
X126321074Y-137441927D01*
X126375935Y-137456505D01*
X126378437Y-137456988D01*
X126408153Y-137462099D01*
X126433388Y-137467435D01*
X126454558Y-137476263D01*
X126472076Y-137491847D01*
X126486357Y-137517452D01*
X126497815Y-137556344D01*
X126506865Y-137611787D01*
X126513922Y-137687048D01*
X126519398Y-137785391D01*
X126523710Y-137910081D01*
X126527271Y-138064384D01*
X126530495Y-138251565D01*
X126533798Y-138474888D01*
X126537151Y-138707571D01*
X126542397Y-139101265D01*
X126545935Y-139456612D01*
X126547662Y-139777566D01*
X126547472Y-140068084D01*
X126545262Y-140332119D01*
X126540927Y-140573629D01*
X126534362Y-140796568D01*
X126525462Y-141004891D01*
X126514125Y-141202553D01*
X126500243Y-141393511D01*
X126483715Y-141581720D01*
X126464434Y-141771134D01*
X126453651Y-141868209D01*
X126443406Y-141958167D01*
X126207142Y-141958167D01*
X126221474Y-141720042D01*
X126230994Y-141593790D01*
X126244948Y-141447814D01*
X126261112Y-141304197D01*
X126271006Y-141227917D01*
X126277916Y-141173432D01*
X126283852Y-141114774D01*
X126288875Y-141048566D01*
X126293045Y-140971435D01*
X126296424Y-140880005D01*
X126299071Y-140770901D01*
X126301047Y-140640748D01*
X126302414Y-140486171D01*
X126303232Y-140303794D01*
X126303561Y-140090243D01*
X126303463Y-139842142D01*
X126302998Y-139556117D01*
X126302792Y-139460500D01*
X126302045Y-139207818D01*
X126300986Y-138965052D01*
X126299652Y-138735913D01*
X126298082Y-138524109D01*
X126296311Y-138333351D01*
X126294378Y-138167347D01*
X126292321Y-138029807D01*
X126290175Y-137924440D01*
X126287979Y-137854956D01*
X126286346Y-137828839D01*
X126273314Y-137710594D01*
X126110949Y-137665747D01*
X125998128Y-137641203D01*
X125859212Y-137621224D01*
X125710374Y-137608085D01*
X125694584Y-137607181D01*
X125585898Y-137599238D01*
X125484368Y-137588133D01*
X125402228Y-137575418D01*
X125355917Y-137564205D01*
X125277414Y-137544587D01*
X125196319Y-137534957D01*
X125186584Y-137534763D01*
X125121715Y-137531172D01*
X125023490Y-137521322D01*
X124900243Y-137506301D01*
X124760310Y-137487193D01*
X124612026Y-137465086D01*
X124463725Y-137441065D01*
X124451042Y-137438912D01*
X124238366Y-137402764D01*
X124064950Y-137373544D01*
X123928359Y-137350845D01*
X123826158Y-137334261D01*
X123789584Y-137328505D01*
X123683750Y-137312084D01*
X123677066Y-137218531D01*
X123675086Y-137127676D01*
X123689582Y-137065382D01*
X123727755Y-137018905D01*
X123796811Y-136975501D01*
X123821708Y-136962645D01*
X123885722Y-136927646D01*
X123931253Y-136897629D01*
X123948334Y-136879289D01*
X123965676Y-136857583D01*
X123986935Y-136847601D01*
X124032563Y-136823721D01*
X124066310Y-136797587D01*
X124100589Y-136772978D01*
X124163357Y-136734258D01*
X124245536Y-136686830D01*
X124333849Y-136638343D01*
X124424886Y-136588414D01*
X124504037Y-136542857D01*
X124562681Y-136506776D01*
X124591896Y-136485581D01*
X124620636Y-136465261D01*
X124679737Y-136429416D01*
X124762066Y-136382173D01*
X124860488Y-136327661D01*
X124926047Y-136292245D01*
X125028898Y-136236558D01*
X125118253Y-136186936D01*
X125187555Y-136147121D01*
X125230243Y-136120854D01*
X125240622Y-136112802D01*
X125262011Y-136098073D01*
X125315186Y-136066743D01*
X125394499Y-136021982D01*
X125494304Y-135966963D01*
X125608953Y-135904856D01*
X125650593Y-135882539D01*
X125770545Y-135817773D01*
X125878959Y-135758005D01*
X125969821Y-135706649D01*
X126037120Y-135667120D01*
X126074844Y-135642832D01*
X126079608Y-135638916D01*
X126124840Y-135614140D01*
X126160310Y-135608167D01*
X126183817Y-135606026D01*
X126199059Y-135594263D01*
X126208482Y-135564870D01*
X126214531Y-135509837D01*
X126219652Y-135421154D01*
X126220094Y-135412375D01*
X126226780Y-135310183D01*
X126235943Y-135210062D01*
X126245920Y-135129389D01*
X126248972Y-135110750D01*
X126268502Y-135040117D01*
X126301712Y-134956325D01*
X126343313Y-134869381D01*
X126388016Y-134789289D01*
X126430533Y-134726054D01*
X126465575Y-134689681D01*
X126473749Y-134685532D01*
X126511905Y-134657599D01*
X126534437Y-134624095D01*
X126565056Y-134587217D01*
X126620164Y-134544324D01*
X126665438Y-134517056D01*
X126737147Y-134473614D01*
X126801698Y-134425926D01*
X126829090Y-134400824D01*
X126888177Y-134349514D01*
X126954515Y-134306450D01*
X126956090Y-134305635D01*
X127009405Y-134271217D01*
X127076340Y-134218476D01*
X127133917Y-134166766D01*
X127212766Y-134091014D01*
X127268206Y-134038586D01*
X127307218Y-134003336D01*
X127336784Y-133979119D01*
X127363886Y-133959789D01*
X127384141Y-133946513D01*
X127469753Y-133907766D01*
X127588594Y-133877137D01*
X127732295Y-133854890D01*
X127892487Y-133841288D01*
X128060800Y-133836594D01*
X128228865Y-133841073D01*
G36*
X128393334Y-135502334D02*
G01*
X127721829Y-135502334D01*
X127707539Y-135623915D01*
X127704294Y-135677158D01*
X127702369Y-135765844D01*
X127701759Y-135883102D01*
X127702462Y-136022061D01*
X127704472Y-136175852D01*
X127707787Y-136337603D01*
X127707933Y-136343581D01*
X127722616Y-136941667D01*
X127489875Y-136941667D01*
X127475938Y-136525513D01*
X127471297Y-136369568D01*
X127467312Y-136202416D01*
X127464259Y-136038448D01*
X127462419Y-135892057D01*
X127462000Y-135805846D01*
X127462000Y-135502334D01*
X126954000Y-135502334D01*
X126954000Y-135269500D01*
X128393334Y-135269500D01*
X128393334Y-135502334D01*
G37*
X128393334Y-135502334D02*
X127721829Y-135502334D01*
X127707539Y-135623915D01*
X127704294Y-135677158D01*
X127702369Y-135765844D01*
X127701759Y-135883102D01*
X127702462Y-136022061D01*
X127704472Y-136175852D01*
X127707787Y-136337603D01*
X127707933Y-136343581D01*
X127722616Y-136941667D01*
X127489875Y-136941667D01*
X127475938Y-136525513D01*
X127471297Y-136369568D01*
X127467312Y-136202416D01*
X127464259Y-136038448D01*
X127462419Y-135892057D01*
X127462000Y-135805846D01*
X127462000Y-135502334D01*
X126954000Y-135502334D01*
X126954000Y-135269500D01*
X128393334Y-135269500D01*
X128393334Y-135502334D01*
G36*
X133687500Y-71744680D02*
G01*
X133555420Y-71490680D01*
X134068500Y-70863300D01*
X133636700Y-70431500D01*
X133009320Y-70944580D01*
X132755320Y-70812500D01*
X132486080Y-70726140D01*
X132402260Y-69920960D01*
X131797740Y-69920960D01*
X131713920Y-70726140D01*
X131444680Y-70812500D01*
X131190680Y-70944580D01*
X130563300Y-70431500D01*
X130131500Y-70863300D01*
X130644580Y-71490680D01*
X130512500Y-71744680D01*
X130426140Y-72013920D01*
X129620960Y-72097740D01*
X129620960Y-72702260D01*
X130426140Y-72786080D01*
X130512500Y-73055320D01*
X130644580Y-73309320D01*
X130131500Y-73936700D01*
X130563300Y-74368500D01*
X131190680Y-73855420D01*
X131444680Y-73987500D01*
X131713920Y-74073860D01*
X131797740Y-74879040D01*
X132402260Y-74879040D01*
X132486080Y-74073860D01*
X132755320Y-73987500D01*
X133009320Y-73855420D01*
X133636700Y-74368500D01*
X134068500Y-73936700D01*
X133555420Y-73309320D01*
X133687500Y-73055320D01*
X132821360Y-72697180D01*
X132747700Y-72831800D01*
X132651180Y-72951180D01*
X132531800Y-73047700D01*
X132397180Y-73121360D01*
X132252400Y-73164540D01*
X132100000Y-73179780D01*
X131942520Y-73164540D01*
X131787580Y-73113740D01*
X131650420Y-73035000D01*
X131528500Y-72930860D01*
X131431980Y-72801320D01*
X131363400Y-72656540D01*
X131327840Y-72501600D01*
X131322760Y-72344120D01*
X131350700Y-72184100D01*
X131411660Y-72036780D01*
X131500560Y-71902160D01*
X131614860Y-71790400D01*
X131749480Y-71704040D01*
X131899340Y-71645620D01*
X132056820Y-71620220D01*
X132214300Y-71627840D01*
X132369240Y-71668480D01*
X132514020Y-71739600D01*
X132641020Y-71838660D01*
X132745160Y-71960580D01*
X132821360Y-72102820D01*
X133687500Y-71744680D01*
G37*
X133687500Y-71744680D02*
X133555420Y-71490680D01*
X134068500Y-70863300D01*
X133636700Y-70431500D01*
X133009320Y-70944580D01*
X132755320Y-70812500D01*
X132486080Y-70726140D01*
X132402260Y-69920960D01*
X131797740Y-69920960D01*
X131713920Y-70726140D01*
X131444680Y-70812500D01*
X131190680Y-70944580D01*
X130563300Y-70431500D01*
X130131500Y-70863300D01*
X130644580Y-71490680D01*
X130512500Y-71744680D01*
X130426140Y-72013920D01*
X129620960Y-72097740D01*
X129620960Y-72702260D01*
X130426140Y-72786080D01*
X130512500Y-73055320D01*
X130644580Y-73309320D01*
X130131500Y-73936700D01*
X130563300Y-74368500D01*
X131190680Y-73855420D01*
X131444680Y-73987500D01*
X131713920Y-74073860D01*
X131797740Y-74879040D01*
X132402260Y-74879040D01*
X132486080Y-74073860D01*
X132755320Y-73987500D01*
X133009320Y-73855420D01*
X133636700Y-74368500D01*
X134068500Y-73936700D01*
X133555420Y-73309320D01*
X133687500Y-73055320D01*
X132821360Y-72697180D01*
X132747700Y-72831800D01*
X132651180Y-72951180D01*
X132531800Y-73047700D01*
X132397180Y-73121360D01*
X132252400Y-73164540D01*
X132100000Y-73179780D01*
X131942520Y-73164540D01*
X131787580Y-73113740D01*
X131650420Y-73035000D01*
X131528500Y-72930860D01*
X131431980Y-72801320D01*
X131363400Y-72656540D01*
X131327840Y-72501600D01*
X131322760Y-72344120D01*
X131350700Y-72184100D01*
X131411660Y-72036780D01*
X131500560Y-71902160D01*
X131614860Y-71790400D01*
X131749480Y-71704040D01*
X131899340Y-71645620D01*
X132056820Y-71620220D01*
X132214300Y-71627840D01*
X132369240Y-71668480D01*
X132514020Y-71739600D01*
X132641020Y-71838660D01*
X132745160Y-71960580D01*
X132821360Y-72102820D01*
X133687500Y-71744680D01*
G36*
X132692667Y-139298500D02*
G01*
X133348833Y-139298500D01*
X133348833Y-139510167D01*
X132692667Y-139510167D01*
X132692667Y-139954667D01*
X133221833Y-139954667D01*
X133221626Y-140065792D01*
X133206301Y-140167846D01*
X133162780Y-140292098D01*
X133094251Y-140432336D01*
X133003899Y-140582346D01*
X132894912Y-140735915D01*
X132846358Y-140797507D01*
X132772098Y-140888931D01*
X132820075Y-140924507D01*
X132940225Y-141005320D01*
X133079308Y-141086094D01*
X133215908Y-141154677D01*
X133258532Y-141173288D01*
X133328908Y-141202734D01*
X133382050Y-141225351D01*
X133407667Y-141236753D01*
X133408430Y-141237176D01*
X133402370Y-141256243D01*
X133379986Y-141301756D01*
X133348725Y-141359182D01*
X133282340Y-141476809D01*
X133162128Y-141423854D01*
X133036196Y-141362585D01*
X132906604Y-141289631D01*
X132787258Y-141213390D01*
X132692062Y-141142261D01*
X132682725Y-141134297D01*
X132598701Y-141061285D01*
X132463225Y-141165121D01*
X132243492Y-141308899D01*
X131990407Y-141429396D01*
X131973129Y-141436283D01*
X131867500Y-141477918D01*
X131812993Y-141370354D01*
X131784597Y-141311182D01*
X131767581Y-141269493D01*
X131765202Y-141256428D01*
X131786738Y-141245886D01*
X131836853Y-141224292D01*
X131904802Y-141196272D01*
X131906425Y-141195615D01*
X132021622Y-141144299D01*
X132141168Y-141083162D01*
X132251814Y-141019525D01*
X132340310Y-140960713D01*
X132362312Y-140943678D01*
X132423541Y-140893635D01*
X132323668Y-140757526D01*
X132272007Y-140680032D01*
X132211809Y-140578864D01*
X132151737Y-140469029D01*
X132114273Y-140394759D01*
X132065006Y-140295475D01*
X132028230Y-140229105D01*
X131999793Y-140189638D01*
X131997693Y-140188029D01*
X132269333Y-140188029D01*
X132280063Y-140226671D01*
X132308926Y-140289110D01*
X132350937Y-140367260D01*
X132401107Y-140453033D01*
X132454450Y-140538345D01*
X132505978Y-140615108D01*
X132550705Y-140675237D01*
X132583643Y-140710644D01*
X132595366Y-140716667D01*
X132610892Y-140701111D01*
X132644193Y-140660400D01*
X132686395Y-140605542D01*
X132730410Y-140543669D01*
X132781010Y-140467535D01*
X132832834Y-140385886D01*
X132880519Y-140307471D01*
X132918702Y-140241039D01*
X132942020Y-140195335D01*
X132946667Y-140180977D01*
X132926681Y-140176033D01*
X132871449Y-140171802D01*
X132788053Y-140168590D01*
X132683579Y-140166704D01*
X132608000Y-140166334D01*
X132468109Y-140167665D01*
X132363673Y-140171565D01*
X132296856Y-140177897D01*
X132269823Y-140186522D01*
X132269333Y-140188029D01*
X131997693Y-140188029D01*
X131975544Y-140171064D01*
X131957125Y-140167218D01*
X131928739Y-140162305D01*
X131914582Y-140141756D01*
X131909842Y-140094790D01*
X131909500Y-140060500D01*
X131909500Y-139954667D01*
X132481000Y-139954667D01*
X132481000Y-139510167D01*
X131824833Y-139510167D01*
X131824833Y-139298500D01*
X132481000Y-139298500D01*
X132481000Y-138875167D01*
X132692667Y-138875167D01*
X132692667Y-139298500D01*
G37*
X132692667Y-139298500D02*
X133348833Y-139298500D01*
X133348833Y-139510167D01*
X132692667Y-139510167D01*
X132692667Y-139954667D01*
X133221833Y-139954667D01*
X133221626Y-140065792D01*
X133206301Y-140167846D01*
X133162780Y-140292098D01*
X133094251Y-140432336D01*
X133003899Y-140582346D01*
X132894912Y-140735915D01*
X132846358Y-140797507D01*
X132772098Y-140888931D01*
X132820075Y-140924507D01*
X132940225Y-141005320D01*
X133079308Y-141086094D01*
X133215908Y-141154677D01*
X133258532Y-141173288D01*
X133328908Y-141202734D01*
X133382050Y-141225351D01*
X133407667Y-141236753D01*
X133408430Y-141237176D01*
X133402370Y-141256243D01*
X133379986Y-141301756D01*
X133348725Y-141359182D01*
X133282340Y-141476809D01*
X133162128Y-141423854D01*
X133036196Y-141362585D01*
X132906604Y-141289631D01*
X132787258Y-141213390D01*
X132692062Y-141142261D01*
X132682725Y-141134297D01*
X132598701Y-141061285D01*
X132463225Y-141165121D01*
X132243492Y-141308899D01*
X131990407Y-141429396D01*
X131973129Y-141436283D01*
X131867500Y-141477918D01*
X131812993Y-141370354D01*
X131784597Y-141311182D01*
X131767581Y-141269493D01*
X131765202Y-141256428D01*
X131786738Y-141245886D01*
X131836853Y-141224292D01*
X131904802Y-141196272D01*
X131906425Y-141195615D01*
X132021622Y-141144299D01*
X132141168Y-141083162D01*
X132251814Y-141019525D01*
X132340310Y-140960713D01*
X132362312Y-140943678D01*
X132423541Y-140893635D01*
X132323668Y-140757526D01*
X132272007Y-140680032D01*
X132211809Y-140578864D01*
X132151737Y-140469029D01*
X132114273Y-140394759D01*
X132065006Y-140295475D01*
X132028230Y-140229105D01*
X131999793Y-140189638D01*
X131997693Y-140188029D01*
X132269333Y-140188029D01*
X132280063Y-140226671D01*
X132308926Y-140289110D01*
X132350937Y-140367260D01*
X132401107Y-140453033D01*
X132454450Y-140538345D01*
X132505978Y-140615108D01*
X132550705Y-140675237D01*
X132583643Y-140710644D01*
X132595366Y-140716667D01*
X132610892Y-140701111D01*
X132644193Y-140660400D01*
X132686395Y-140605542D01*
X132730410Y-140543669D01*
X132781010Y-140467535D01*
X132832834Y-140385886D01*
X132880519Y-140307471D01*
X132918702Y-140241039D01*
X132942020Y-140195335D01*
X132946667Y-140180977D01*
X132926681Y-140176033D01*
X132871449Y-140171802D01*
X132788053Y-140168590D01*
X132683579Y-140166704D01*
X132608000Y-140166334D01*
X132468109Y-140167665D01*
X132363673Y-140171565D01*
X132296856Y-140177897D01*
X132269823Y-140186522D01*
X132269333Y-140188029D01*
X131997693Y-140188029D01*
X131975544Y-140171064D01*
X131957125Y-140167218D01*
X131928739Y-140162305D01*
X131914582Y-140141756D01*
X131909842Y-140094790D01*
X131909500Y-140060500D01*
X131909500Y-139954667D01*
X132481000Y-139954667D01*
X132481000Y-139510167D01*
X131824833Y-139510167D01*
X131824833Y-139298500D01*
X132481000Y-139298500D01*
X132481000Y-138875167D01*
X132692667Y-138875167D01*
X132692667Y-139298500D01*
G36*
X131422667Y-139383167D02*
G01*
X131719000Y-139383167D01*
X131719000Y-139616000D01*
X131422667Y-139616000D01*
X131422667Y-139683843D01*
X131430421Y-139725152D01*
X131455540Y-139782434D01*
X131500807Y-139860871D01*
X131569006Y-139965646D01*
X131593123Y-140001188D01*
X131763580Y-140250690D01*
X131697940Y-140346095D01*
X131659045Y-140398856D01*
X131628528Y-140433504D01*
X131616854Y-140441500D01*
X131601206Y-140423859D01*
X131572079Y-140376547D01*
X131534467Y-140307987D01*
X131513286Y-140266875D01*
X131425163Y-140092250D01*
X131422667Y-141457500D01*
X131189833Y-141457500D01*
X131188799Y-140880709D01*
X131187764Y-140303917D01*
X131138788Y-140431056D01*
X131103490Y-140516990D01*
X131062721Y-140607537D01*
X131021073Y-140693479D01*
X130983141Y-140765595D01*
X130953517Y-140814669D01*
X130939661Y-140830718D01*
X130915601Y-140823588D01*
X130875145Y-140792702D01*
X130851679Y-140770112D01*
X130781985Y-140698205D01*
X130877727Y-140511644D01*
X130998894Y-140245663D01*
X131094171Y-139966962D01*
X131125893Y-139850557D01*
X131151495Y-139749386D01*
X131164584Y-139682452D01*
X131161990Y-139642699D01*
X131140543Y-139623074D01*
X131097076Y-139616523D01*
X131028417Y-139615994D01*
X131020500Y-139616000D01*
X130872333Y-139616000D01*
X130872333Y-139383167D01*
X131189833Y-139383167D01*
X131189833Y-138875167D01*
X131422667Y-138875167D01*
X131422667Y-139383167D01*
G37*
X131422667Y-139383167D02*
X131719000Y-139383167D01*
X131719000Y-139616000D01*
X131422667Y-139616000D01*
X131422667Y-139683843D01*
X131430421Y-139725152D01*
X131455540Y-139782434D01*
X131500807Y-139860871D01*
X131569006Y-139965646D01*
X131593123Y-140001188D01*
X131763580Y-140250690D01*
X131697940Y-140346095D01*
X131659045Y-140398856D01*
X131628528Y-140433504D01*
X131616854Y-140441500D01*
X131601206Y-140423859D01*
X131572079Y-140376547D01*
X131534467Y-140307987D01*
X131513286Y-140266875D01*
X131425163Y-140092250D01*
X131422667Y-141457500D01*
X131189833Y-141457500D01*
X131188799Y-140880709D01*
X131187764Y-140303917D01*
X131138788Y-140431056D01*
X131103490Y-140516990D01*
X131062721Y-140607537D01*
X131021073Y-140693479D01*
X130983141Y-140765595D01*
X130953517Y-140814669D01*
X130939661Y-140830718D01*
X130915601Y-140823588D01*
X130875145Y-140792702D01*
X130851679Y-140770112D01*
X130781985Y-140698205D01*
X130877727Y-140511644D01*
X130998894Y-140245663D01*
X131094171Y-139966962D01*
X131125893Y-139850557D01*
X131151495Y-139749386D01*
X131164584Y-139682452D01*
X131161990Y-139642699D01*
X131140543Y-139623074D01*
X131097076Y-139616523D01*
X131028417Y-139615994D01*
X131020500Y-139616000D01*
X130872333Y-139616000D01*
X130872333Y-139383167D01*
X131189833Y-139383167D01*
X131189833Y-138875167D01*
X131422667Y-138875167D01*
X131422667Y-139383167D01*
G36*
X131508127Y-137246819D02*
G01*
X131538503Y-137255813D01*
X131548663Y-137279117D01*
X131549667Y-137308834D01*
X131549667Y-137372334D01*
X132057667Y-137372334D01*
X132056954Y-137536375D01*
X132053805Y-137670664D01*
X132046106Y-137805185D01*
X132034765Y-137931784D01*
X132020691Y-138042306D01*
X132004792Y-138128600D01*
X131987975Y-138182510D01*
X131984238Y-138189222D01*
X131944978Y-138234830D01*
X131911595Y-138260212D01*
X131854947Y-138277619D01*
X131768563Y-138288837D01*
X131664719Y-138292870D01*
X131558009Y-138288904D01*
X131493758Y-138282029D01*
X131458435Y-138268337D01*
X131438694Y-138238824D01*
X131425717Y-138199669D01*
X131408681Y-138139629D01*
X131405571Y-138102369D01*
X131422805Y-138083305D01*
X131466804Y-138077853D01*
X131543987Y-138081430D01*
X131587068Y-138084467D01*
X131681313Y-138089919D01*
X131747565Y-138086626D01*
X131791132Y-138068545D01*
X131817322Y-138029631D01*
X131831442Y-137963839D01*
X131838800Y-137865123D01*
X131841903Y-137794250D01*
X131851438Y-137562834D01*
X131511054Y-137562834D01*
X131497127Y-137645266D01*
X131468517Y-137746028D01*
X131417901Y-137860852D01*
X131353271Y-137973924D01*
X131283121Y-138068850D01*
X131219790Y-138132714D01*
X131146591Y-138193080D01*
X131073914Y-138242671D01*
X131012149Y-138274209D01*
X130979314Y-138281640D01*
X130944991Y-138269574D01*
X130902008Y-138240831D01*
X130860299Y-138204500D01*
X130829799Y-138169669D01*
X130820441Y-138145428D01*
X130825166Y-138140604D01*
X130881040Y-138111532D01*
X130954565Y-138062890D01*
X131032831Y-138004404D01*
X131102927Y-137945797D01*
X131151945Y-137896794D01*
X131156660Y-137890901D01*
X131204109Y-137819640D01*
X131247315Y-137739279D01*
X131279737Y-137663559D01*
X131294833Y-137606222D01*
X131295202Y-137599875D01*
X131290914Y-137582543D01*
X131272422Y-137571591D01*
X131232077Y-137565607D01*
X131162226Y-137563176D01*
X131094583Y-137562834D01*
X130893500Y-137562834D01*
X130893500Y-137372334D01*
X131317892Y-137372334D01*
X131330592Y-137308834D01*
X131341326Y-137270747D01*
X131361834Y-137252041D01*
X131404609Y-137245868D01*
X131446479Y-137245334D01*
X131508127Y-137246819D01*
G37*
X131508127Y-137246819D02*
X131538503Y-137255813D01*
X131548663Y-137279117D01*
X131549667Y-137308834D01*
X131549667Y-137372334D01*
X132057667Y-137372334D01*
X132056954Y-137536375D01*
X132053805Y-137670664D01*
X132046106Y-137805185D01*
X132034765Y-137931784D01*
X132020691Y-138042306D01*
X132004792Y-138128600D01*
X131987975Y-138182510D01*
X131984238Y-138189222D01*
X131944978Y-138234830D01*
X131911595Y-138260212D01*
X131854947Y-138277619D01*
X131768563Y-138288837D01*
X131664719Y-138292870D01*
X131558009Y-138288904D01*
X131493758Y-138282029D01*
X131458435Y-138268337D01*
X131438694Y-138238824D01*
X131425717Y-138199669D01*
X131408681Y-138139629D01*
X131405571Y-138102369D01*
X131422805Y-138083305D01*
X131466804Y-138077853D01*
X131543987Y-138081430D01*
X131587068Y-138084467D01*
X131681313Y-138089919D01*
X131747565Y-138086626D01*
X131791132Y-138068545D01*
X131817322Y-138029631D01*
X131831442Y-137963839D01*
X131838800Y-137865123D01*
X131841903Y-137794250D01*
X131851438Y-137562834D01*
X131511054Y-137562834D01*
X131497127Y-137645266D01*
X131468517Y-137746028D01*
X131417901Y-137860852D01*
X131353271Y-137973924D01*
X131283121Y-138068850D01*
X131219790Y-138132714D01*
X131146591Y-138193080D01*
X131073914Y-138242671D01*
X131012149Y-138274209D01*
X130979314Y-138281640D01*
X130944991Y-138269574D01*
X130902008Y-138240831D01*
X130860299Y-138204500D01*
X130829799Y-138169669D01*
X130820441Y-138145428D01*
X130825166Y-138140604D01*
X130881040Y-138111532D01*
X130954565Y-138062890D01*
X131032831Y-138004404D01*
X131102927Y-137945797D01*
X131151945Y-137896794D01*
X131156660Y-137890901D01*
X131204109Y-137819640D01*
X131247315Y-137739279D01*
X131279737Y-137663559D01*
X131294833Y-137606222D01*
X131295202Y-137599875D01*
X131290914Y-137582543D01*
X131272422Y-137571591D01*
X131232077Y-137565607D01*
X131162226Y-137563176D01*
X131094583Y-137562834D01*
X130893500Y-137562834D01*
X130893500Y-137372334D01*
X131317892Y-137372334D01*
X131330592Y-137308834D01*
X131341326Y-137270747D01*
X131361834Y-137252041D01*
X131404609Y-137245868D01*
X131446479Y-137245334D01*
X131508127Y-137246819D01*
G36*
X132734151Y-137246721D02*
G01*
X132765392Y-137255251D01*
X132776145Y-137277476D01*
X132777333Y-137308834D01*
X132777333Y-137372334D01*
X133334241Y-137372334D01*
X133320289Y-137673959D01*
X133310235Y-137843151D01*
X133296854Y-137975113D01*
X133279022Y-138074889D01*
X133255617Y-138147525D01*
X133225514Y-138198066D01*
X133197664Y-138224657D01*
X133108866Y-138267525D01*
X132989230Y-138289717D01*
X132845477Y-138290089D01*
X132823208Y-138288280D01*
X132746755Y-138279353D01*
X132700369Y-138263373D01*
X132672807Y-138230478D01*
X132652826Y-138170806D01*
X132642665Y-138129916D01*
X132628799Y-138072582D01*
X132838271Y-138085344D01*
X132934001Y-138090741D01*
X132996270Y-138091937D01*
X133033857Y-138087525D01*
X133055541Y-138076098D01*
X133070102Y-138056250D01*
X133074939Y-138047428D01*
X133087432Y-138005151D01*
X133099049Y-137932373D01*
X133108158Y-137840918D01*
X133111842Y-137779792D01*
X133121549Y-137562834D01*
X132742271Y-137562834D01*
X132718096Y-137667562D01*
X132656542Y-137845587D01*
X132560198Y-138007778D01*
X132434573Y-138146377D01*
X132313990Y-138236726D01*
X132211954Y-138299509D01*
X132121318Y-138221448D01*
X132030682Y-138143386D01*
X132121776Y-138102309D01*
X132236805Y-138031812D01*
X132343357Y-137932565D01*
X132432149Y-137815767D01*
X132493899Y-137692620D01*
X132511849Y-137631625D01*
X132526697Y-137562834D01*
X132184667Y-137562834D01*
X132184667Y-137372334D01*
X132565667Y-137372334D01*
X132565667Y-137308834D01*
X132567979Y-137271243D01*
X132582195Y-137252498D01*
X132619237Y-137246047D01*
X132671500Y-137245334D01*
X132734151Y-137246721D01*
G37*
X132734151Y-137246721D02*
X132765392Y-137255251D01*
X132776145Y-137277476D01*
X132777333Y-137308834D01*
X132777333Y-137372334D01*
X133334241Y-137372334D01*
X133320289Y-137673959D01*
X133310235Y-137843151D01*
X133296854Y-137975113D01*
X133279022Y-138074889D01*
X133255617Y-138147525D01*
X133225514Y-138198066D01*
X133197664Y-138224657D01*
X133108866Y-138267525D01*
X132989230Y-138289717D01*
X132845477Y-138290089D01*
X132823208Y-138288280D01*
X132746755Y-138279353D01*
X132700369Y-138263373D01*
X132672807Y-138230478D01*
X132652826Y-138170806D01*
X132642665Y-138129916D01*
X132628799Y-138072582D01*
X132838271Y-138085344D01*
X132934001Y-138090741D01*
X132996270Y-138091937D01*
X133033857Y-138087525D01*
X133055541Y-138076098D01*
X133070102Y-138056250D01*
X133074939Y-138047428D01*
X133087432Y-138005151D01*
X133099049Y-137932373D01*
X133108158Y-137840918D01*
X133111842Y-137779792D01*
X133121549Y-137562834D01*
X132742271Y-137562834D01*
X132718096Y-137667562D01*
X132656542Y-137845587D01*
X132560198Y-138007778D01*
X132434573Y-138146377D01*
X132313990Y-138236726D01*
X132211954Y-138299509D01*
X132121318Y-138221448D01*
X132030682Y-138143386D01*
X132121776Y-138102309D01*
X132236805Y-138031812D01*
X132343357Y-137932565D01*
X132432149Y-137815767D01*
X132493899Y-137692620D01*
X132511849Y-137631625D01*
X132526697Y-137562834D01*
X132184667Y-137562834D01*
X132184667Y-137372334D01*
X132565667Y-137372334D01*
X132565667Y-137308834D01*
X132567979Y-137271243D01*
X132582195Y-137252498D01*
X132619237Y-137246047D01*
X132671500Y-137245334D01*
X132734151Y-137246721D01*
G36*
X132090813Y-136409250D02*
G01*
X132076915Y-136483334D01*
X133185933Y-136483334D01*
X133172612Y-136701052D01*
X133164587Y-136800945D01*
X133153862Y-136892132D01*
X133142123Y-136961666D01*
X133135350Y-136987445D01*
X133093785Y-137054620D01*
X133021996Y-137101077D01*
X132918099Y-137127271D01*
X132780213Y-137133659D01*
X132606451Y-137120696D01*
X132591852Y-137118948D01*
X132381383Y-137093166D01*
X132358841Y-136994656D01*
X132346375Y-136936812D01*
X132339958Y-136900197D01*
X132339858Y-136893837D01*
X132360961Y-136894928D01*
X132413159Y-136899969D01*
X132485513Y-136907897D01*
X132491583Y-136908594D01*
X132645405Y-136922751D01*
X132769595Y-136926706D01*
X132860724Y-136920557D01*
X132915362Y-136904403D01*
X132925509Y-136896072D01*
X132944033Y-136856181D01*
X132959067Y-136793972D01*
X132962604Y-136769072D01*
X132973339Y-136673834D01*
X132003294Y-136673834D01*
X131968790Y-136732244D01*
X131880482Y-136845334D01*
X131757090Y-136950005D01*
X131605678Y-137041794D01*
X131433310Y-137116234D01*
X131295667Y-137157712D01*
X131181044Y-137186118D01*
X131100469Y-137204426D01*
X131046717Y-137211947D01*
X131012561Y-137207996D01*
X130990775Y-137191883D01*
X130974134Y-137162923D01*
X130957695Y-137125558D01*
X130933070Y-137068798D01*
X130917500Y-137030805D01*
X130914666Y-137022253D01*
X130933359Y-137015595D01*
X130980413Y-137005934D01*
X131004625Y-137001840D01*
X131170717Y-136968617D01*
X131330051Y-136924318D01*
X131474666Y-136871997D01*
X131596603Y-136814707D01*
X131687902Y-136755499D01*
X131717398Y-136728484D01*
X131768712Y-136673834D01*
X131041667Y-136673834D01*
X131041667Y-136483334D01*
X131865248Y-136483334D01*
X131879146Y-136409250D01*
X131889544Y-136365368D01*
X131907449Y-136343508D01*
X131945259Y-136335998D01*
X131998878Y-136335167D01*
X132104711Y-136335167D01*
X132090813Y-136409250D01*
G37*
X132090813Y-136409250D02*
X132076915Y-136483334D01*
X133185933Y-136483334D01*
X133172612Y-136701052D01*
X133164587Y-136800945D01*
X133153862Y-136892132D01*
X133142123Y-136961666D01*
X133135350Y-136987445D01*
X133093785Y-137054620D01*
X133021996Y-137101077D01*
X132918099Y-137127271D01*
X132780213Y-137133659D01*
X132606451Y-137120696D01*
X132591852Y-137118948D01*
X132381383Y-137093166D01*
X132358841Y-136994656D01*
X132346375Y-136936812D01*
X132339958Y-136900197D01*
X132339858Y-136893837D01*
X132360961Y-136894928D01*
X132413159Y-136899969D01*
X132485513Y-136907897D01*
X132491583Y-136908594D01*
X132645405Y-136922751D01*
X132769595Y-136926706D01*
X132860724Y-136920557D01*
X132915362Y-136904403D01*
X132925509Y-136896072D01*
X132944033Y-136856181D01*
X132959067Y-136793972D01*
X132962604Y-136769072D01*
X132973339Y-136673834D01*
X132003294Y-136673834D01*
X131968790Y-136732244D01*
X131880482Y-136845334D01*
X131757090Y-136950005D01*
X131605678Y-137041794D01*
X131433310Y-137116234D01*
X131295667Y-137157712D01*
X131181044Y-137186118D01*
X131100469Y-137204426D01*
X131046717Y-137211947D01*
X131012561Y-137207996D01*
X130990775Y-137191883D01*
X130974134Y-137162923D01*
X130957695Y-137125558D01*
X130933070Y-137068798D01*
X130917500Y-137030805D01*
X130914666Y-137022253D01*
X130933359Y-137015595D01*
X130980413Y-137005934D01*
X131004625Y-137001840D01*
X131170717Y-136968617D01*
X131330051Y-136924318D01*
X131474666Y-136871997D01*
X131596603Y-136814707D01*
X131687902Y-136755499D01*
X131717398Y-136728484D01*
X131768712Y-136673834D01*
X131041667Y-136673834D01*
X131041667Y-136483334D01*
X131865248Y-136483334D01*
X131879146Y-136409250D01*
X131889544Y-136365368D01*
X131907449Y-136343508D01*
X131945259Y-136335998D01*
X131998878Y-136335167D01*
X132104711Y-136335167D01*
X132090813Y-136409250D01*
G36*
X131740167Y-135954167D02*
G01*
X132481000Y-135954167D01*
X132481000Y-135721334D01*
X132692667Y-135721334D01*
X132692667Y-135954167D01*
X133370000Y-135954167D01*
X133370000Y-136165834D01*
X132692667Y-136165834D01*
X132692667Y-136377500D01*
X132481000Y-136377500D01*
X132481000Y-136165834D01*
X131740167Y-136165834D01*
X131740167Y-136377500D01*
X131507333Y-136377500D01*
X131507333Y-136165834D01*
X130830000Y-136165834D01*
X130830000Y-135954167D01*
X131507333Y-135954167D01*
X131507333Y-135721334D01*
X131740167Y-135721334D01*
X131740167Y-135954167D01*
G37*
X131740167Y-135954167D02*
X132481000Y-135954167D01*
X132481000Y-135721334D01*
X132692667Y-135721334D01*
X132692667Y-135954167D01*
X133370000Y-135954167D01*
X133370000Y-136165834D01*
X132692667Y-136165834D01*
X132692667Y-136377500D01*
X132481000Y-136377500D01*
X132481000Y-136165834D01*
X131740167Y-136165834D01*
X131740167Y-136377500D01*
X131507333Y-136377500D01*
X131507333Y-136165834D01*
X130830000Y-136165834D01*
X130830000Y-135954167D01*
X131507333Y-135954167D01*
X131507333Y-135721334D01*
X131740167Y-135721334D01*
X131740167Y-135954167D01*
D12*
X121380000Y-102970000D02*
X121380000Y-100230000D01*
X121380000Y-100230000D02*
X114840000Y-100230000D01*
X114840000Y-100230000D02*
X114840000Y-102970000D01*
X114840000Y-102970000D02*
X121380000Y-102970000D01*
X122150000Y-101600000D02*
X121380000Y-101600000D01*
X114070000Y-101600000D02*
X114840000Y-101600000D01*
X127060000Y-150555000D02*
X127060000Y-147895000D01*
X109220000Y-150555000D02*
X127060000Y-150555000D01*
X109220000Y-147895000D02*
X127060000Y-147895000D01*
X109220000Y-150555000D02*
X109220000Y-147895000D01*
X107950000Y-150555000D02*
X106620000Y-150555000D01*
X106620000Y-150555000D02*
X106620000Y-149225000D01*
X130788000Y-98624000D02*
X134388000Y-98624000D01*
X134426478Y-98612478D02*
G75*
G03*
X132588000Y-94174000I-1838478J1838478D01*
G01*
X130749522Y-98612478D02*
G75*
G02*
X132588000Y-94174000I1838478J1838478D01*
G01*
X120164000Y-92384000D02*
X116564000Y-92384000D01*
X116525522Y-92395522D02*
G75*
G03*
X118364000Y-96834000I1838478J-1838478D01*
G01*
X120202478Y-92395522D02*
G75*
G02*
X118364000Y-96834000I-1838478J-1838478D01*
G01*
X109280000Y-56455000D02*
X106620000Y-56455000D01*
X109280000Y-64135000D02*
X109280000Y-56455000D01*
X106620000Y-64135000D02*
X106620000Y-56455000D01*
X109280000Y-64135000D02*
X106620000Y-64135000D01*
X109280000Y-65405000D02*
X109280000Y-66735000D01*
X109280000Y-66735000D02*
X107950000Y-66735000D01*
X109280000Y-89475000D02*
X106620000Y-89475000D01*
X109280000Y-97155000D02*
X109280000Y-89475000D01*
X106620000Y-97155000D02*
X106620000Y-89475000D01*
X109280000Y-97155000D02*
X106620000Y-97155000D01*
X109280000Y-98425000D02*
X109280000Y-99755000D01*
X109280000Y-99755000D02*
X107950000Y-99755000D01*
X105410000Y-118110000D02*
X105410000Y-100330000D01*
X130810000Y-100330000D02*
X105410000Y-100330000D01*
X130810000Y-118110000D02*
X105410000Y-118110000D01*
X130810000Y-100330000D02*
X130810000Y-118110000D01*
X114300000Y-118110000D02*
X114300000Y-97028000D01*
X114300000Y-97028000D02*
X129032000Y-97028000D01*
X129032000Y-97028000D02*
X129032000Y-118110000D01*
X129032000Y-118110000D02*
X110490000Y-118110000D01*
X114300000Y-118110000D02*
X114300000Y-105410000D01*
X114300000Y-105410000D02*
X134620000Y-105410000D01*
X134620000Y-105410000D02*
X134620000Y-118110000D01*
X134620000Y-118110000D02*
X130810000Y-118110000D01*
X121920000Y-129540000D02*
X124460000Y-129540000D01*
X121920000Y-121666000D02*
X121920000Y-129540000D01*
X109220000Y-121666000D02*
X121920000Y-121666000D01*
X109220000Y-129540000D02*
X109220000Y-121666000D01*
X106680000Y-129540000D02*
X109220000Y-129540000D01*
X125730000Y-147320000D02*
X124460000Y-147320000D01*
X125730000Y-129540000D02*
X125730000Y-147320000D01*
X124460000Y-129540000D02*
X125730000Y-129540000D01*
X124460000Y-147320000D02*
X110490000Y-147320000D01*
X125730000Y-129540000D02*
X125730000Y-147320000D01*
X106680000Y-129540000D02*
X109220000Y-129540000D01*
X106680000Y-147320000D02*
X106680000Y-129540000D01*
X110490000Y-147320000D02*
X106680000Y-147320000D01*
X134270000Y-144780000D02*
G75*
G03*
X134270000Y-144780000I-920000J0D01*
G01*
X132430000Y-144780000D02*
X131810000Y-144780000D01*
X123348000Y-95885000D02*
G75*
G03*
X123348000Y-95885000I-920000J0D01*
G01*
X122428000Y-94965000D02*
X122428000Y-94345000D01*
X114322000Y-95686000D02*
X110722000Y-95686000D01*
X110683522Y-95697522D02*
G75*
G03*
X112522000Y-100136000I1838478J-1838478D01*
G01*
X114360478Y-95697522D02*
G75*
G02*
X112522000Y-100136000I-1838478J-1838478D01*
G01*
X125349000Y-70485000D02*
G75*
G03*
X125349000Y-70485000I-5334000J0D01*
G01*
X120420000Y-113515000D02*
X113180000Y-113515000D01*
X120420000Y-111275000D02*
X113180000Y-111275000D01*
X120420000Y-113515000D02*
X120420000Y-111275000D01*
X113180000Y-113515000D02*
X113180000Y-111275000D01*
X114840000Y-103405000D02*
X114840000Y-106145000D01*
X114840000Y-106145000D02*
X121380000Y-106145000D01*
X121380000Y-106145000D02*
X121380000Y-103405000D01*
X121380000Y-103405000D02*
X114840000Y-103405000D01*
X114070000Y-104775000D02*
X114840000Y-104775000D01*
X122150000Y-104775000D02*
X121380000Y-104775000D01*
X112300000Y-107215000D02*
X112300000Y-109955000D01*
X112300000Y-109955000D02*
X118840000Y-109955000D01*
X118840000Y-109955000D02*
X118840000Y-107215000D01*
X118840000Y-107215000D02*
X112300000Y-107215000D01*
X111530000Y-108585000D02*
X112300000Y-108585000D01*
X119610000Y-108585000D02*
X118840000Y-108585000D01*
X123158000Y-63346000D02*
X123158000Y-60606000D01*
X123158000Y-60606000D02*
X116618000Y-60606000D01*
X116618000Y-60606000D02*
X116618000Y-63346000D01*
X116618000Y-63346000D02*
X123158000Y-63346000D01*
X123928000Y-61976000D02*
X123158000Y-61976000D01*
X115848000Y-61976000D02*
X116618000Y-61976000D01*
X113130000Y-67215000D02*
X110390000Y-67215000D01*
X110390000Y-67215000D02*
X110390000Y-73755000D01*
X110390000Y-73755000D02*
X113130000Y-73755000D01*
X113130000Y-73755000D02*
X113130000Y-67215000D01*
X111760000Y-66445000D02*
X111760000Y-67215000D01*
X111760000Y-74525000D02*
X111760000Y-73755000D01*
X116618000Y-77370000D02*
X116618000Y-80110000D01*
X116618000Y-80110000D02*
X123158000Y-80110000D01*
X123158000Y-80110000D02*
X123158000Y-77370000D01*
X123158000Y-77370000D02*
X116618000Y-77370000D01*
X115848000Y-78740000D02*
X116618000Y-78740000D01*
X123928000Y-78740000D02*
X123158000Y-78740000D01*
X129640000Y-104680000D02*
X126900000Y-104680000D01*
X126900000Y-104680000D02*
X126900000Y-111220000D01*
X126900000Y-111220000D02*
X129640000Y-111220000D01*
X129640000Y-111220000D02*
X129640000Y-104680000D01*
X128270000Y-103910000D02*
X128270000Y-104680000D01*
X128270000Y-111990000D02*
X128270000Y-111220000D01*
X112970000Y-89475000D02*
X112970000Y-92135000D01*
X130810000Y-89475000D02*
X112970000Y-89475000D01*
X130810000Y-92135000D02*
X112970000Y-92135000D01*
X130810000Y-89475000D02*
X130810000Y-92135000D01*
X132080000Y-89475000D02*
X133410000Y-89475000D01*
X133410000Y-89475000D02*
X133410000Y-90805000D01*
D10*
X117933333Y-102052380D02*
X117600000Y-101576190D01*
X117361904Y-102052380D02*
X117361904Y-101052380D01*
X117742857Y-101052380D01*
X117838095Y-101100000D01*
X117885714Y-101147619D01*
X117933333Y-101242857D01*
X117933333Y-101385714D01*
X117885714Y-101480952D01*
X117838095Y-101528571D01*
X117742857Y-101576190D01*
X117361904Y-101576190D01*
X118504761Y-101480952D02*
X118409523Y-101433333D01*
X118361904Y-101385714D01*
X118314285Y-101290476D01*
X118314285Y-101242857D01*
X118361904Y-101147619D01*
X118409523Y-101100000D01*
X118504761Y-101052380D01*
X118695238Y-101052380D01*
X118790476Y-101100000D01*
X118838095Y-101147619D01*
X118885714Y-101242857D01*
X118885714Y-101290476D01*
X118838095Y-101385714D01*
X118790476Y-101433333D01*
X118695238Y-101480952D01*
X118504761Y-101480952D01*
X118409523Y-101528571D01*
X118361904Y-101576190D01*
X118314285Y-101671428D01*
X118314285Y-101861904D01*
X118361904Y-101957142D01*
X118409523Y-102004761D01*
X118504761Y-102052380D01*
X118695238Y-102052380D01*
X118790476Y-102004761D01*
X118838095Y-101957142D01*
X118885714Y-101861904D01*
X118885714Y-101671428D01*
X118838095Y-101576190D01*
X118790476Y-101528571D01*
X118695238Y-101480952D01*
X133707142Y-110680238D02*
X133754761Y-110727857D01*
X133802380Y-110870714D01*
X133802380Y-110965952D01*
X133754761Y-111108809D01*
X133659523Y-111204047D01*
X133564285Y-111251666D01*
X133373809Y-111299285D01*
X133230952Y-111299285D01*
X133040476Y-111251666D01*
X132945238Y-111204047D01*
X132850000Y-111108809D01*
X132802380Y-110965952D01*
X132802380Y-110870714D01*
X132850000Y-110727857D01*
X132897619Y-110680238D01*
X133707142Y-109680238D02*
X133754761Y-109727857D01*
X133802380Y-109870714D01*
X133802380Y-109965952D01*
X133754761Y-110108809D01*
X133659523Y-110204047D01*
X133564285Y-110251666D01*
X133373809Y-110299285D01*
X133230952Y-110299285D01*
X133040476Y-110251666D01*
X132945238Y-110204047D01*
X132850000Y-110108809D01*
X132802380Y-109965952D01*
X132802380Y-109870714D01*
X132850000Y-109727857D01*
X132897619Y-109680238D01*
X133754761Y-109299285D02*
X133802380Y-109156428D01*
X133802380Y-108918333D01*
X133754761Y-108823095D01*
X133707142Y-108775476D01*
X133611904Y-108727857D01*
X133516666Y-108727857D01*
X133421428Y-108775476D01*
X133373809Y-108823095D01*
X133326190Y-108918333D01*
X133278571Y-109108809D01*
X133230952Y-109204047D01*
X133183333Y-109251666D01*
X133088095Y-109299285D01*
X132992857Y-109299285D01*
X132897619Y-109251666D01*
X132850000Y-109204047D01*
X132802380Y-109108809D01*
X132802380Y-108870714D01*
X132850000Y-108727857D01*
X133230952Y-108156428D02*
X133183333Y-108251666D01*
X133135714Y-108299285D01*
X133040476Y-108346904D01*
X132992857Y-108346904D01*
X132897619Y-108299285D01*
X132850000Y-108251666D01*
X132802380Y-108156428D01*
X132802380Y-107965952D01*
X132850000Y-107870714D01*
X132897619Y-107823095D01*
X132992857Y-107775476D01*
X133040476Y-107775476D01*
X133135714Y-107823095D01*
X133183333Y-107870714D01*
X133230952Y-107965952D01*
X133230952Y-108156428D01*
X133278571Y-108251666D01*
X133326190Y-108299285D01*
X133421428Y-108346904D01*
X133611904Y-108346904D01*
X133707142Y-108299285D01*
X133754761Y-108251666D01*
X133802380Y-108156428D01*
X133802380Y-107965952D01*
X133754761Y-107870714D01*
X133707142Y-107823095D01*
X133611904Y-107775476D01*
X133421428Y-107775476D01*
X133326190Y-107823095D01*
X133278571Y-107870714D01*
X133230952Y-107965952D01*
X133802380Y-106823095D02*
X133802380Y-107394523D01*
X133802380Y-107108809D02*
X132802380Y-107108809D01*
X132945238Y-107204047D01*
X133040476Y-107299285D01*
X133088095Y-107394523D01*
X133802380Y-105870714D02*
X133802380Y-106442142D01*
X133802380Y-106156428D02*
X132802380Y-106156428D01*
X132945238Y-106251666D01*
X133040476Y-106346904D01*
X133088095Y-106442142D01*
X119539047Y-98353571D02*
X119681904Y-98401190D01*
X119729523Y-98448809D01*
X119777142Y-98544047D01*
X119777142Y-98686904D01*
X119729523Y-98782142D01*
X119681904Y-98829761D01*
X119586666Y-98877380D01*
X119205714Y-98877380D01*
X119205714Y-97877380D01*
X119539047Y-97877380D01*
X119634285Y-97925000D01*
X119681904Y-97972619D01*
X119729523Y-98067857D01*
X119729523Y-98163095D01*
X119681904Y-98258333D01*
X119634285Y-98305952D01*
X119539047Y-98353571D01*
X119205714Y-98353571D01*
X120205714Y-98877380D02*
X120205714Y-97877380D01*
X120539047Y-98591666D01*
X120872380Y-97877380D01*
X120872380Y-98877380D01*
X121348571Y-98353571D02*
X121681904Y-98353571D01*
X121824761Y-98877380D02*
X121348571Y-98877380D01*
X121348571Y-97877380D01*
X121824761Y-97877380D01*
X122681904Y-97877380D02*
X122491428Y-97877380D01*
X122396190Y-97925000D01*
X122348571Y-97972619D01*
X122253333Y-98115476D01*
X122205714Y-98305952D01*
X122205714Y-98686904D01*
X122253333Y-98782142D01*
X122300952Y-98829761D01*
X122396190Y-98877380D01*
X122586666Y-98877380D01*
X122681904Y-98829761D01*
X122729523Y-98782142D01*
X122777142Y-98686904D01*
X122777142Y-98448809D01*
X122729523Y-98353571D01*
X122681904Y-98305952D01*
X122586666Y-98258333D01*
X122396190Y-98258333D01*
X122300952Y-98305952D01*
X122253333Y-98353571D01*
X122205714Y-98448809D01*
X123348571Y-98305952D02*
X123253333Y-98258333D01*
X123205714Y-98210714D01*
X123158095Y-98115476D01*
X123158095Y-98067857D01*
X123205714Y-97972619D01*
X123253333Y-97925000D01*
X123348571Y-97877380D01*
X123539047Y-97877380D01*
X123634285Y-97925000D01*
X123681904Y-97972619D01*
X123729523Y-98067857D01*
X123729523Y-98115476D01*
X123681904Y-98210714D01*
X123634285Y-98258333D01*
X123539047Y-98305952D01*
X123348571Y-98305952D01*
X123253333Y-98353571D01*
X123205714Y-98401190D01*
X123158095Y-98496428D01*
X123158095Y-98686904D01*
X123205714Y-98782142D01*
X123253333Y-98829761D01*
X123348571Y-98877380D01*
X123539047Y-98877380D01*
X123634285Y-98829761D01*
X123681904Y-98782142D01*
X123729523Y-98686904D01*
X123729523Y-98496428D01*
X123681904Y-98401190D01*
X123634285Y-98353571D01*
X123539047Y-98305952D01*
X124348571Y-97877380D02*
X124443809Y-97877380D01*
X124539047Y-97925000D01*
X124586666Y-97972619D01*
X124634285Y-98067857D01*
X124681904Y-98258333D01*
X124681904Y-98496428D01*
X124634285Y-98686904D01*
X124586666Y-98782142D01*
X124539047Y-98829761D01*
X124443809Y-98877380D01*
X124348571Y-98877380D01*
X124253333Y-98829761D01*
X124205714Y-98782142D01*
X124158095Y-98686904D01*
X124110476Y-98496428D01*
X124110476Y-98258333D01*
X124158095Y-98067857D01*
X124205714Y-97972619D01*
X124253333Y-97925000D01*
X124348571Y-97877380D01*
X107084761Y-105743095D02*
X107132380Y-105600238D01*
X107132380Y-105362142D01*
X107084761Y-105266904D01*
X107037142Y-105219285D01*
X106941904Y-105171666D01*
X106846666Y-105171666D01*
X106751428Y-105219285D01*
X106703809Y-105266904D01*
X106656190Y-105362142D01*
X106608571Y-105552619D01*
X106560952Y-105647857D01*
X106513333Y-105695476D01*
X106418095Y-105743095D01*
X106322857Y-105743095D01*
X106227619Y-105695476D01*
X106180000Y-105647857D01*
X106132380Y-105552619D01*
X106132380Y-105314523D01*
X106180000Y-105171666D01*
X106180000Y-104219285D02*
X106132380Y-104314523D01*
X106132380Y-104457380D01*
X106180000Y-104600238D01*
X106275238Y-104695476D01*
X106370476Y-104743095D01*
X106560952Y-104790714D01*
X106703809Y-104790714D01*
X106894285Y-104743095D01*
X106989523Y-104695476D01*
X107084761Y-104600238D01*
X107132380Y-104457380D01*
X107132380Y-104362142D01*
X107084761Y-104219285D01*
X107037142Y-104171666D01*
X106703809Y-104171666D01*
X106703809Y-104362142D01*
X107132380Y-103743095D02*
X106132380Y-103743095D01*
X106132380Y-103362142D01*
X106180000Y-103266904D01*
X106227619Y-103219285D01*
X106322857Y-103171666D01*
X106465714Y-103171666D01*
X106560952Y-103219285D01*
X106608571Y-103266904D01*
X106656190Y-103362142D01*
X106656190Y-103743095D01*
X106465714Y-102314523D02*
X107132380Y-102314523D01*
X106084761Y-102552619D02*
X106799047Y-102790714D01*
X106799047Y-102171666D01*
X106132380Y-101600238D02*
X106132380Y-101505000D01*
X106180000Y-101409761D01*
X106227619Y-101362142D01*
X106322857Y-101314523D01*
X106513333Y-101266904D01*
X106751428Y-101266904D01*
X106941904Y-101314523D01*
X107037142Y-101362142D01*
X107084761Y-101409761D01*
X107132380Y-101505000D01*
X107132380Y-101600238D01*
X107084761Y-101695476D01*
X107037142Y-101743095D01*
X106941904Y-101790714D01*
X106751428Y-101838333D01*
X106513333Y-101838333D01*
X106322857Y-101790714D01*
X106227619Y-101743095D01*
X106180000Y-101695476D01*
X106132380Y-101600238D01*
X110079404Y-137930000D02*
X109984166Y-137882380D01*
X109841309Y-137882380D01*
X109698452Y-137930000D01*
X109603214Y-138025238D01*
X109555595Y-138120476D01*
X109507976Y-138310952D01*
X109507976Y-138453809D01*
X109555595Y-138644285D01*
X109603214Y-138739523D01*
X109698452Y-138834761D01*
X109841309Y-138882380D01*
X109936547Y-138882380D01*
X110079404Y-138834761D01*
X110127023Y-138787142D01*
X110127023Y-138453809D01*
X109936547Y-138453809D01*
X110555595Y-138882380D02*
X110555595Y-137882380D01*
X111127023Y-138882380D01*
X111127023Y-137882380D01*
X111603214Y-138882380D02*
X111603214Y-137882380D01*
X111841309Y-137882380D01*
X111984166Y-137930000D01*
X112079404Y-138025238D01*
X112127023Y-138120476D01*
X112174642Y-138310952D01*
X112174642Y-138453809D01*
X112127023Y-138644285D01*
X112079404Y-138739523D01*
X111984166Y-138834761D01*
X111841309Y-138882380D01*
X111603214Y-138882380D01*
X109412738Y-135342380D02*
X109746071Y-136342380D01*
X110079404Y-135342380D01*
X110412738Y-136342380D02*
X110412738Y-135342380D01*
X110888928Y-136342380D02*
X110888928Y-135342380D01*
X111460357Y-136342380D01*
X111460357Y-135342380D01*
X110031785Y-132802380D02*
X109555595Y-132802380D01*
X109507976Y-133278571D01*
X109555595Y-133230952D01*
X109650833Y-133183333D01*
X109888928Y-133183333D01*
X109984166Y-133230952D01*
X110031785Y-133278571D01*
X110079404Y-133373809D01*
X110079404Y-133611904D01*
X110031785Y-133707142D01*
X109984166Y-133754761D01*
X109888928Y-133802380D01*
X109650833Y-133802380D01*
X109555595Y-133754761D01*
X109507976Y-133707142D01*
X110365119Y-132802380D02*
X110698452Y-133802380D01*
X111031785Y-132802380D01*
X122451904Y-144597380D02*
X122451904Y-143597380D01*
X122832857Y-143597380D01*
X122928095Y-143645000D01*
X122975714Y-143692619D01*
X123023333Y-143787857D01*
X123023333Y-143930714D01*
X122975714Y-144025952D01*
X122928095Y-144073571D01*
X122832857Y-144121190D01*
X122451904Y-144121190D01*
X123928095Y-143597380D02*
X123451904Y-143597380D01*
X123404285Y-144073571D01*
X123451904Y-144025952D01*
X123547142Y-143978333D01*
X123785238Y-143978333D01*
X123880476Y-144025952D01*
X123928095Y-144073571D01*
X123975714Y-144168809D01*
X123975714Y-144406904D01*
X123928095Y-144502142D01*
X123880476Y-144549761D01*
X123785238Y-144597380D01*
X123547142Y-144597380D01*
X123451904Y-144549761D01*
X123404285Y-144502142D01*
X119911904Y-144597380D02*
X119911904Y-143597380D01*
X120292857Y-143597380D01*
X120388095Y-143645000D01*
X120435714Y-143692619D01*
X120483333Y-143787857D01*
X120483333Y-143930714D01*
X120435714Y-144025952D01*
X120388095Y-144073571D01*
X120292857Y-144121190D01*
X119911904Y-144121190D01*
X121340476Y-143930714D02*
X121340476Y-144597380D01*
X121102380Y-143549761D02*
X120864285Y-144264047D01*
X121483333Y-144264047D01*
X117371904Y-144597380D02*
X117371904Y-143597380D01*
X117752857Y-143597380D01*
X117848095Y-143645000D01*
X117895714Y-143692619D01*
X117943333Y-143787857D01*
X117943333Y-143930714D01*
X117895714Y-144025952D01*
X117848095Y-144073571D01*
X117752857Y-144121190D01*
X117371904Y-144121190D01*
X118276666Y-143597380D02*
X118895714Y-143597380D01*
X118562380Y-143978333D01*
X118705238Y-143978333D01*
X118800476Y-144025952D01*
X118848095Y-144073571D01*
X118895714Y-144168809D01*
X118895714Y-144406904D01*
X118848095Y-144502142D01*
X118800476Y-144549761D01*
X118705238Y-144597380D01*
X118419523Y-144597380D01*
X118324285Y-144549761D01*
X118276666Y-144502142D01*
X114831904Y-144597380D02*
X114831904Y-143597380D01*
X115212857Y-143597380D01*
X115308095Y-143645000D01*
X115355714Y-143692619D01*
X115403333Y-143787857D01*
X115403333Y-143930714D01*
X115355714Y-144025952D01*
X115308095Y-144073571D01*
X115212857Y-144121190D01*
X114831904Y-144121190D01*
X115784285Y-143692619D02*
X115831904Y-143645000D01*
X115927142Y-143597380D01*
X116165238Y-143597380D01*
X116260476Y-143645000D01*
X116308095Y-143692619D01*
X116355714Y-143787857D01*
X116355714Y-143883095D01*
X116308095Y-144025952D01*
X115736666Y-144597380D01*
X116355714Y-144597380D01*
X112291904Y-144597380D02*
X112291904Y-143597380D01*
X112672857Y-143597380D01*
X112768095Y-143645000D01*
X112815714Y-143692619D01*
X112863333Y-143787857D01*
X112863333Y-143930714D01*
X112815714Y-144025952D01*
X112768095Y-144073571D01*
X112672857Y-144121190D01*
X112291904Y-144121190D01*
X113815714Y-144597380D02*
X113244285Y-144597380D01*
X113530000Y-144597380D02*
X113530000Y-143597380D01*
X113434761Y-143740238D01*
X113339523Y-143835476D01*
X113244285Y-143883095D01*
X109751904Y-144597380D02*
X109751904Y-143597380D01*
X110132857Y-143597380D01*
X110228095Y-143645000D01*
X110275714Y-143692619D01*
X110323333Y-143787857D01*
X110323333Y-143930714D01*
X110275714Y-144025952D01*
X110228095Y-144073571D01*
X110132857Y-144121190D01*
X109751904Y-144121190D01*
X110942380Y-143597380D02*
X111037619Y-143597380D01*
X111132857Y-143645000D01*
X111180476Y-143692619D01*
X111228095Y-143787857D01*
X111275714Y-143978333D01*
X111275714Y-144216428D01*
X111228095Y-144406904D01*
X111180476Y-144502142D01*
X111132857Y-144549761D01*
X111037619Y-144597380D01*
X110942380Y-144597380D01*
X110847142Y-144549761D01*
X110799523Y-144502142D01*
X110751904Y-144406904D01*
X110704285Y-144216428D01*
X110704285Y-143978333D01*
X110751904Y-143787857D01*
X110799523Y-143692619D01*
X110847142Y-143645000D01*
X110942380Y-143597380D01*
X117933333Y-105152380D02*
X117600000Y-104676190D01*
X117361904Y-105152380D02*
X117361904Y-104152380D01*
X117742857Y-104152380D01*
X117838095Y-104200000D01*
X117885714Y-104247619D01*
X117933333Y-104342857D01*
X117933333Y-104485714D01*
X117885714Y-104580952D01*
X117838095Y-104628571D01*
X117742857Y-104676190D01*
X117361904Y-104676190D01*
X118885714Y-105152380D02*
X118314285Y-105152380D01*
X118600000Y-105152380D02*
X118600000Y-104152380D01*
X118504761Y-104295238D01*
X118409523Y-104390476D01*
X118314285Y-104438095D01*
X115433333Y-109052380D02*
X115100000Y-108576190D01*
X114861904Y-109052380D02*
X114861904Y-108052380D01*
X115242857Y-108052380D01*
X115338095Y-108100000D01*
X115385714Y-108147619D01*
X115433333Y-108242857D01*
X115433333Y-108385714D01*
X115385714Y-108480952D01*
X115338095Y-108528571D01*
X115242857Y-108576190D01*
X114861904Y-108576190D01*
X115814285Y-108147619D02*
X115861904Y-108100000D01*
X115957142Y-108052380D01*
X116195238Y-108052380D01*
X116290476Y-108100000D01*
X116338095Y-108147619D01*
X116385714Y-108242857D01*
X116385714Y-108338095D01*
X116338095Y-108480952D01*
X115766666Y-109052380D01*
X116385714Y-109052380D01*
X119721333Y-62552380D02*
X119388000Y-62076190D01*
X119149904Y-62552380D02*
X119149904Y-61552380D01*
X119530857Y-61552380D01*
X119626095Y-61600000D01*
X119673714Y-61647619D01*
X119721333Y-61742857D01*
X119721333Y-61885714D01*
X119673714Y-61980952D01*
X119626095Y-62028571D01*
X119530857Y-62076190D01*
X119149904Y-62076190D01*
X120054666Y-61552380D02*
X120673714Y-61552380D01*
X120340380Y-61933333D01*
X120483238Y-61933333D01*
X120578476Y-61980952D01*
X120626095Y-62028571D01*
X120673714Y-62123809D01*
X120673714Y-62361904D01*
X120626095Y-62457142D01*
X120578476Y-62504761D01*
X120483238Y-62552380D01*
X120197523Y-62552380D01*
X120102285Y-62504761D01*
X120054666Y-62457142D01*
X112252380Y-70566666D02*
X111776190Y-70900000D01*
X112252380Y-71138095D02*
X111252380Y-71138095D01*
X111252380Y-70757142D01*
X111300000Y-70661904D01*
X111347619Y-70614285D01*
X111442857Y-70566666D01*
X111585714Y-70566666D01*
X111680952Y-70614285D01*
X111728571Y-70661904D01*
X111776190Y-70757142D01*
X111776190Y-71138095D01*
X111585714Y-69709523D02*
X112252380Y-69709523D01*
X111204761Y-69947619D02*
X111919047Y-70185714D01*
X111919047Y-69566666D01*
X119721333Y-79152380D02*
X119388000Y-78676190D01*
X119149904Y-79152380D02*
X119149904Y-78152380D01*
X119530857Y-78152380D01*
X119626095Y-78200000D01*
X119673714Y-78247619D01*
X119721333Y-78342857D01*
X119721333Y-78485714D01*
X119673714Y-78580952D01*
X119626095Y-78628571D01*
X119530857Y-78676190D01*
X119149904Y-78676190D01*
X120626095Y-78152380D02*
X120149904Y-78152380D01*
X120102285Y-78628571D01*
X120149904Y-78580952D01*
X120245142Y-78533333D01*
X120483238Y-78533333D01*
X120578476Y-78580952D01*
X120626095Y-78628571D01*
X120673714Y-78723809D01*
X120673714Y-78961904D01*
X120626095Y-79057142D01*
X120578476Y-79104761D01*
X120483238Y-79152380D01*
X120245142Y-79152380D01*
X120149904Y-79104761D01*
X120102285Y-79057142D01*
X128752380Y-108066666D02*
X128276190Y-108400000D01*
X128752380Y-108638095D02*
X127752380Y-108638095D01*
X127752380Y-108257142D01*
X127800000Y-108161904D01*
X127847619Y-108114285D01*
X127942857Y-108066666D01*
X128085714Y-108066666D01*
X128180952Y-108114285D01*
X128228571Y-108161904D01*
X128276190Y-108257142D01*
X128276190Y-108638095D01*
X127752380Y-107733333D02*
X127752380Y-107066666D01*
X128752380Y-107495238D01*
%LPC*%
D13*
X120015000Y-118110000D03*
X118110000Y-85090000D03*
X123825000Y-118110000D03*
X123825000Y-85090000D03*
X118110000Y-88900000D03*
X116205000Y-118110000D03*
X121920000Y-118110000D03*
X121920000Y-85090000D03*
X116205000Y-85090000D03*
X123825000Y-121920000D03*
X116205000Y-121920000D03*
X118110000Y-118110000D03*
X123825000Y-88900000D03*
X120015000Y-85090000D03*
X120015000Y-121920000D03*
X121920000Y-121920000D03*
X120015000Y-88900000D03*
X116205000Y-88900000D03*
X118110000Y-121920000D03*
X121920000Y-88900000D03*
D14*
X113030000Y-101600000D03*
D15*
X123190000Y-101600000D03*
D16*
X125730000Y-149225000D03*
X123190000Y-149225000D03*
X120650000Y-149225000D03*
X118110000Y-149225000D03*
X115570000Y-149225000D03*
X113030000Y-149225000D03*
X110490000Y-149225000D03*
D17*
X107950000Y-149225000D03*
D18*
X131318000Y-96774000D03*
D19*
X133858000Y-96774000D03*
X132588000Y-95504000D03*
D18*
X119634000Y-94234000D03*
D19*
X117094000Y-94234000D03*
X118364000Y-95504000D03*
D16*
X107950000Y-57785000D03*
X107950000Y-60325000D03*
X107950000Y-62865000D03*
D17*
X107950000Y-65405000D03*
D16*
X107950000Y-90805000D03*
X107950000Y-93345000D03*
X107950000Y-95885000D03*
D17*
X107950000Y-98425000D03*
D20*
X132080000Y-77470000D03*
X132080000Y-148590000D03*
X107950000Y-77470000D03*
D21*
X133350000Y-115570000D03*
X130810000Y-115570000D03*
X128270000Y-115570000D03*
X125730000Y-115570000D03*
X123190000Y-115570000D03*
X120650000Y-115570000D03*
X118110000Y-115570000D03*
X115570000Y-115570000D03*
D22*
X113030000Y-115570000D03*
D21*
X123190000Y-146050000D03*
X120650000Y-146050000D03*
X118110000Y-146050000D03*
X115570000Y-146050000D03*
X113030000Y-146050000D03*
X110490000Y-146050000D03*
X107950000Y-138430000D03*
X107950000Y-135890000D03*
D23*
X107950000Y-133350000D03*
D24*
X130810000Y-144780000D03*
D25*
X133350000Y-144780000D03*
D24*
X122428000Y-93345000D03*
D25*
X122428000Y-95885000D03*
D18*
X113792000Y-97536000D03*
D19*
X111252000Y-97536000D03*
X112522000Y-98806000D03*
D21*
X122301000Y-69723000D03*
X120777000Y-71247000D03*
X119253000Y-69723000D03*
X117729000Y-71247000D03*
D15*
X114300000Y-112395000D03*
X119300000Y-112395000D03*
D21*
X110490000Y-133350000D03*
X130810000Y-133350000D03*
D14*
X123190000Y-104775000D03*
D15*
X113030000Y-104775000D03*
D14*
X120650000Y-108585000D03*
D15*
X110490000Y-108585000D03*
D14*
X114808000Y-61976000D03*
D15*
X124968000Y-61976000D03*
D14*
X111760000Y-75565000D03*
D15*
X111760000Y-65405000D03*
D14*
X124968000Y-78740000D03*
D15*
X114808000Y-78740000D03*
D14*
X128270000Y-113030000D03*
D15*
X128270000Y-102870000D03*
D16*
X114300000Y-90805000D03*
X116840000Y-90805000D03*
X119380000Y-90805000D03*
X121920000Y-90805000D03*
X124460000Y-90805000D03*
X127000000Y-90805000D03*
X129540000Y-90805000D03*
D17*
X132080000Y-90805000D03*
D20*
X132080000Y-124460000D03*
X107950000Y-110490000D03*
X132080000Y-129540000D03*
M02*
