M48
; DRILL file {KiCad 5.1.6} date Sat Dec 18 09:42:15 2021
; FORMAT={-:-/ absolute / metric / decimal}
; #@! TF.CreationDate,2021-12-18T09:42:15+01:00
; #@! TF.GenerationSoftware,Kicad,Pcbnew,5.1.6
; #@! TF.FileFunction,NonPlated,1,2,NPTH
FMAT,2
METRIC
T1C0.800
%
G90
G05
T1
X116.205Y-118.11
X118.11Y-118.11
X121.92Y-118.11
X116.205Y-85.09
X123.825Y-118.11
X121.92Y-85.09
X120.015Y-88.9
X116.205Y-88.9
X123.825Y-121.92
X116.205Y-121.92
X120.015Y-121.92
X118.11Y-121.92
X118.11Y-85.09
X121.92Y-88.9
X120.015Y-118.11
X123.825Y-85.09
X121.92Y-121.92
X118.11Y-88.9
X120.015Y-85.09
X123.825Y-88.9
T0
M30
