%FSLAX45Y45*%
G04 Gerber Fmt 4.5, Leading zero omitted, Abs format (unit mm)*
G04 Created by KiCad (PCBNEW 5.1.6) date 2021-12-18 09:42:13*
%MOMM*%
%LPD*%
G01*
G04 APERTURE LIST*
%TA.AperFunction,Profile*%
%ADD10C,0.050000*%
%TD*%
%ADD11C,0.200000*%
%ADD12C,0.300000*%
G04 APERTURE END LIST*
D10*
X13271500Y-12192000D02*
X12636500Y-12192000D01*
X12636500Y-11811000D02*
X13271500Y-11811000D01*
X11366500Y-12192000D02*
X10731500Y-12192000D01*
X10731500Y-11811000D02*
X11366500Y-11811000D01*
X11557000Y-12001500D02*
G75*
G02*
X11366500Y-12192000I-190500J0D01*
G01*
X11366500Y-11811000D02*
G75*
G02*
X11557000Y-12001500I0J-190500D01*
G01*
X12636500Y-12192000D02*
G75*
G02*
X12446000Y-12001500I0J190500D01*
G01*
X12446000Y-12001500D02*
G75*
G02*
X12636500Y-11811000I190500J0D01*
G01*
X12700000Y-8890000D02*
X12636500Y-8890000D01*
X13271500Y-8890000D02*
X12700000Y-8890000D01*
X12636500Y-8509000D02*
X13271500Y-8509000D01*
X11366500Y-8509000D02*
X10731500Y-8509000D01*
X10731500Y-8890000D02*
X11366500Y-8890000D01*
X12636500Y-8890000D02*
G75*
G02*
X12446000Y-8699500I0J190500D01*
G01*
X12446000Y-8699500D02*
G75*
G02*
X12636500Y-8509000I190500J0D01*
G01*
X11557000Y-8699500D02*
G75*
G02*
X11366500Y-8890000I-190500J0D01*
G01*
X11366500Y-8509000D02*
G75*
G02*
X11557000Y-8699500I0J-190500D01*
G01*
X10731500Y-8509000D02*
G75*
G02*
X10477500Y-8255000I0J254000D01*
G01*
X13525500Y-8255000D02*
G75*
G02*
X13271500Y-8509000I-254000J0D01*
G01*
X13271500Y-5588000D02*
G75*
G02*
X13525500Y-5842000I0J-254000D01*
G01*
X10477500Y-5842000D02*
G75*
G02*
X10731500Y-5588000I254000J0D01*
G01*
X10477500Y-12446000D02*
G75*
G02*
X10731500Y-12192000I254000J0D01*
G01*
X13271500Y-12192000D02*
G75*
G02*
X13525500Y-12446000I0J-254000D01*
G01*
X13525500Y-14859000D02*
G75*
G02*
X13271500Y-15113000I-254000J0D01*
G01*
X10731500Y-15113000D02*
G75*
G02*
X10477500Y-14859000I0J254000D01*
G01*
X10477500Y-9144000D02*
G75*
G02*
X10731500Y-8890000I254000J0D01*
G01*
X13271500Y-8890000D02*
G75*
G02*
X13525500Y-9144000I0J-254000D01*
G01*
X13525500Y-11557000D02*
G75*
G02*
X13271500Y-11811000I-254000J0D01*
G01*
X10731500Y-11811000D02*
G75*
G02*
X10477500Y-11557000I0J254000D01*
G01*
X13525500Y-5842000D02*
X13525500Y-8255000D01*
X10477500Y-5842000D02*
X10477500Y-8255000D01*
X13271500Y-5588000D02*
X10731500Y-5588000D01*
X10477500Y-14859000D02*
X10477500Y-12446000D01*
X13525500Y-14859000D02*
X13525500Y-12446000D01*
X10731500Y-15113000D02*
X13271500Y-15113000D01*
X10477500Y-9144000D02*
X10477500Y-11557000D01*
X13525500Y-9144000D02*
X13525500Y-11557000D01*
D11*
X11580500Y-11771000D02*
X11660500Y-11851000D01*
X11660500Y-11771000D02*
X11580500Y-11851000D01*
X11771000Y-11771000D02*
X11851000Y-11851000D01*
X11851000Y-11771000D02*
X11771000Y-11851000D01*
X12152000Y-11771000D02*
X12232000Y-11851000D01*
X12232000Y-11771000D02*
X12152000Y-11851000D01*
X11580500Y-8469000D02*
X11660500Y-8549000D01*
X11660500Y-8469000D02*
X11580500Y-8549000D01*
X12342500Y-11771000D02*
X12422500Y-11851000D01*
X12422500Y-11771000D02*
X12342500Y-11851000D01*
X12152000Y-8469000D02*
X12232000Y-8549000D01*
X12232000Y-8469000D02*
X12152000Y-8549000D01*
X11961500Y-8850000D02*
X12041500Y-8930000D01*
X12041500Y-8850000D02*
X11961500Y-8930000D01*
X11580500Y-8850000D02*
X11660500Y-8930000D01*
X11660500Y-8850000D02*
X11580500Y-8930000D01*
X12342500Y-12152000D02*
X12422500Y-12232000D01*
X12422500Y-12152000D02*
X12342500Y-12232000D01*
X11580500Y-12152000D02*
X11660500Y-12232000D01*
X11660500Y-12152000D02*
X11580500Y-12232000D01*
X11961500Y-12152000D02*
X12041500Y-12232000D01*
X12041500Y-12152000D02*
X11961500Y-12232000D01*
X11771000Y-12152000D02*
X11851000Y-12232000D01*
X11851000Y-12152000D02*
X11771000Y-12232000D01*
X11771000Y-8469000D02*
X11851000Y-8549000D01*
X11851000Y-8469000D02*
X11771000Y-8549000D01*
X12152000Y-8850000D02*
X12232000Y-8930000D01*
X12232000Y-8850000D02*
X12152000Y-8930000D01*
X11961500Y-11771000D02*
X12041500Y-11851000D01*
X12041500Y-11771000D02*
X11961500Y-11851000D01*
X12342500Y-8469000D02*
X12422500Y-8549000D01*
X12422500Y-8469000D02*
X12342500Y-8549000D01*
X12152000Y-12152000D02*
X12232000Y-12232000D01*
X12232000Y-12152000D02*
X12152000Y-12232000D01*
X11771000Y-8850000D02*
X11851000Y-8930000D01*
X11851000Y-8850000D02*
X11771000Y-8930000D01*
X11961500Y-8469000D02*
X12041500Y-8549000D01*
X12041500Y-8469000D02*
X11961500Y-8549000D01*
X12342500Y-8850000D02*
X12422500Y-8930000D01*
X12422500Y-8850000D02*
X12342500Y-8930000D01*
D12*
X10761428Y-15581214D02*
X10761428Y-15281214D01*
X10832857Y-15281214D01*
X10875714Y-15295500D01*
X10904286Y-15324071D01*
X10918571Y-15352643D01*
X10932857Y-15409786D01*
X10932857Y-15452643D01*
X10918571Y-15509786D01*
X10904286Y-15538357D01*
X10875714Y-15566929D01*
X10832857Y-15581214D01*
X10761428Y-15581214D01*
X11061428Y-15581214D02*
X11061428Y-15381214D01*
X11061428Y-15438357D02*
X11075714Y-15409786D01*
X11090000Y-15395500D01*
X11118571Y-15381214D01*
X11147143Y-15381214D01*
X11247143Y-15581214D02*
X11247143Y-15381214D01*
X11247143Y-15281214D02*
X11232857Y-15295500D01*
X11247143Y-15309786D01*
X11261428Y-15295500D01*
X11247143Y-15281214D01*
X11247143Y-15309786D01*
X11432857Y-15581214D02*
X11404286Y-15566929D01*
X11390000Y-15538357D01*
X11390000Y-15281214D01*
X11590000Y-15581214D02*
X11561428Y-15566929D01*
X11547143Y-15538357D01*
X11547143Y-15281214D01*
X11932857Y-15581214D02*
X11932857Y-15281214D01*
X12032857Y-15495500D01*
X12132857Y-15281214D01*
X12132857Y-15581214D01*
X12404286Y-15581214D02*
X12404286Y-15424071D01*
X12390000Y-15395500D01*
X12361428Y-15381214D01*
X12304286Y-15381214D01*
X12275714Y-15395500D01*
X12404286Y-15566929D02*
X12375714Y-15581214D01*
X12304286Y-15581214D01*
X12275714Y-15566929D01*
X12261428Y-15538357D01*
X12261428Y-15509786D01*
X12275714Y-15481214D01*
X12304286Y-15466929D01*
X12375714Y-15466929D01*
X12404286Y-15452643D01*
X12547143Y-15381214D02*
X12547143Y-15681214D01*
X12547143Y-15395500D02*
X12575714Y-15381214D01*
X12632857Y-15381214D01*
X12661428Y-15395500D01*
X12675714Y-15409786D01*
X12690000Y-15438357D01*
X12690000Y-15524071D01*
X12675714Y-15552643D01*
X12661428Y-15566929D01*
X12632857Y-15581214D01*
X12575714Y-15581214D01*
X12547143Y-15566929D01*
X12818571Y-15552643D02*
X12832857Y-15566929D01*
X12818571Y-15581214D01*
X12804286Y-15566929D01*
X12818571Y-15552643D01*
X12818571Y-15581214D01*
X12818571Y-15395500D02*
X12832857Y-15409786D01*
X12818571Y-15424071D01*
X12804286Y-15409786D01*
X12818571Y-15395500D01*
X12818571Y-15424071D01*
X10395000Y-16035500D02*
X10475000Y-16115500D01*
X10475000Y-16035500D02*
X10395000Y-16115500D01*
X10818571Y-15911214D02*
X10847143Y-15911214D01*
X10875714Y-15925500D01*
X10890000Y-15939786D01*
X10904286Y-15968357D01*
X10918571Y-16025500D01*
X10918571Y-16096929D01*
X10904286Y-16154071D01*
X10890000Y-16182643D01*
X10875714Y-16196929D01*
X10847143Y-16211214D01*
X10818571Y-16211214D01*
X10790000Y-16196929D01*
X10775714Y-16182643D01*
X10761428Y-16154071D01*
X10747143Y-16096929D01*
X10747143Y-16025500D01*
X10761428Y-15968357D01*
X10775714Y-15939786D01*
X10790000Y-15925500D01*
X10818571Y-15911214D01*
X11047143Y-16182643D02*
X11061428Y-16196929D01*
X11047143Y-16211214D01*
X11032857Y-16196929D01*
X11047143Y-16182643D01*
X11047143Y-16211214D01*
X11232857Y-16039786D02*
X11204286Y-16025500D01*
X11190000Y-16011214D01*
X11175714Y-15982643D01*
X11175714Y-15968357D01*
X11190000Y-15939786D01*
X11204286Y-15925500D01*
X11232857Y-15911214D01*
X11290000Y-15911214D01*
X11318571Y-15925500D01*
X11332857Y-15939786D01*
X11347143Y-15968357D01*
X11347143Y-15982643D01*
X11332857Y-16011214D01*
X11318571Y-16025500D01*
X11290000Y-16039786D01*
X11232857Y-16039786D01*
X11204286Y-16054071D01*
X11190000Y-16068357D01*
X11175714Y-16096929D01*
X11175714Y-16154071D01*
X11190000Y-16182643D01*
X11204286Y-16196929D01*
X11232857Y-16211214D01*
X11290000Y-16211214D01*
X11318571Y-16196929D01*
X11332857Y-16182643D01*
X11347143Y-16154071D01*
X11347143Y-16096929D01*
X11332857Y-16068357D01*
X11318571Y-16054071D01*
X11290000Y-16039786D01*
X11532857Y-15911214D02*
X11561428Y-15911214D01*
X11590000Y-15925500D01*
X11604286Y-15939786D01*
X11618571Y-15968357D01*
X11632857Y-16025500D01*
X11632857Y-16096929D01*
X11618571Y-16154071D01*
X11604286Y-16182643D01*
X11590000Y-16196929D01*
X11561428Y-16211214D01*
X11532857Y-16211214D01*
X11504286Y-16196929D01*
X11490000Y-16182643D01*
X11475714Y-16154071D01*
X11461428Y-16096929D01*
X11461428Y-16025500D01*
X11475714Y-15968357D01*
X11490000Y-15939786D01*
X11504286Y-15925500D01*
X11532857Y-15911214D01*
X11761428Y-16211214D02*
X11761428Y-16011214D01*
X11761428Y-16039786D02*
X11775714Y-16025500D01*
X11804286Y-16011214D01*
X11847143Y-16011214D01*
X11875714Y-16025500D01*
X11890000Y-16054071D01*
X11890000Y-16211214D01*
X11890000Y-16054071D02*
X11904286Y-16025500D01*
X11932857Y-16011214D01*
X11975714Y-16011214D01*
X12004286Y-16025500D01*
X12018571Y-16054071D01*
X12018571Y-16211214D01*
X12161428Y-16211214D02*
X12161428Y-16011214D01*
X12161428Y-16039786D02*
X12175714Y-16025500D01*
X12204286Y-16011214D01*
X12247143Y-16011214D01*
X12275714Y-16025500D01*
X12290000Y-16054071D01*
X12290000Y-16211214D01*
X12290000Y-16054071D02*
X12304286Y-16025500D01*
X12332857Y-16011214D01*
X12375714Y-16011214D01*
X12404286Y-16025500D01*
X12418571Y-16054071D01*
X12418571Y-16211214D01*
X13004286Y-15896929D02*
X12747143Y-16282643D01*
X13390000Y-15911214D02*
X13418571Y-15911214D01*
X13447143Y-15925500D01*
X13461428Y-15939786D01*
X13475714Y-15968357D01*
X13490000Y-16025500D01*
X13490000Y-16096929D01*
X13475714Y-16154071D01*
X13461428Y-16182643D01*
X13447143Y-16196929D01*
X13418571Y-16211214D01*
X13390000Y-16211214D01*
X13361428Y-16196929D01*
X13347143Y-16182643D01*
X13332857Y-16154071D01*
X13318571Y-16096929D01*
X13318571Y-16025500D01*
X13332857Y-15968357D01*
X13347143Y-15939786D01*
X13361428Y-15925500D01*
X13390000Y-15911214D01*
X13618571Y-16182643D02*
X13632857Y-16196929D01*
X13618571Y-16211214D01*
X13604286Y-16196929D01*
X13618571Y-16182643D01*
X13618571Y-16211214D01*
X13818571Y-15911214D02*
X13847143Y-15911214D01*
X13875714Y-15925500D01*
X13890000Y-15939786D01*
X13904286Y-15968357D01*
X13918571Y-16025500D01*
X13918571Y-16096929D01*
X13904286Y-16154071D01*
X13890000Y-16182643D01*
X13875714Y-16196929D01*
X13847143Y-16211214D01*
X13818571Y-16211214D01*
X13790000Y-16196929D01*
X13775714Y-16182643D01*
X13761428Y-16154071D01*
X13747143Y-16096929D01*
X13747143Y-16025500D01*
X13761428Y-15968357D01*
X13775714Y-15939786D01*
X13790000Y-15925500D01*
X13818571Y-15911214D01*
X14018571Y-15911214D02*
X14204286Y-15911214D01*
X14104286Y-16025500D01*
X14147143Y-16025500D01*
X14175714Y-16039786D01*
X14190000Y-16054071D01*
X14204286Y-16082643D01*
X14204286Y-16154071D01*
X14190000Y-16182643D01*
X14175714Y-16196929D01*
X14147143Y-16211214D01*
X14061428Y-16211214D01*
X14032857Y-16196929D01*
X14018571Y-16182643D01*
X14490000Y-16211214D02*
X14318571Y-16211214D01*
X14404286Y-16211214D02*
X14404286Y-15911214D01*
X14375714Y-15954071D01*
X14347143Y-15982643D01*
X14318571Y-15996929D01*
X14604286Y-15911214D02*
X14604286Y-15968357D01*
X14718571Y-15911214D02*
X14718571Y-15968357D01*
X15161428Y-16325500D02*
X15147143Y-16311214D01*
X15118571Y-16268357D01*
X15104286Y-16239786D01*
X15090000Y-16196929D01*
X15075714Y-16125500D01*
X15075714Y-16068357D01*
X15090000Y-15996929D01*
X15104286Y-15954071D01*
X15118571Y-15925500D01*
X15147143Y-15882643D01*
X15161428Y-15868357D01*
X15261428Y-15939786D02*
X15275714Y-15925500D01*
X15304286Y-15911214D01*
X15375714Y-15911214D01*
X15404286Y-15925500D01*
X15418571Y-15939786D01*
X15432857Y-15968357D01*
X15432857Y-15996929D01*
X15418571Y-16039786D01*
X15247143Y-16211214D01*
X15432857Y-16211214D01*
X15618571Y-15911214D02*
X15647143Y-15911214D01*
X15675714Y-15925500D01*
X15690000Y-15939786D01*
X15704286Y-15968357D01*
X15718571Y-16025500D01*
X15718571Y-16096929D01*
X15704286Y-16154071D01*
X15690000Y-16182643D01*
X15675714Y-16196929D01*
X15647143Y-16211214D01*
X15618571Y-16211214D01*
X15590000Y-16196929D01*
X15575714Y-16182643D01*
X15561428Y-16154071D01*
X15547143Y-16096929D01*
X15547143Y-16025500D01*
X15561428Y-15968357D01*
X15575714Y-15939786D01*
X15590000Y-15925500D01*
X15618571Y-15911214D01*
X16075714Y-16211214D02*
X16075714Y-15911214D01*
X16204286Y-16211214D02*
X16204286Y-16054071D01*
X16190000Y-16025500D01*
X16161428Y-16011214D01*
X16118571Y-16011214D01*
X16090000Y-16025500D01*
X16075714Y-16039786D01*
X16390000Y-16211214D02*
X16361428Y-16196929D01*
X16347143Y-16182643D01*
X16332857Y-16154071D01*
X16332857Y-16068357D01*
X16347143Y-16039786D01*
X16361428Y-16025500D01*
X16390000Y-16011214D01*
X16432857Y-16011214D01*
X16461428Y-16025500D01*
X16475714Y-16039786D01*
X16490000Y-16068357D01*
X16490000Y-16154071D01*
X16475714Y-16182643D01*
X16461428Y-16196929D01*
X16432857Y-16211214D01*
X16390000Y-16211214D01*
X16661428Y-16211214D02*
X16632857Y-16196929D01*
X16618571Y-16168357D01*
X16618571Y-15911214D01*
X16890000Y-16196929D02*
X16861428Y-16211214D01*
X16804286Y-16211214D01*
X16775714Y-16196929D01*
X16761428Y-16168357D01*
X16761428Y-16054071D01*
X16775714Y-16025500D01*
X16804286Y-16011214D01*
X16861428Y-16011214D01*
X16890000Y-16025500D01*
X16904286Y-16054071D01*
X16904286Y-16082643D01*
X16761428Y-16111214D01*
X17018571Y-16196929D02*
X17047143Y-16211214D01*
X17104286Y-16211214D01*
X17132857Y-16196929D01*
X17147143Y-16168357D01*
X17147143Y-16154071D01*
X17132857Y-16125500D01*
X17104286Y-16111214D01*
X17061428Y-16111214D01*
X17032857Y-16096929D01*
X17018571Y-16068357D01*
X17018571Y-16054071D01*
X17032857Y-16025500D01*
X17061428Y-16011214D01*
X17104286Y-16011214D01*
X17132857Y-16025500D01*
X17247143Y-16325500D02*
X17261428Y-16311214D01*
X17290000Y-16268357D01*
X17304286Y-16239786D01*
X17318571Y-16196929D01*
X17332857Y-16125500D01*
X17332857Y-16068357D01*
X17318571Y-15996929D01*
X17304286Y-15954071D01*
X17290000Y-15925500D01*
X17261428Y-15882643D01*
X17247143Y-15868357D01*
X17790000Y-16325500D02*
X17775714Y-16311214D01*
X17747143Y-16268357D01*
X17732857Y-16239786D01*
X17718571Y-16196929D01*
X17704286Y-16125500D01*
X17704286Y-16068357D01*
X17718571Y-15996929D01*
X17732857Y-15954071D01*
X17747143Y-15925500D01*
X17775714Y-15882643D01*
X17790000Y-15868357D01*
X17904286Y-16011214D02*
X17904286Y-16211214D01*
X17904286Y-16039786D02*
X17918571Y-16025500D01*
X17947143Y-16011214D01*
X17990000Y-16011214D01*
X18018571Y-16025500D01*
X18032857Y-16054071D01*
X18032857Y-16211214D01*
X18218571Y-16211214D02*
X18190000Y-16196929D01*
X18175714Y-16182643D01*
X18161428Y-16154071D01*
X18161428Y-16068357D01*
X18175714Y-16039786D01*
X18190000Y-16025500D01*
X18218571Y-16011214D01*
X18261428Y-16011214D01*
X18290000Y-16025500D01*
X18304286Y-16039786D01*
X18318571Y-16068357D01*
X18318571Y-16154071D01*
X18304286Y-16182643D01*
X18290000Y-16196929D01*
X18261428Y-16211214D01*
X18218571Y-16211214D01*
X18404286Y-16011214D02*
X18518571Y-16011214D01*
X18447143Y-15911214D02*
X18447143Y-16168357D01*
X18461428Y-16196929D01*
X18490000Y-16211214D01*
X18518571Y-16211214D01*
X18847143Y-16011214D02*
X18847143Y-16311214D01*
X18847143Y-16025500D02*
X18875714Y-16011214D01*
X18932857Y-16011214D01*
X18961428Y-16025500D01*
X18975714Y-16039786D01*
X18990000Y-16068357D01*
X18990000Y-16154071D01*
X18975714Y-16182643D01*
X18961428Y-16196929D01*
X18932857Y-16211214D01*
X18875714Y-16211214D01*
X18847143Y-16196929D01*
X19161428Y-16211214D02*
X19132857Y-16196929D01*
X19118571Y-16168357D01*
X19118571Y-15911214D01*
X19404286Y-16211214D02*
X19404286Y-16054071D01*
X19390000Y-16025500D01*
X19361428Y-16011214D01*
X19304286Y-16011214D01*
X19275714Y-16025500D01*
X19404286Y-16196929D02*
X19375714Y-16211214D01*
X19304286Y-16211214D01*
X19275714Y-16196929D01*
X19261428Y-16168357D01*
X19261428Y-16139786D01*
X19275714Y-16111214D01*
X19304286Y-16096929D01*
X19375714Y-16096929D01*
X19404286Y-16082643D01*
X19504286Y-16011214D02*
X19618571Y-16011214D01*
X19547143Y-15911214D02*
X19547143Y-16168357D01*
X19561428Y-16196929D01*
X19590000Y-16211214D01*
X19618571Y-16211214D01*
X19832857Y-16196929D02*
X19804286Y-16211214D01*
X19747143Y-16211214D01*
X19718571Y-16196929D01*
X19704286Y-16168357D01*
X19704286Y-16054071D01*
X19718571Y-16025500D01*
X19747143Y-16011214D01*
X19804286Y-16011214D01*
X19832857Y-16025500D01*
X19847143Y-16054071D01*
X19847143Y-16082643D01*
X19704286Y-16111214D01*
X20104286Y-16211214D02*
X20104286Y-15911214D01*
X20104286Y-16196929D02*
X20075714Y-16211214D01*
X20018571Y-16211214D01*
X19990000Y-16196929D01*
X19975714Y-16182643D01*
X19961428Y-16154071D01*
X19961428Y-16068357D01*
X19975714Y-16039786D01*
X19990000Y-16025500D01*
X20018571Y-16011214D01*
X20075714Y-16011214D01*
X20104286Y-16025500D01*
X20218571Y-16325500D02*
X20232857Y-16311214D01*
X20261428Y-16268357D01*
X20275714Y-16239786D01*
X20290000Y-16196929D01*
X20304286Y-16125500D01*
X20304286Y-16068357D01*
X20290000Y-15996929D01*
X20275714Y-15954071D01*
X20261428Y-15925500D01*
X20232857Y-15882643D01*
X20218571Y-15868357D01*
M02*
